<svg xmlns="http://www.w3.org/2000/svg" xmlns:xlink="http://www.w3.org/1999/xlink" width="1024" zoomAndPan="magnify" viewBox="0 0 768 767.999994" height="1024" preserveAspectRatio="xMidYMid meet" version="1.0"><defs><clipPath id="bca15af4cb"><path d="M 95.828125 95.828125 L 671.828125 95.828125 L 671.828125 671.828125 L 95.828125 671.828125 Z M 95.828125 95.828125 " clip-rule="nonzero"/></clipPath></defs><rect x="-76.8" width="921.6" fill="#ffffff" y="-76.799999" height="921.599993" fill-opacity="1"/><rect x="-76.8" width="921.6" fill="#192a51" y="-76.799999" height="921.599993" fill-opacity="1"/><g clip-path="url(#bca15af4cb)"><path fill="#f03c2e" d="M 660.957031 358.179688 L 409.480469 106.699219 C 408.621094 105.839844 407.722656 105.027344 406.78125 104.253906 C 405.84375 103.484375 404.867188 102.761719 403.859375 102.085938 C 402.847656 101.410156 401.808594 100.789062 400.738281 100.214844 C 399.664062 99.640625 398.570312 99.125 397.445312 98.65625 C 396.324219 98.191406 395.183594 97.785156 394.019531 97.429688 C 392.855469 97.078125 391.679688 96.785156 390.488281 96.546875 C 389.296875 96.308594 388.097656 96.132812 386.886719 96.011719 C 385.679688 95.894531 384.46875 95.832031 383.253906 95.832031 C 382.039062 95.832031 380.824219 95.894531 379.617188 96.011719 C 378.40625 96.132812 377.207031 96.308594 376.015625 96.546875 C 374.824219 96.785156 373.648438 97.078125 372.484375 97.429688 C 371.324219 97.785156 370.179688 98.191406 369.058594 98.65625 C 367.9375 99.125 366.839844 99.640625 365.769531 100.214844 C 364.695312 100.789062 363.65625 101.410156 362.644531 102.085938 C 361.636719 102.761719 360.660156 103.484375 359.722656 104.253906 C 358.785156 105.027344 357.886719 105.839844 357.027344 106.699219 L 304.828125 158.902344 L 371.066406 225.140625 C 386.472656 219.742188 404.113281 223.429688 416.390625 235.707031 C 417.84375 237.164062 419.191406 238.714844 420.425781 240.359375 C 421.664062 242.003906 422.777344 243.726562 423.773438 245.527344 C 424.769531 247.328125 425.636719 249.1875 426.371094 251.109375 C 427.105469 253.035156 427.703125 254.996094 428.164062 257.003906 C 428.621094 259.007812 428.941406 261.035156 429.117188 263.085938 C 429.292969 265.136719 429.324219 267.1875 429.214844 269.246094 C 429.105469 271.300781 428.851562 273.335938 428.453125 275.355469 C 428.058594 277.375 427.523438 279.355469 426.847656 281.300781 L 490.695312 345.148438 C 506.136719 339.820312 523.957031 343.257812 536.289062 355.621094 C 537.3125 356.644531 538.28125 357.714844 539.199219 358.832031 C 540.117188 359.949219 540.980469 361.109375 541.78125 362.3125 C 542.585938 363.515625 543.328125 364.753906 544.011719 366.03125 C 544.695312 367.304688 545.3125 368.609375 545.867188 369.945312 C 546.417969 371.28125 546.90625 372.644531 547.328125 374.027344 C 547.746094 375.410156 548.097656 376.8125 548.378906 378.230469 C 548.664062 379.648438 548.875 381.078125 549.015625 382.515625 C 549.160156 383.957031 549.230469 385.398438 549.230469 386.84375 C 549.230469 388.292969 549.160156 389.734375 549.015625 391.175781 C 548.875 392.613281 548.664062 394.042969 548.382812 395.460938 C 548.097656 396.878906 547.75 398.28125 547.328125 399.664062 C 546.910156 401.046875 546.421875 402.410156 545.867188 403.746094 C 545.316406 405.082031 544.699219 406.386719 544.015625 407.664062 C 543.332031 408.9375 542.589844 410.175781 541.789062 411.378906 C 540.984375 412.582031 540.125 413.742188 539.207031 414.859375 C 538.289062 415.976562 537.316406 417.046875 536.292969 418.070312 C 535.273438 419.09375 534.203125 420.0625 533.082031 420.980469 C 531.964844 421.898438 530.804688 422.757812 529.601562 423.5625 C 528.398438 424.363281 527.160156 425.105469 525.882812 425.789062 C 524.609375 426.46875 523.300781 427.085938 521.964844 427.640625 C 520.628906 428.195312 519.269531 428.679688 517.886719 429.101562 C 516.5 429.519531 515.101562 429.871094 513.679688 430.152344 C 512.261719 430.433594 510.832031 430.644531 509.394531 430.785156 C 507.953125 430.925781 506.511719 430.996094 505.066406 430.996094 C 503.621094 430.996094 502.175781 430.925781 500.738281 430.78125 C 499.296875 430.640625 497.871094 430.425781 496.449219 430.144531 C 495.03125 429.863281 493.632812 429.511719 492.246094 429.089844 C 490.863281 428.667969 489.503906 428.183594 488.167969 427.628906 C 486.832031 427.074219 485.527344 426.457031 484.25 425.773438 C 482.976562 425.089844 481.738281 424.347656 480.535156 423.542969 C 479.332031 422.738281 478.171875 421.878906 477.054688 420.960938 C 475.9375 420.039062 474.867188 419.070312 473.847656 418.046875 C 460.886719 405.085938 457.683594 386.007812 464.234375 370.039062 L 404.691406 310.496094 L 404.691406 467.1875 C 409.042969 469.339844 412.941406 472.125 416.390625 475.539062 C 417.414062 476.5625 418.382812 477.628906 419.300781 478.75 C 420.214844 479.867188 421.078125 481.027344 421.878906 482.226562 C 422.683594 483.429688 423.425781 484.667969 424.105469 485.941406 C 424.789062 487.21875 425.40625 488.523438 425.957031 489.859375 C 426.511719 491.195312 427 492.554688 427.417969 493.9375 C 427.839844 495.320312 428.1875 496.722656 428.472656 498.140625 C 428.753906 499.558594 428.964844 500.984375 429.105469 502.425781 C 429.25 503.863281 429.320312 505.304688 429.320312 506.75 C 429.320312 508.195312 429.25 509.636719 429.105469 511.078125 C 428.964844 512.515625 428.753906 513.945312 428.472656 515.363281 C 428.1875 516.78125 427.839844 518.179688 427.417969 519.5625 C 427 520.949219 426.511719 522.308594 425.957031 523.640625 C 425.40625 524.976562 424.789062 526.285156 424.105469 527.558594 C 423.425781 528.832031 422.683594 530.070312 421.878906 531.273438 C 421.078125 532.476562 420.214844 533.636719 419.300781 534.753906 C 418.382812 535.871094 417.414062 536.941406 416.390625 537.960938 C 415.367188 538.984375 414.296875 539.953125 413.179688 540.871094 C 412.0625 541.789062 410.902344 542.648438 409.703125 543.453125 C 408.5 544.253906 407.261719 544.996094 405.984375 545.679688 C 404.710938 546.359375 403.40625 546.976562 402.070312 547.53125 C 400.734375 548.085938 399.375 548.570312 397.992188 548.992188 C 396.609375 549.410156 395.207031 549.761719 393.789062 550.042969 C 392.371094 550.324219 390.945312 550.535156 389.503906 550.679688 C 388.066406 550.820312 386.625 550.890625 385.179688 550.890625 C 383.734375 550.890625 382.289062 550.820312 380.851562 550.679688 C 379.414062 550.535156 377.984375 550.324219 376.566406 550.042969 C 375.148438 549.761719 373.75 549.410156 372.367188 548.992188 C 370.980469 548.570312 369.621094 548.085938 368.285156 547.53125 C 366.949219 546.976562 365.644531 546.359375 364.371094 545.679688 C 363.097656 544.996094 361.859375 544.253906 360.65625 543.453125 C 359.453125 542.648438 358.292969 541.789062 357.175781 540.871094 C 356.058594 539.953125 354.988281 538.984375 353.964844 537.960938 C 352.941406 536.941406 351.972656 535.871094 351.054688 534.753906 C 350.136719 533.636719 349.273438 532.476562 348.46875 531.277344 C 347.667969 530.074219 346.921875 528.835938 346.242188 527.5625 C 345.558594 526.285156 344.941406 524.980469 344.386719 523.644531 C 343.832031 522.308594 343.34375 520.949219 342.925781 519.566406 C 342.503906 518.183594 342.152344 516.78125 341.871094 515.363281 C 341.589844 513.945312 341.375 512.515625 341.234375 511.078125 C 341.09375 509.640625 341.019531 508.195312 341.019531 506.75 C 341.019531 505.304688 341.09375 503.863281 341.234375 502.421875 C 341.375 500.984375 341.589844 499.554688 341.871094 498.136719 C 342.152344 496.71875 342.503906 495.316406 342.925781 493.933594 C 343.34375 492.550781 343.832031 491.191406 344.386719 489.855469 C 344.941406 488.519531 345.558594 487.214844 346.242188 485.941406 C 346.921875 484.664062 347.667969 483.425781 348.46875 482.226562 C 349.273438 481.023438 350.136719 479.863281 351.054688 478.746094 C 351.972656 477.628906 352.941406 476.558594 353.964844 475.539062 C 358.234375 471.289062 362.964844 468.070312 368.421875 465.910156 L 368.421875 307.761719 C 363.164062 305.601562 358.234375 302.414062 353.964844 298.128906 C 352.425781 296.589844 351.007812 294.949219 349.710938 293.199219 C 348.410156 291.449219 347.25 289.613281 346.226562 287.691406 C 345.199219 285.769531 344.320312 283.785156 343.589844 281.730469 C 342.859375 279.679688 342.28125 277.585938 341.863281 275.449219 C 341.441406 273.3125 341.179688 271.15625 341.078125 268.980469 C 340.976562 266.804688 341.035156 264.632812 341.257812 262.46875 C 341.476562 260.300781 341.855469 258.160156 342.394531 256.050781 C 342.929688 253.941406 343.621094 251.882812 344.460938 249.871094 L 279.121094 184.570312 L 106.683594 356.828125 C 105.824219 357.6875 105.007812 358.585938 104.234375 359.527344 C 103.464844 360.464844 102.742188 361.4375 102.066406 362.449219 C 101.390625 363.460938 100.765625 364.5 100.191406 365.570312 C 99.617188 366.644531 99.097656 367.742188 98.632812 368.863281 C 98.167969 369.988281 97.757812 371.128906 97.40625 372.292969 C 97.050781 373.453125 96.757812 374.632812 96.519531 375.824219 C 96.28125 377.015625 96.105469 378.21875 95.984375 379.425781 C 95.867188 380.636719 95.804688 381.847656 95.804688 383.0625 C 95.804688 384.277344 95.867188 385.492188 95.984375 386.699219 C 96.105469 387.910156 96.28125 389.109375 96.519531 390.304688 C 96.757812 391.496094 97.050781 392.671875 97.40625 393.835938 C 97.757812 395 98.167969 396.140625 98.632812 397.265625 C 99.097656 398.386719 99.617188 399.484375 100.191406 400.554688 C 100.765625 401.625 101.390625 402.667969 102.066406 403.679688 C 102.742188 404.6875 103.464844 405.664062 104.234375 406.601562 C 105.007812 407.539062 105.824219 408.441406 106.683594 409.296875 L 358.179688 660.757812 C 359.039062 661.617188 359.9375 662.433594 360.875 663.203125 C 361.8125 663.972656 362.789062 664.699219 363.796875 665.371094 C 364.808594 666.046875 365.847656 666.671875 366.921875 667.246094 C 367.992188 667.816406 369.089844 668.335938 370.210938 668.800781 C 371.332031 669.265625 372.476562 669.675781 373.636719 670.027344 C 374.800781 670.378906 375.976562 670.675781 377.167969 670.914062 C 378.359375 671.148438 379.558594 671.328125 380.769531 671.445312 C 381.976562 671.566406 383.191406 671.625 384.40625 671.625 C 385.621094 671.625 386.832031 671.566406 388.039062 671.445312 C 389.25 671.328125 390.449219 671.148438 391.640625 670.914062 C 392.832031 670.675781 394.007812 670.378906 395.171875 670.027344 C 396.335938 669.675781 397.476562 669.265625 398.597656 668.800781 C 399.722656 668.335938 400.816406 667.816406 401.890625 667.246094 C 402.960938 666.671875 404 666.046875 405.011719 665.371094 C 406.019531 664.699219 406.996094 663.972656 407.933594 663.203125 C 408.871094 662.433594 409.773438 661.617188 410.628906 660.757812 L 660.957031 410.828125 C 661.816406 409.96875 662.632812 409.070312 663.402344 408.132812 C 664.175781 407.191406 664.898438 406.21875 665.574219 405.207031 C 666.25 404.199219 666.875 403.15625 667.449219 402.085938 C 668.019531 401.011719 668.539062 399.917969 669.003906 398.792969 C 669.472656 397.671875 669.878906 396.527344 670.234375 395.363281 C 670.585938 394.203125 670.882812 393.023438 671.117188 391.832031 C 671.355469 390.640625 671.535156 389.441406 671.652344 388.230469 C 671.773438 387.019531 671.832031 385.808594 671.832031 384.59375 C 671.832031 383.378906 671.773438 382.164062 671.652344 380.957031 C 671.535156 379.746094 671.355469 378.546875 671.117188 377.355469 C 670.882812 376.164062 670.585938 374.984375 670.234375 373.820312 C 669.878906 372.660156 669.472656 371.515625 669.003906 370.394531 C 668.539062 369.269531 668.019531 368.171875 667.449219 367.101562 C 666.875 366.03125 666.25 364.988281 665.574219 363.980469 C 664.898438 362.96875 664.175781 361.996094 663.402344 361.054688 C 662.632812 360.117188 661.816406 359.21875 660.957031 358.359375 " fill-opacity="1" fill-rule="nonzero"/></g></svg>