<svg xmlns="http://www.w3.org/2000/svg" xmlns:xlink="http://www.w3.org/1999/xlink" width="1024" zoomAndPan="magnify" viewBox="0 0 768 767.999994" height="1024" preserveAspectRatio="xMidYMid meet" version="1.0"><rect x="-76.8" width="921.6" fill="#ffffff" y="-76.799999" height="921.599993" fill-opacity="1"/><rect x="-76.8" width="921.6" fill="#192a51" y="-76.799999" height="921.599993" fill-opacity="1"/><path fill="#000000" d="M 346.847656 118.25 C 219.628906 132.351562 115.96875 235 100.617188 362.019531 C 100.121094 366.007812 99.710938 370.003906 99.382812 374.011719 C 99.058594 378.015625 98.820312 382.023438 98.667969 386.039062 C 98.515625 390.054688 98.445312 394.074219 98.464844 398.089844 C 98.484375 402.109375 98.589844 406.125 98.78125 410.140625 C 98.972656 414.152344 99.25 418.160156 99.613281 422.164062 C 99.976562 426.164062 100.421875 430.15625 100.957031 434.140625 C 101.492188 438.121094 102.109375 442.089844 102.8125 446.046875 C 103.519531 450.003906 104.308594 453.941406 105.179688 457.863281 C 106.050781 461.789062 107.007812 465.6875 108.050781 469.570312 C 109.089844 473.453125 110.210938 477.308594 111.417969 481.140625 C 112.621094 484.976562 113.910156 488.78125 115.277344 492.558594 C 116.648438 496.335938 118.09375 500.085938 119.625 503.800781 C 121.152344 507.515625 122.761719 511.199219 124.449219 514.84375 C 126.136719 518.492188 127.898438 522.101562 129.742188 525.671875 C 131.582031 529.246094 133.5 532.773438 135.492188 536.265625 C 137.484375 539.753906 139.550781 543.199219 141.691406 546.597656 C 143.832031 550 146.046875 553.351562 148.328125 556.660156 C 150.613281 559.964844 152.96875 563.21875 155.390625 566.425781 C 157.816406 569.628906 160.304688 572.78125 162.863281 575.878906 C 165.421875 578.980469 168.046875 582.019531 170.738281 585.007812 C 173.425781 587.992188 176.175781 590.917969 178.992188 593.785156 C 181.808594 596.65625 184.679688 599.460938 187.617188 602.207031 C 190.550781 604.949219 193.542969 607.632812 196.59375 610.246094 C 199.644531 612.863281 202.746094 615.414062 205.90625 617.898438 C 209.066406 620.378906 212.277344 622.796875 215.539062 625.140625 C 218.800781 627.488281 222.113281 629.761719 225.472656 631.964844 C 228.832031 634.167969 232.238281 636.300781 235.6875 638.359375 C 239.140625 640.417969 242.632812 642.398438 246.167969 644.308594 C 249.707031 646.214844 253.28125 648.046875 256.894531 649.800781 C 260.511719 651.558594 264.160156 653.234375 267.847656 654.832031 C 271.535156 656.429688 275.253906 657.949219 279.003906 659.390625 C 282.757812 660.828125 286.539062 662.1875 290.347656 663.464844 C 304.386719 665.707031 308.875 657.007812 308.875 649.441406 L 308.875 602.019531 C 231.167969 618.898438 214.625 564.445312 214.625 564.445312 C 201.757812 531.894531 183.488281 523.199219 183.488281 523.199219 C 157.949219 505.800781 185.472656 506.378906 185.472656 506.378906 C 213.515625 508.363281 228.386719 535.273438 228.386719 535.273438 C 252.796875 577.910156 294.023438 565.28125 310.007812 558.546875 C 312.53125 540.316406 319.9375 527.964844 327.683594 520.953125 C 265.304688 513.945312 200.03125 489.816406 200.03125 382.953125 C 200.03125 351.8125 210.695312 326.851562 228.925781 306.933594 C 226.125 299.921875 216.292969 270.75 231.726562 232.875 C 231.726562 232.875 255.296875 225.289062 308.875 261.492188 C 320.308594 258.414062 331.894531 256.101562 343.632812 254.546875 C 355.371094 252.996094 367.160156 252.21875 379 252.21875 C 390.839844 252.21875 402.625 252.996094 414.363281 254.546875 C 426.101562 256.101562 437.6875 258.414062 449.121094 261.492188 C 502.738281 225.289062 526.273438 232.875 526.273438 232.875 C 541.683594 270.75 531.871094 299.921875 529.070312 306.933594 C 547.300781 326.789062 557.964844 351.8125 557.964844 382.953125 C 557.964844 490.09375 492.3125 513.664062 429.777344 520.675781 C 439.867188 529.375 449.121094 546.492188 449.121094 572.566406 L 449.121094 649.441406 C 449.121094 657.007812 453.609375 665.984375 467.925781 663.464844 C 471.992188 662.101562 476.027344 660.644531 480.027344 659.097656 C 484.023438 657.550781 487.988281 655.914062 491.910156 654.183594 C 495.835938 652.453125 499.71875 650.636719 503.5625 648.730469 C 507.402344 646.824219 511.199219 644.828125 514.949219 642.75 C 518.699219 640.667969 522.398438 638.5 526.050781 636.25 C 529.699219 634 533.296875 631.667969 536.839844 629.253906 C 540.382812 626.839844 543.871094 624.34375 547.300781 621.769531 C 550.730469 619.191406 554.097656 616.539062 557.40625 613.8125 C 560.714844 611.082031 563.957031 608.277344 567.136719 605.402344 C 570.316406 602.523438 573.429688 599.574219 576.472656 596.554688 C 579.519531 593.53125 582.492188 590.445312 585.394531 587.285156 C 588.296875 584.128906 591.128906 580.910156 593.882812 577.621094 C 596.636719 574.335938 599.316406 570.988281 601.917969 567.578125 C 604.519531 564.167969 607.042969 560.703125 609.484375 557.179688 C 611.929688 553.652344 614.289062 550.074219 616.570312 546.441406 C 618.847656 542.808594 621.042969 539.125 623.152344 535.390625 C 625.261719 531.660156 627.285156 527.878906 629.222656 524.050781 C 631.160156 520.226562 633.007812 516.359375 634.769531 512.445312 C 636.527344 508.535156 638.199219 504.585938 639.777344 500.597656 C 641.355469 496.613281 642.84375 492.589844 644.238281 488.535156 C 645.632812 484.480469 646.933594 480.394531 648.140625 476.277344 C 649.347656 472.164062 650.460938 468.023438 651.476562 463.855469 C 652.496094 459.691406 653.417969 455.503906 654.242188 451.296875 C 655.070312 447.085938 655.796875 442.863281 656.429688 438.621094 C 657.0625 434.378906 657.597656 430.125 658.035156 425.859375 C 658.472656 421.589844 658.8125 417.316406 659.054688 413.035156 C 659.292969 408.753906 659.4375 404.46875 659.484375 400.179688 C 659.527344 395.890625 659.476562 391.605469 659.324219 387.320312 C 659.171875 383.03125 658.921875 378.753906 658.574219 374.476562 C 658.230469 370.203125 657.785156 365.9375 657.242188 361.683594 C 656.699219 357.429688 656.058594 353.191406 655.320312 348.964844 C 654.582031 344.742188 653.75 340.535156 652.820312 336.347656 C 651.890625 332.164062 650.867188 328 649.746094 323.859375 C 648.625 319.71875 647.410156 315.609375 646.101562 311.523438 C 644.792969 307.441406 643.390625 303.390625 641.894531 299.367188 C 640.402344 295.347656 638.816406 291.367188 637.136719 287.417969 C 635.460938 283.472656 633.695312 279.566406 631.839844 275.699219 C 629.984375 271.832031 628.039062 268.011719 626.007812 264.234375 C 623.976562 260.457031 621.859375 256.726562 619.65625 253.046875 C 617.457031 249.367188 615.171875 245.742188 612.800781 242.164062 C 610.433594 238.589844 607.984375 235.070312 605.457031 231.605469 C 602.925781 228.144531 600.320312 224.742188 597.632812 221.398438 C 594.949219 218.054688 592.1875 214.773438 589.351562 211.554688 C 586.515625 208.339844 583.609375 205.1875 580.628906 202.105469 C 577.648438 199.019531 574.597656 196.003906 571.480469 193.0625 C 568.363281 190.117188 565.175781 187.246094 561.929688 184.449219 C 558.679688 181.648438 555.367188 178.925781 551.992188 176.28125 C 548.617188 173.632812 545.183594 171.066406 541.691406 168.574219 C 538.199219 166.085938 534.652344 163.679688 531.050781 161.351562 C 527.445312 159.023438 523.792969 156.78125 520.085938 154.625 C 516.382812 152.464844 512.628906 150.390625 508.828125 148.402344 C 505.027344 146.414062 501.183594 144.515625 497.296875 142.707031 C 493.410156 140.894531 489.484375 139.171875 485.515625 137.542969 C 481.550781 135.910156 477.550781 134.371094 473.511719 132.921875 C 469.476562 131.476562 465.40625 130.121094 461.308594 128.859375 C 457.210938 127.597656 453.085938 126.429688 448.933594 125.359375 C 444.78125 124.285156 440.605469 123.308594 436.410156 122.425781 C 432.210938 121.546875 427.996094 120.761719 423.761719 120.074219 C 419.53125 119.386719 415.285156 118.792969 411.023438 118.300781 C 406.761719 117.808594 402.496094 117.410156 398.214844 117.113281 C 393.9375 116.816406 389.65625 116.617188 385.367188 116.515625 C 381.082031 116.414062 376.792969 116.410156 372.503906 116.503906 C 368.21875 116.597656 363.933594 116.792969 359.65625 117.082031 C 355.378906 117.375 351.109375 117.761719 346.847656 118.25 Z M 346.847656 118.25 " fill-opacity="1" fill-rule="nonzero"/></svg>