<svg xmlns="http://www.w3.org/2000/svg" xmlns:xlink="http://www.w3.org/1999/xlink" width="1024" zoomAndPan="magnify" viewBox="0 0 768 767.999994" height="1024" preserveAspectRatio="xMidYMid meet" version="1.0"><defs><clipPath id="83ac7e6028"><path d="M 116.6875 116.6875 L 651.4375 116.6875 L 651.4375 651.4375 L 116.6875 651.4375 Z M 116.6875 116.6875 " clip-rule="nonzero"/></clipPath></defs><rect x="-76.8" width="921.6" fill="#ffffff" y="-76.799999" height="921.599993" fill-opacity="1"/><rect x="-76.8" width="921.6" fill="#192a51" y="-76.799999" height="921.599993" fill-opacity="1"/><g clip-path="url(#83ac7e6028)"><path fill="#563d7c" d="M 116.6875 582.480469 C 116.6875 620.5625 147.558594 651.4375 185.636719 651.4375 L 582.480469 651.4375 C 620.558594 651.4375 651.433594 620.5625 651.433594 582.480469 L 651.433594 185.640625 C 651.433594 147.554688 620.558594 116.6875 582.480469 116.6875 L 185.636719 116.6875 C 147.550781 116.6875 116.683594 147.558594 116.683594 185.636719 L 116.683594 582.480469 Z M 116.6875 582.480469 " fill-opacity="1" fill-rule="nonzero"/></g><path fill="#ffffff" d="M 338.441406 353.230469 L 338.441406 277.496094 L 405.09375 277.496094 C 411.445312 277.496094 417.566406 278.027344 423.457031 279.082031 C 429.347656 280.140625 434.570312 282.03125 439.101562 284.75 C 443.636719 287.472656 447.269531 291.253906 449.984375 296.089844 C 452.699219 300.925781 454.058594 307.125 454.058594 314.679688 C 454.058594 328.289062 449.984375 338.105469 441.816406 344.164062 C 433.671875 350.199219 423.226562 353.230469 410.527344 353.230469 Z M 267.242188 222.171875 L 267.242188 545.949219 L 424.144531 545.949219 C 438.644531 545.949219 452.785156 544.128906 466.527344 540.496094 C 480.292969 536.882812 492.535156 531.285156 503.273438 523.722656 C 514.007812 516.160156 522.53125 506.425781 528.882812 494.476562 C 535.230469 482.53125 538.40625 468.410156 538.40625 452.074219 C 538.40625 431.832031 533.5 414.515625 523.679688 400.164062 C 513.84375 385.792969 498.96875 375.746094 479 370.003906 C 493.515625 363.046875 504.484375 354.128906 511.878906 343.246094 C 519.292969 332.359375 522.992188 318.761719 522.992188 302.4375 C 522.992188 287.320312 520.503906 274.625 515.511719 264.34375 C 510.519531 254.066406 503.503906 245.828125 494.4375 239.632812 C 485.351562 233.433594 474.46875 228.976562 461.789062 226.253906 C 449.085938 223.535156 435.027344 222.171875 419.613281 222.171875 Z M 338.441406 490.632812 L 338.441406 401.753906 L 415.980469 401.753906 C 431.394531 401.753906 443.78125 405.304688 453.160156 412.40625 C 462.539062 419.507812 467.21875 431.375 467.21875 448 C 467.21875 456.460938 465.777344 463.417969 462.914062 468.867188 C 460.03125 474.300781 456.1875 478.601562 451.34375 481.777344 C 446.519531 484.953125 440.917969 487.230469 434.570312 488.585938 C 428.21875 489.945312 421.578125 490.632812 414.621094 490.632812 Z M 338.441406 490.632812 " fill-opacity="1" fill-rule="nonzero"/></svg>