<svg xmlns="http://www.w3.org/2000/svg" xmlns:xlink="http://www.w3.org/1999/xlink" width="1024" zoomAndPan="magnify" viewBox="0 0 768 767.999994" height="1024" preserveAspectRatio="xMidYMid meet" version="1.0"><defs><clipPath id="858386478e"><path d="M 73 196.398438 L 694.703125 196.398438 L 694.703125 571.398438 L 73 571.398438 Z M 73 196.398438 " clip-rule="nonzero"/></clipPath></defs><rect x="-76.8" width="921.6" fill="#ffffff" y="-76.799999" height="921.599993" fill-opacity="1"/><rect x="-76.8" width="921.6" fill="#192a51" y="-76.799999" height="921.599993" fill-opacity="1"/><g clip-path="url(#858386478e)"><path fill="#ffffff" d="M 219.789062 294.25 L 337.085938 294.25 L 337.085938 303.574219 L 230.539062 303.574219 L 230.539062 373.734375 L 330.734375 373.734375 L 330.734375 383.0625 L 230.539062 383.0625 L 230.539062 460.09375 L 338.300781 460.09375 L 338.300781 469.421875 L 219.789062 469.421875 Z M 347.59375 294.25 L 360.054688 294.25 L 415.285156 371.28125 L 471.730469 294.25 L 548.503906 196.398438 L 422.367188 379.382812 L 487.375 469.421875 L 474.414062 469.421875 L 415.285156 387.472656 L 355.902344 469.421875 L 343.195312 469.421875 L 408.675781 379.382812 Z M 492.011719 303.574219 L 492.011719 294.25 L 625.683594 294.25 L 625.683594 303.574219 L 564.101562 303.574219 L 564.101562 469.417969 L 553.351562 469.417969 L 553.351562 303.574219 L 492.011719 303.570312 Z M 73.050781 294.25 L 86.492188 294.25 L 271.820312 571.574219 L 195.238281 469.425781 L 84.296875 307.503906 L 83.808594 469.425781 L 73.058594 469.425781 L 73.058594 294.25 Z M 624.589844 457.289062 C 622.402344 457.289062 620.75 455.578125 620.75 453.378906 C 620.75 451.179688 622.402344 449.480469 624.589844 449.480469 C 626.8125 449.480469 628.441406 451.179688 628.441406 453.378906 C 628.441406 455.578125 626.8125 457.289062 624.589844 457.289062 Z M 635.15625 447.015625 L 640.914062 447.015625 C 640.988281 450.136719 643.269531 452.226562 646.613281 452.226562 C 650.351562 452.226562 652.464844 449.976562 652.464844 445.761719 L 652.464844 419.054688 L 658.332031 419.054688 L 658.332031 445.789062 C 658.332031 453.378906 653.9375 457.75 646.671875 457.75 C 639.847656 457.75 635.15625 453.511719 635.15625 447.015625 Z M 665.996094 446.675781 L 671.804688 446.675781 C 672.289062 450.269531 675.800781 452.542969 680.851562 452.542969 C 685.550781 452.542969 689 450.113281 689 446.757812 C 689 443.878906 686.804688 442.144531 681.8125 440.964844 L 676.953125 439.789062 C 670.125 438.195312 667.015625 434.890625 667.015625 429.339844 C 667.015625 422.613281 672.507812 418.144531 680.742188 418.144531 C 688.40625 418.144531 693.992188 422.613281 694.335938 428.976562 L 688.636719 428.976562 C 688.089844 425.492188 685.054688 423.316406 680.65625 423.316406 C 676.03125 423.316406 672.945312 425.550781 672.945312 428.953125 C 672.945312 431.648438 674.9375 433.191406 679.855469 434.347656 L 684.011719 435.367188 C 691.746094 437.175781 694.941406 440.320312 694.941406 445.996094 C 694.941406 453.222656 689.34375 457.75 680.402344 457.75 C 672.035156 457.75 666.410156 453.441406 665.996094 446.675781 Z M 665.996094 446.675781 " fill-opacity="1" fill-rule="nonzero"/></g></svg>