<svg xmlns="http://www.w3.org/2000/svg" xmlns:xlink="http://www.w3.org/1999/xlink" width="1024" zoomAndPan="magnify" viewBox="0 0 768 767.999994" height="1024" preserveAspectRatio="xMidYMid meet" version="1.0"><defs><clipPath id="22efdeb30e"><path d="M 271 320 L 497 320 L 497 665.933594 L 271 665.933594 Z M 271 320 " clip-rule="nonzero"/></clipPath><clipPath id="d196888db7"><path d="M 114 320 L 384 320 L 384 665.933594 L 114 665.933594 Z M 114 320 " clip-rule="nonzero"/></clipPath><clipPath id="fad463236b"><path d="M 79 320 L 384 320 L 384 665.933594 L 79 665.933594 Z M 79 320 " clip-rule="nonzero"/></clipPath><clipPath id="54ca301e21"><path d="M 383 320 L 654 320 L 654 665.933594 L 383 665.933594 Z M 383 320 " clip-rule="nonzero"/></clipPath><clipPath id="bd31dd8f4a"><path d="M 383 320 L 689 320 L 689 665.933594 L 383 665.933594 Z M 383 320 " clip-rule="nonzero"/></clipPath></defs><rect x="-76.8" width="921.6" fill="#ffffff" y="-76.799999" height="921.599993" fill-opacity="1"/><rect x="-76.8" width="921.6" fill="#192a51" y="-76.799999" height="921.599993" fill-opacity="1"/><g clip-path="url(#22efdeb30e)"><path fill="#e24329" d="M 383.972656 665.863281 L 496.175781 320.578125 L 271.792969 320.589844 L 383.972656 665.871094 Z M 383.972656 665.863281 " fill-opacity="1" fill-rule="nonzero"/></g><g clip-path="url(#d196888db7)"><path fill="#fc6d26" d="M 383.972656 665.863281 L 271.792969 320.578125 L 114.5625 320.589844 L 383.964844 665.871094 Z M 383.972656 665.863281 " fill-opacity="1" fill-rule="nonzero"/></g><g clip-path="url(#fad463236b)"><path fill="#fca326" d="M 114.5625 320.589844 L 80.46875 425.519531 C 77.359375 435.09375 80.765625 445.574219 88.90625 451.480469 L 383.984375 665.863281 L 114.582031 320.578125 L 114.574219 320.589844 Z M 114.5625 320.589844 " fill-opacity="1" fill-rule="nonzero"/></g><path fill="#e24329" d="M 114.5625 320.589844 L 271.792969 320.589844 L 204.222656 112.628906 C 200.746094 101.925781 185.609375 101.929688 182.132812 112.628906 L 114.5625 320.59375 Z M 114.5625 320.589844 " fill-opacity="1" fill-rule="nonzero"/><g clip-path="url(#54ca301e21)"><path fill="#fc6d26" d="M 383.972656 665.863281 L 496.175781 320.578125 L 653.398438 320.589844 L 383.972656 665.871094 Z M 383.972656 665.863281 " fill-opacity="1" fill-rule="nonzero"/></g><g clip-path="url(#bd31dd8f4a)"><path fill="#fca326" d="M 653.398438 320.589844 L 687.503906 425.519531 C 690.601562 435.09375 687.195312 445.574219 679.070312 451.480469 L 383.972656 665.863281 L 653.398438 320.578125 Z M 653.398438 320.589844 " fill-opacity="1" fill-rule="nonzero"/></g><path fill="#e24329" d="M 653.398438 320.589844 L 496.175781 320.589844 L 563.746094 112.628906 C 567.226562 101.925781 582.371094 101.929688 585.828125 112.628906 L 653.398438 320.59375 Z M 653.398438 320.589844 " fill-opacity="1" fill-rule="nonzero"/></svg>