<svg xmlns="http://www.w3.org/2000/svg" xmlns:xlink="http://www.w3.org/1999/xlink" width="1024" zoomAndPan="magnify" viewBox="0 0 768 767.999994" height="1024" preserveAspectRatio="xMidYMid meet" version="1.0"><defs><clipPath id="db51e4a2b3"><path d="M 77.660156 222.25 L 691.160156 222.25 L 691.160156 545.5 L 77.660156 545.5 Z M 77.660156 222.25 " clip-rule="nonzero"/></clipPath><clipPath id="5c9ffb80dd"><path d="M 691.160156 383.875 C 691.160156 386.511719 691.039062 389.148438 690.792969 391.78125 C 690.542969 394.417969 690.175781 397.046875 689.683594 399.671875 C 689.191406 402.296875 688.578125 404.914062 687.839844 407.523438 C 687.105469 410.132812 686.246094 412.730469 685.265625 415.316406 C 684.285156 417.902344 683.1875 420.476562 681.96875 423.035156 C 680.746094 425.59375 679.410156 428.132812 677.953125 430.660156 C 676.496094 433.183594 674.921875 435.6875 673.230469 438.171875 C 671.539062 440.652344 669.730469 443.113281 667.808594 445.550781 C 665.890625 447.988281 663.855469 450.398438 661.710938 452.78125 C 659.5625 455.167969 657.304688 457.523438 654.941406 459.847656 C 652.574219 462.175781 650.101562 464.46875 647.519531 466.730469 C 644.9375 468.992188 642.253906 471.222656 639.464844 473.414062 C 636.675781 475.609375 633.785156 477.765625 630.792969 479.882812 C 627.804688 482 624.714844 484.078125 621.53125 486.117188 C 618.347656 488.15625 615.070312 490.15625 611.695312 492.109375 C 608.324219 494.0625 604.867188 495.972656 601.316406 497.839844 C 597.765625 499.703125 594.132812 501.519531 590.410156 503.292969 C 586.691406 505.0625 582.890625 506.785156 579.011719 508.460938 C 575.128906 510.132812 571.171875 511.753906 567.140625 513.328125 C 563.109375 514.898438 559.003906 516.417969 554.832031 517.882812 C 550.65625 519.347656 546.417969 520.757812 542.113281 522.113281 C 537.804688 523.46875 533.4375 524.769531 529.011719 526.011719 C 524.585938 527.257812 520.101562 528.441406 515.5625 529.570312 C 511.023438 530.695312 506.4375 531.765625 501.796875 532.773438 C 497.160156 533.785156 492.476562 534.734375 487.75 535.621094 C 483.023438 536.511719 478.257812 537.339844 473.457031 538.105469 C 468.652344 538.871094 463.8125 539.574219 458.945312 540.214844 C 454.074219 540.855469 449.179688 541.433594 444.253906 541.945312 C 439.332031 542.460938 434.386719 542.914062 429.421875 543.300781 C 424.453125 543.6875 419.472656 544.007812 414.476562 544.265625 C 409.480469 544.527344 404.476562 544.71875 399.460938 544.847656 C 394.449219 544.980469 389.429688 545.042969 384.410156 545.042969 C 379.390625 545.042969 374.375 544.980469 369.359375 544.847656 C 364.34375 544.71875 359.339844 544.527344 354.34375 544.265625 C 349.347656 544.007812 344.367188 543.6875 339.402344 543.300781 C 334.433594 542.914062 329.492188 542.460938 324.566406 541.945312 C 319.644531 541.433594 314.746094 540.855469 309.875 540.214844 C 305.007812 539.574219 300.167969 538.871094 295.367188 538.105469 C 290.5625 537.339844 285.796875 536.511719 281.070312 535.621094 C 276.34375 534.734375 271.660156 533.785156 267.023438 532.773438 C 262.382812 531.765625 257.796875 530.695312 253.257812 529.570312 C 248.71875 528.441406 244.238281 527.257812 239.808594 526.011719 C 235.382812 524.769531 231.015625 523.46875 226.710938 522.113281 C 222.402344 520.757812 218.164062 519.347656 213.988281 517.882812 C 209.816406 516.417969 205.710938 514.898438 201.679688 513.328125 C 197.648438 511.753906 193.691406 510.132812 189.808594 508.460938 C 185.929688 506.785156 182.128906 505.0625 178.410156 503.292969 C 174.691406 501.519531 171.054688 499.703125 167.503906 497.839844 C 163.957031 495.972656 160.496094 494.0625 157.125 492.109375 C 153.753906 490.15625 150.472656 488.15625 147.289062 486.117188 C 144.105469 484.078125 141.015625 482 138.027344 479.882812 C 135.035156 477.765625 132.144531 475.609375 129.355469 473.414062 C 126.566406 471.222656 123.882812 468.992188 121.300781 466.730469 C 118.722656 464.46875 116.246094 462.175781 113.882812 459.847656 C 111.515625 457.523438 109.257812 455.167969 107.113281 452.78125 C 104.964844 450.398438 102.933594 447.988281 101.011719 445.550781 C 99.089844 443.113281 97.28125 440.652344 95.59375 438.171875 C 93.902344 435.6875 92.328125 433.183594 90.867188 430.660156 C 89.410156 428.132812 88.074219 425.59375 86.851562 423.035156 C 85.632812 420.476562 84.535156 417.902344 83.554688 415.316406 C 82.574219 412.730469 81.71875 410.132812 80.980469 407.523438 C 80.242188 404.914062 79.628906 402.296875 79.136719 399.671875 C 78.644531 397.046875 78.277344 394.417969 78.03125 391.78125 C 77.785156 389.148438 77.660156 386.511719 77.660156 383.875 C 77.660156 381.234375 77.785156 378.601562 78.03125 375.964844 C 78.277344 373.332031 78.644531 370.703125 79.136719 368.078125 C 79.628906 365.453125 80.242188 362.835938 80.980469 360.226562 C 81.71875 357.617188 82.574219 355.019531 83.554688 352.429688 C 84.535156 349.84375 85.632812 347.269531 86.851562 344.710938 C 88.074219 342.152344 89.410156 339.613281 90.867188 337.089844 C 92.328125 334.5625 93.902344 332.0625 95.59375 329.578125 C 97.28125 327.09375 99.089844 324.632812 101.011719 322.195312 C 102.933594 319.757812 104.964844 317.347656 107.113281 314.964844 C 109.257812 312.582031 111.515625 310.226562 113.882812 307.898438 C 116.246094 305.574219 118.722656 303.277344 121.300781 301.015625 C 123.882812 298.753906 126.566406 296.527344 129.355469 294.332031 C 132.144531 292.140625 135.035156 289.984375 138.027344 287.863281 C 141.015625 285.746094 144.105469 283.667969 147.289062 281.628906 C 150.472656 279.589844 153.753906 277.59375 157.125 275.636719 C 160.496094 273.683594 163.957031 271.773438 167.503906 269.910156 C 171.054688 268.042969 174.691406 266.226562 178.410156 264.453125 C 182.128906 262.683594 185.929688 260.960938 189.808594 259.289062 C 193.691406 257.613281 197.648438 255.992188 201.679688 254.421875 C 205.710938 252.847656 209.816406 251.332031 213.988281 249.867188 C 218.164062 248.398438 222.402344 246.988281 226.710938 245.632812 C 231.015625 244.277344 235.382812 242.976562 239.808594 241.734375 C 244.238281 240.492188 248.71875 239.304688 253.257812 238.179688 C 257.796875 237.050781 262.382812 235.980469 267.023438 234.972656 C 271.660156 233.960938 276.34375 233.015625 281.070312 232.125 C 285.796875 231.238281 290.5625 230.410156 295.367188 229.644531 C 300.167969 228.878906 305.007812 228.175781 309.875 227.535156 C 314.746094 226.894531 319.644531 226.316406 324.566406 225.800781 C 329.492188 225.285156 334.433594 224.835938 339.402344 224.449219 C 344.367188 224.0625 349.347656 223.738281 354.34375 223.480469 C 359.339844 223.222656 364.34375 223.027344 369.359375 222.898438 C 374.375 222.769531 379.390625 222.703125 384.410156 222.703125 C 389.429688 222.703125 394.449219 222.769531 399.460938 222.898438 C 404.476562 223.027344 409.480469 223.222656 414.476562 223.480469 C 419.472656 223.738281 424.453125 224.0625 429.421875 224.449219 C 434.386719 224.835938 439.332031 225.285156 444.253906 225.800781 C 449.179688 226.316406 454.074219 226.894531 458.945312 227.535156 C 463.8125 228.175781 468.652344 228.878906 473.457031 229.644531 C 478.257812 230.410156 483.023438 231.238281 487.75 232.125 C 492.476562 233.015625 497.160156 233.960938 501.796875 234.972656 C 506.4375 235.980469 511.023438 237.050781 515.5625 238.179688 C 520.101562 239.304688 524.585938 240.492188 529.011719 241.734375 C 533.4375 242.976562 537.804688 244.277344 542.113281 245.632812 C 546.417969 246.988281 550.65625 248.398438 554.832031 249.867188 C 559.003906 251.332031 563.109375 252.847656 567.140625 254.421875 C 571.171875 255.992188 575.128906 257.613281 579.011719 259.289062 C 582.890625 260.960938 586.691406 262.683594 590.410156 264.453125 C 594.132812 266.226562 597.765625 268.042969 601.316406 269.910156 C 604.867188 271.773438 608.324219 273.683594 611.695312 275.636719 C 615.070312 277.59375 618.347656 279.589844 621.53125 281.628906 C 624.714844 283.667969 627.804688 285.746094 630.792969 287.863281 C 633.785156 289.984375 636.675781 292.140625 639.464844 294.332031 C 642.253906 296.527344 644.9375 298.753906 647.519531 301.015625 C 650.101562 303.277344 652.574219 305.574219 654.941406 307.898438 C 657.304688 310.226562 659.5625 312.582031 661.710938 314.964844 C 663.855469 317.347656 665.890625 319.757812 667.808594 322.195312 C 669.730469 324.632812 671.539062 327.09375 673.230469 329.578125 C 674.921875 332.0625 676.496094 334.5625 677.953125 337.089844 C 679.410156 339.613281 680.746094 342.152344 681.96875 344.710938 C 683.1875 347.269531 684.285156 349.84375 685.265625 352.429688 C 686.246094 355.019531 687.105469 357.617188 687.839844 360.226562 C 688.578125 362.835938 689.191406 365.453125 689.683594 368.078125 C 690.175781 370.703125 690.542969 373.332031 690.792969 375.964844 C 691.039062 378.601562 691.160156 381.234375 691.160156 383.875 Z M 691.160156 383.875 " clip-rule="nonzero"/></clipPath><radialGradient gradientTransform="matrix(1.000352, 0, 0, 0.999648, 260.905331, 418.880817)" gradientUnits="userSpaceOnUse" r="402.699592" cx="0.927942" id="ab908054fd" cy="-139.546177" fx="0.927942" fy="-139.546177"><stop stop-opacity="1" stop-color="rgb(99.725342%, 99.772644%, 99.839783%)" offset="0"/><stop stop-opacity="1" stop-color="rgb(99.176025%, 99.319458%, 99.520874%)" offset="0.00390625"/><stop stop-opacity="1" stop-color="rgb(98.628235%, 98.866272%, 99.201965%)" offset="0.0078125"/><stop stop-opacity="1" stop-color="rgb(98.078918%, 98.413086%, 98.883057%)" offset="0.0117188"/><stop stop-opacity="1" stop-color="rgb(97.531128%, 97.9599%, 98.564148%)" offset="0.015625"/><stop stop-opacity="1" stop-color="rgb(96.981812%, 97.506714%, 98.245239%)" offset="0.0195312"/><stop stop-opacity="1" stop-color="rgb(96.434021%, 97.053528%, 97.926331%)" offset="0.0234375"/><stop stop-opacity="1" stop-color="rgb(95.88623%, 96.600342%, 97.607422%)" offset="0.0273438"/><stop stop-opacity="1" stop-color="rgb(95.336914%, 96.147156%, 97.288513%)" offset="0.03125"/><stop stop-opacity="1" stop-color="rgb(94.789124%, 95.69397%, 96.97113%)" offset="0.0351562"/><stop stop-opacity="1" stop-color="rgb(94.239807%, 95.240784%, 96.652222%)" offset="0.0390625"/><stop stop-opacity="1" stop-color="rgb(93.692017%, 94.787598%, 96.333313%)" offset="0.0429688"/><stop stop-opacity="1" stop-color="rgb(93.1427%, 94.334412%, 96.014404%)" offset="0.046875"/><stop stop-opacity="1" stop-color="rgb(92.59491%, 93.881226%, 95.695496%)" offset="0.0507812"/><stop stop-opacity="1" stop-color="rgb(92.047119%, 93.42804%, 95.376587%)" offset="0.0546875"/><stop stop-opacity="1" stop-color="rgb(91.497803%, 92.974854%, 95.057678%)" offset="0.0585938"/><stop stop-opacity="1" stop-color="rgb(90.950012%, 92.521667%, 94.73877%)" offset="0.0625"/><stop stop-opacity="1" stop-color="rgb(90.400696%, 92.068481%, 94.419861%)" offset="0.0664062"/><stop stop-opacity="1" stop-color="rgb(89.852905%, 91.615295%, 94.100952%)" offset="0.0703125"/><stop stop-opacity="1" stop-color="rgb(89.303589%, 91.162109%, 93.783569%)" offset="0.0742188"/><stop stop-opacity="1" stop-color="rgb(88.755798%, 90.708923%, 93.464661%)" offset="0.078125"/><stop stop-opacity="1" stop-color="rgb(88.208008%, 90.255737%, 93.145752%)" offset="0.0820312"/><stop stop-opacity="1" stop-color="rgb(87.658691%, 89.802551%, 92.826843%)" offset="0.0859375"/><stop stop-opacity="1" stop-color="rgb(87.110901%, 89.349365%, 92.507935%)" offset="0.0898438"/><stop stop-opacity="1" stop-color="rgb(86.561584%, 88.897705%, 92.189026%)" offset="0.09375"/><stop stop-opacity="1" stop-color="rgb(86.013794%, 88.444519%, 91.870117%)" offset="0.0976562"/><stop stop-opacity="1" stop-color="rgb(85.464478%, 87.991333%, 91.551208%)" offset="0.101562"/><stop stop-opacity="1" stop-color="rgb(84.916687%, 87.538147%, 91.2323%)" offset="0.105469"/><stop stop-opacity="1" stop-color="rgb(84.368896%, 87.084961%, 90.914917%)" offset="0.109375"/><stop stop-opacity="1" stop-color="rgb(83.81958%, 86.631775%, 90.596008%)" offset="0.113281"/><stop stop-opacity="1" stop-color="rgb(83.27179%, 86.178589%, 90.2771%)" offset="0.117188"/><stop stop-opacity="1" stop-color="rgb(82.722473%, 85.725403%, 89.958191%)" offset="0.121094"/><stop stop-opacity="1" stop-color="rgb(82.174683%, 85.272217%, 89.639282%)" offset="0.125"/><stop stop-opacity="1" stop-color="rgb(81.626892%, 84.819031%, 89.320374%)" offset="0.128906"/><stop stop-opacity="1" stop-color="rgb(81.077576%, 84.365845%, 89.001465%)" offset="0.132812"/><stop stop-opacity="1" stop-color="rgb(80.529785%, 83.912659%, 88.682556%)" offset="0.136719"/><stop stop-opacity="1" stop-color="rgb(79.980469%, 83.459473%, 88.363647%)" offset="0.140625"/><stop stop-opacity="1" stop-color="rgb(79.432678%, 83.006287%, 88.044739%)" offset="0.144531"/><stop stop-opacity="1" stop-color="rgb(78.883362%, 82.553101%, 87.727356%)" offset="0.148438"/><stop stop-opacity="1" stop-color="rgb(78.335571%, 82.099915%, 87.408447%)" offset="0.152344"/><stop stop-opacity="1" stop-color="rgb(77.787781%, 81.646729%, 87.089539%)" offset="0.15625"/><stop stop-opacity="1" stop-color="rgb(77.238464%, 81.193542%, 86.77063%)" offset="0.160156"/><stop stop-opacity="1" stop-color="rgb(76.690674%, 80.740356%, 86.451721%)" offset="0.164062"/><stop stop-opacity="1" stop-color="rgb(76.141357%, 80.28717%, 86.132812%)" offset="0.167969"/><stop stop-opacity="1" stop-color="rgb(75.593567%, 79.833984%, 85.813904%)" offset="0.171875"/><stop stop-opacity="1" stop-color="rgb(75.04425%, 79.380798%, 85.494995%)" offset="0.175781"/><stop stop-opacity="1" stop-color="rgb(74.49646%, 78.927612%, 85.176086%)" offset="0.179688"/><stop stop-opacity="1" stop-color="rgb(73.948669%, 78.474426%, 84.857178%)" offset="0.183594"/><stop stop-opacity="1" stop-color="rgb(73.399353%, 78.02124%, 84.539795%)" offset="0.1875"/><stop stop-opacity="1" stop-color="rgb(72.851562%, 77.56958%, 84.220886%)" offset="0.191406"/><stop stop-opacity="1" stop-color="rgb(72.302246%, 77.116394%, 83.901978%)" offset="0.195312"/><stop stop-opacity="1" stop-color="rgb(71.754456%, 76.663208%, 83.583069%)" offset="0.199219"/><stop stop-opacity="1" stop-color="rgb(71.205139%, 76.210022%, 83.26416%)" offset="0.203125"/><stop stop-opacity="1" stop-color="rgb(70.657349%, 75.756836%, 82.945251%)" offset="0.207031"/><stop stop-opacity="1" stop-color="rgb(70.109558%, 75.30365%, 82.626343%)" offset="0.210938"/><stop stop-opacity="1" stop-color="rgb(69.560242%, 74.850464%, 82.307434%)" offset="0.214844"/><stop stop-opacity="1" stop-color="rgb(69.012451%, 74.397278%, 81.988525%)" offset="0.21875"/><stop stop-opacity="1" stop-color="rgb(68.463135%, 73.944092%, 81.671143%)" offset="0.222656"/><stop stop-opacity="1" stop-color="rgb(67.915344%, 73.490906%, 81.352234%)" offset="0.226562"/><stop stop-opacity="1" stop-color="rgb(67.366028%, 73.03772%, 81.033325%)" offset="0.230469"/><stop stop-opacity="1" stop-color="rgb(66.818237%, 72.584534%, 80.714417%)" offset="0.234375"/><stop stop-opacity="1" stop-color="rgb(66.270447%, 72.131348%, 80.395508%)" offset="0.238281"/><stop stop-opacity="1" stop-color="rgb(65.72113%, 71.678162%, 80.076599%)" offset="0.242188"/><stop stop-opacity="1" stop-color="rgb(65.17334%, 71.224976%, 79.75769%)" offset="0.246094"/><stop stop-opacity="1" stop-color="rgb(64.624023%, 70.77179%, 79.438782%)" offset="0.25"/><stop stop-opacity="1" stop-color="rgb(64.076233%, 70.318604%, 79.119873%)" offset="0.253906"/><stop stop-opacity="1" stop-color="rgb(63.528442%, 69.865417%, 78.800964%)" offset="0.257812"/><stop stop-opacity="1" stop-color="rgb(62.979126%, 69.412231%, 78.483582%)" offset="0.261719"/><stop stop-opacity="1" stop-color="rgb(62.431335%, 68.959045%, 78.164673%)" offset="0.265625"/><stop stop-opacity="1" stop-color="rgb(61.882019%, 68.505859%, 77.845764%)" offset="0.269531"/><stop stop-opacity="1" stop-color="rgb(61.334229%, 68.052673%, 77.526855%)" offset="0.273438"/><stop stop-opacity="1" stop-color="rgb(60.784912%, 67.599487%, 77.207947%)" offset="0.277344"/><stop stop-opacity="1" stop-color="rgb(60.237122%, 67.146301%, 76.889038%)" offset="0.28125"/><stop stop-opacity="1" stop-color="rgb(59.689331%, 66.693115%, 76.570129%)" offset="0.285156"/><stop stop-opacity="1" stop-color="rgb(59.140015%, 66.241455%, 76.251221%)" offset="0.289062"/><stop stop-opacity="1" stop-color="rgb(58.592224%, 65.788269%, 75.932312%)" offset="0.292969"/><stop stop-opacity="1" stop-color="rgb(58.042908%, 65.335083%, 75.614929%)" offset="0.296875"/><stop stop-opacity="1" stop-color="rgb(57.495117%, 64.881897%, 75.296021%)" offset="0.300781"/><stop stop-opacity="1" stop-color="rgb(56.945801%, 64.428711%, 74.977112%)" offset="0.304688"/><stop stop-opacity="1" stop-color="rgb(56.39801%, 63.975525%, 74.658203%)" offset="0.308594"/><stop stop-opacity="1" stop-color="rgb(55.85022%, 63.522339%, 74.339294%)" offset="0.3125"/><stop stop-opacity="1" stop-color="rgb(55.300903%, 63.069153%, 74.020386%)" offset="0.316406"/><stop stop-opacity="1" stop-color="rgb(54.753113%, 62.615967%, 73.701477%)" offset="0.320312"/><stop stop-opacity="1" stop-color="rgb(54.203796%, 62.162781%, 73.382568%)" offset="0.324219"/><stop stop-opacity="1" stop-color="rgb(53.656006%, 61.709595%, 73.06366%)" offset="0.328125"/><stop stop-opacity="1" stop-color="rgb(53.106689%, 61.256409%, 72.744751%)" offset="0.332031"/><stop stop-opacity="1" stop-color="rgb(52.558899%, 60.803223%, 72.427368%)" offset="0.335938"/><stop stop-opacity="1" stop-color="rgb(52.011108%, 60.350037%, 72.108459%)" offset="0.339844"/><stop stop-opacity="1" stop-color="rgb(51.461792%, 59.896851%, 71.789551%)" offset="0.34375"/><stop stop-opacity="1" stop-color="rgb(50.914001%, 59.443665%, 71.470642%)" offset="0.347656"/><stop stop-opacity="1" stop-color="rgb(50.364685%, 58.990479%, 71.151733%)" offset="0.351562"/><stop stop-opacity="1" stop-color="rgb(49.816895%, 58.537292%, 70.832825%)" offset="0.355469"/><stop stop-opacity="1" stop-color="rgb(49.267578%, 58.084106%, 70.513916%)" offset="0.359375"/><stop stop-opacity="1" stop-color="rgb(48.719788%, 57.63092%, 70.195007%)" offset="0.363281"/><stop stop-opacity="1" stop-color="rgb(48.171997%, 57.177734%, 69.876099%)" offset="0.367188"/><stop stop-opacity="1" stop-color="rgb(47.622681%, 56.724548%, 69.55719%)" offset="0.371094"/><stop stop-opacity="1" stop-color="rgb(47.07489%, 56.271362%, 69.239807%)" offset="0.375"/><stop stop-opacity="1" stop-color="rgb(46.525574%, 55.818176%, 68.920898%)" offset="0.378906"/><stop stop-opacity="1" stop-color="rgb(45.977783%, 55.36499%, 68.60199%)" offset="0.382812"/><stop stop-opacity="1" stop-color="rgb(45.429993%, 54.91333%, 68.283081%)" offset="0.386719"/><stop stop-opacity="1" stop-color="rgb(44.880676%, 54.460144%, 67.964172%)" offset="0.390625"/><stop stop-opacity="1" stop-color="rgb(44.332886%, 54.006958%, 67.645264%)" offset="0.394531"/><stop stop-opacity="1" stop-color="rgb(43.783569%, 53.553772%, 67.326355%)" offset="0.398438"/><stop stop-opacity="1" stop-color="rgb(43.235779%, 53.100586%, 67.007446%)" offset="0.402344"/><stop stop-opacity="1" stop-color="rgb(42.686462%, 52.6474%, 66.688538%)" offset="0.40625"/><stop stop-opacity="1" stop-color="rgb(42.138672%, 52.194214%, 66.371155%)" offset="0.410156"/><stop stop-opacity="1" stop-color="rgb(41.590881%, 51.741028%, 66.052246%)" offset="0.414062"/><stop stop-opacity="1" stop-color="rgb(41.041565%, 51.287842%, 65.733337%)" offset="0.417969"/><stop stop-opacity="1" stop-color="rgb(40.493774%, 50.834656%, 65.414429%)" offset="0.421875"/><stop stop-opacity="1" stop-color="rgb(39.944458%, 50.38147%, 65.09552%)" offset="0.425781"/><stop stop-opacity="1" stop-color="rgb(39.396667%, 49.928284%, 64.776611%)" offset="0.429688"/><stop stop-opacity="1" stop-color="rgb(38.847351%, 49.475098%, 64.457703%)" offset="0.433594"/><stop stop-opacity="1" stop-color="rgb(38.299561%, 49.021912%, 64.138794%)" offset="0.4375"/><stop stop-opacity="1" stop-color="rgb(37.75177%, 48.568726%, 63.819885%)" offset="0.441406"/><stop stop-opacity="1" stop-color="rgb(37.202454%, 48.11554%, 63.500977%)" offset="0.445312"/><stop stop-opacity="1" stop-color="rgb(36.654663%, 47.662354%, 63.183594%)" offset="0.449219"/><stop stop-opacity="1" stop-color="rgb(36.105347%, 47.209167%, 62.864685%)" offset="0.453125"/><stop stop-opacity="1" stop-color="rgb(35.557556%, 46.755981%, 62.545776%)" offset="0.457031"/><stop stop-opacity="1" stop-color="rgb(35.00824%, 46.302795%, 62.226868%)" offset="0.460938"/><stop stop-opacity="1" stop-color="rgb(34.460449%, 45.849609%, 61.907959%)" offset="0.464844"/><stop stop-opacity="1" stop-color="rgb(33.912659%, 45.396423%, 61.58905%)" offset="0.46875"/><stop stop-opacity="1" stop-color="rgb(33.363342%, 44.943237%, 61.270142%)" offset="0.472656"/><stop stop-opacity="1" stop-color="rgb(32.815552%, 44.490051%, 60.951233%)" offset="0.476562"/><stop stop-opacity="1" stop-color="rgb(32.266235%, 44.036865%, 60.632324%)" offset="0.480469"/><stop stop-opacity="1" stop-color="rgb(31.718445%, 43.585205%, 60.314941%)" offset="0.484375"/><stop stop-opacity="1" stop-color="rgb(31.170654%, 43.132019%, 59.996033%)" offset="0.488281"/><stop stop-opacity="1" stop-color="rgb(30.621338%, 42.678833%, 59.677124%)" offset="0.492188"/><stop stop-opacity="1" stop-color="rgb(30.073547%, 42.225647%, 59.358215%)" offset="0.496094"/><stop stop-opacity="1" stop-color="rgb(29.736328%, 41.882324%, 59.016418%)" offset="0.5"/><stop stop-opacity="1" stop-color="rgb(29.60968%, 41.648865%, 58.651733%)" offset="0.503906"/><stop stop-opacity="1" stop-color="rgb(29.484558%, 41.416931%, 58.287048%)" offset="0.507812"/><stop stop-opacity="1" stop-color="rgb(29.359436%, 41.183472%, 57.922363%)" offset="0.511719"/><stop stop-opacity="1" stop-color="rgb(29.232788%, 40.951538%, 57.556152%)" offset="0.515625"/><stop stop-opacity="1" stop-color="rgb(29.107666%, 40.718079%, 57.191467%)" offset="0.519531"/><stop stop-opacity="1" stop-color="rgb(28.981018%, 40.486145%, 56.826782%)" offset="0.523438"/><stop stop-opacity="1" stop-color="rgb(28.855896%, 40.252686%, 56.462097%)" offset="0.527344"/><stop stop-opacity="1" stop-color="rgb(28.729248%, 40.019226%, 56.097412%)" offset="0.53125"/><stop stop-opacity="1" stop-color="rgb(28.604126%, 39.787292%, 55.732727%)" offset="0.535156"/><stop stop-opacity="1" stop-color="rgb(28.477478%, 39.553833%, 55.368042%)" offset="0.539062"/><stop stop-opacity="1" stop-color="rgb(28.352356%, 39.321899%, 55.003357%)" offset="0.542969"/><stop stop-opacity="1" stop-color="rgb(28.227234%, 39.08844%, 54.638672%)" offset="0.546875"/><stop stop-opacity="1" stop-color="rgb(28.100586%, 38.856506%, 54.272461%)" offset="0.550781"/><stop stop-opacity="1" stop-color="rgb(27.975464%, 38.623047%, 53.907776%)" offset="0.554688"/><stop stop-opacity="1" stop-color="rgb(27.848816%, 38.389587%, 53.543091%)" offset="0.558594"/><stop stop-opacity="1" stop-color="rgb(27.723694%, 38.157654%, 53.178406%)" offset="0.5625"/><stop stop-opacity="1" stop-color="rgb(27.597046%, 37.924194%, 52.813721%)" offset="0.566406"/><stop stop-opacity="1" stop-color="rgb(27.471924%, 37.692261%, 52.449036%)" offset="0.570312"/><stop stop-opacity="1" stop-color="rgb(27.346802%, 37.458801%, 52.084351%)" offset="0.574219"/><stop stop-opacity="1" stop-color="rgb(27.220154%, 37.226868%, 51.719666%)" offset="0.578125"/><stop stop-opacity="1" stop-color="rgb(27.095032%, 36.993408%, 51.35498%)" offset="0.582031"/><stop stop-opacity="1" stop-color="rgb(26.968384%, 36.759949%, 50.990295%)" offset="0.585938"/><stop stop-opacity="1" stop-color="rgb(26.843262%, 36.528015%, 50.624084%)" offset="0.589844"/><stop stop-opacity="1" stop-color="rgb(26.716614%, 36.294556%, 50.259399%)" offset="0.59375"/><stop stop-opacity="1" stop-color="rgb(26.591492%, 36.062622%, 49.894714%)" offset="0.597656"/><stop stop-opacity="1" stop-color="rgb(26.46637%, 35.829163%, 49.530029%)" offset="0.601562"/><stop stop-opacity="1" stop-color="rgb(26.339722%, 35.595703%, 49.165344%)" offset="0.605469"/><stop stop-opacity="1" stop-color="rgb(26.2146%, 35.36377%, 48.800659%)" offset="0.609375"/><stop stop-opacity="1" stop-color="rgb(26.087952%, 35.13031%, 48.435974%)" offset="0.613281"/><stop stop-opacity="1" stop-color="rgb(25.96283%, 34.898376%, 48.071289%)" offset="0.617188"/><stop stop-opacity="1" stop-color="rgb(25.836182%, 34.664917%, 47.706604%)" offset="0.621094"/><stop stop-opacity="1" stop-color="rgb(25.71106%, 34.432983%, 47.340393%)" offset="0.625"/><stop stop-opacity="1" stop-color="rgb(25.585938%, 34.199524%, 46.975708%)" offset="0.628906"/><stop stop-opacity="1" stop-color="rgb(25.45929%, 33.966064%, 46.611023%)" offset="0.632812"/><stop stop-opacity="1" stop-color="rgb(25.334167%, 33.734131%, 46.246338%)" offset="0.636719"/><stop stop-opacity="1" stop-color="rgb(25.20752%, 33.500671%, 45.881653%)" offset="0.640625"/><stop stop-opacity="1" stop-color="rgb(25.082397%, 33.268738%, 45.516968%)" offset="0.644531"/><stop stop-opacity="1" stop-color="rgb(24.95575%, 33.035278%, 45.152283%)" offset="0.648438"/><stop stop-opacity="1" stop-color="rgb(24.830627%, 32.803345%, 44.787598%)" offset="0.652344"/><stop stop-opacity="1" stop-color="rgb(24.705505%, 32.569885%, 44.422913%)" offset="0.65625"/><stop stop-opacity="1" stop-color="rgb(24.578857%, 32.336426%, 44.058228%)" offset="0.660156"/><stop stop-opacity="1" stop-color="rgb(24.453735%, 32.104492%, 43.692017%)" offset="0.664062"/><stop stop-opacity="1" stop-color="rgb(24.327087%, 31.871033%, 43.327332%)" offset="0.667969"/><stop stop-opacity="1" stop-color="rgb(24.201965%, 31.639099%, 42.962646%)" offset="0.671875"/><stop stop-opacity="1" stop-color="rgb(24.075317%, 31.40564%, 42.597961%)" offset="0.675781"/><stop stop-opacity="1" stop-color="rgb(23.950195%, 31.173706%, 42.233276%)" offset="0.679688"/><stop stop-opacity="1" stop-color="rgb(23.823547%, 30.940247%, 41.868591%)" offset="0.683594"/><stop stop-opacity="1" stop-color="rgb(23.698425%, 30.706787%, 41.503906%)" offset="0.6875"/><stop stop-opacity="1" stop-color="rgb(23.573303%, 30.474854%, 41.139221%)" offset="0.691406"/><stop stop-opacity="1" stop-color="rgb(23.446655%, 30.241394%, 40.774536%)" offset="0.695312"/><stop stop-opacity="1" stop-color="rgb(23.321533%, 30.00946%, 40.409851%)" offset="0.699219"/><stop stop-opacity="1" stop-color="rgb(23.194885%, 29.776001%, 40.04364%)" offset="0.703125"/><stop stop-opacity="1" stop-color="rgb(23.069763%, 29.544067%, 39.678955%)" offset="0.707031"/><stop stop-opacity="1" stop-color="rgb(22.943115%, 29.310608%, 39.31427%)" offset="0.710938"/><stop stop-opacity="1" stop-color="rgb(22.817993%, 29.077148%, 38.949585%)" offset="0.714844"/><stop stop-opacity="1" stop-color="rgb(22.692871%, 28.845215%, 38.5849%)" offset="0.71875"/><stop stop-opacity="1" stop-color="rgb(22.566223%, 28.611755%, 38.220215%)" offset="0.722656"/><stop stop-opacity="1" stop-color="rgb(22.441101%, 28.379822%, 37.85553%)" offset="0.726562"/><stop stop-opacity="1" stop-color="rgb(22.314453%, 28.146362%, 37.490845%)" offset="0.730469"/><stop stop-opacity="1" stop-color="rgb(22.189331%, 27.912903%, 37.12616%)" offset="0.734375"/><stop stop-opacity="1" stop-color="rgb(22.062683%, 27.680969%, 36.759949%)" offset="0.738281"/><stop stop-opacity="1" stop-color="rgb(21.937561%, 27.44751%, 36.395264%)" offset="0.742188"/><stop stop-opacity="1" stop-color="rgb(21.812439%, 27.215576%, 36.030579%)" offset="0.746094"/><stop stop-opacity="1" stop-color="rgb(21.685791%, 26.982117%, 35.665894%)" offset="0.75"/><stop stop-opacity="1" stop-color="rgb(21.560669%, 26.750183%, 35.301208%)" offset="0.753906"/><stop stop-opacity="1" stop-color="rgb(21.434021%, 26.516724%, 34.936523%)" offset="0.757812"/><stop stop-opacity="1" stop-color="rgb(21.308899%, 26.283264%, 34.571838%)" offset="0.761719"/><stop stop-opacity="1" stop-color="rgb(21.182251%, 26.051331%, 34.207153%)" offset="0.765625"/><stop stop-opacity="1" stop-color="rgb(21.057129%, 25.817871%, 33.842468%)" offset="0.769531"/><stop stop-opacity="1" stop-color="rgb(20.932007%, 25.585938%, 33.477783%)" offset="0.773438"/><stop stop-opacity="1" stop-color="rgb(20.805359%, 25.352478%, 33.111572%)" offset="0.777344"/><stop stop-opacity="1" stop-color="rgb(20.680237%, 25.120544%, 32.746887%)" offset="0.78125"/><stop stop-opacity="1" stop-color="rgb(20.553589%, 24.887085%, 32.382202%)" offset="0.785156"/><stop stop-opacity="1" stop-color="rgb(20.428467%, 24.653625%, 32.017517%)" offset="0.789062"/><stop stop-opacity="1" stop-color="rgb(20.301819%, 24.421692%, 31.652832%)" offset="0.792969"/><stop stop-opacity="1" stop-color="rgb(20.176697%, 24.188232%, 31.288147%)" offset="0.796875"/><stop stop-opacity="1" stop-color="rgb(20.051575%, 23.956299%, 30.923462%)" offset="0.800781"/><stop stop-opacity="1" stop-color="rgb(19.924927%, 23.722839%, 30.558777%)" offset="0.804688"/><stop stop-opacity="1" stop-color="rgb(19.799805%, 23.490906%, 30.194092%)" offset="0.808594"/><stop stop-opacity="1" stop-color="rgb(19.673157%, 23.257446%, 29.827881%)" offset="0.8125"/><stop stop-opacity="1" stop-color="rgb(19.548035%, 23.023987%, 29.463196%)" offset="0.816406"/><stop stop-opacity="1" stop-color="rgb(19.421387%, 22.792053%, 29.098511%)" offset="0.820312"/><stop stop-opacity="1" stop-color="rgb(19.296265%, 22.558594%, 28.733826%)" offset="0.824219"/><stop stop-opacity="1" stop-color="rgb(19.171143%, 22.32666%, 28.369141%)" offset="0.828125"/><stop stop-opacity="1" stop-color="rgb(19.044495%, 22.093201%, 28.004456%)" offset="0.832031"/><stop stop-opacity="1" stop-color="rgb(18.919373%, 21.861267%, 27.639771%)" offset="0.835938"/><stop stop-opacity="1" stop-color="rgb(18.792725%, 21.627808%, 27.275085%)" offset="0.839844"/><stop stop-opacity="1" stop-color="rgb(18.667603%, 21.394348%, 26.9104%)" offset="0.84375"/><stop stop-opacity="1" stop-color="rgb(18.540955%, 21.162415%, 26.545715%)" offset="0.847656"/><stop stop-opacity="1" stop-color="rgb(18.415833%, 20.928955%, 26.179504%)" offset="0.851562"/><stop stop-opacity="1" stop-color="rgb(18.289185%, 20.697021%, 25.814819%)" offset="0.855469"/><stop stop-opacity="1" stop-color="rgb(18.164062%, 20.463562%, 25.450134%)" offset="0.859375"/><stop stop-opacity="1" stop-color="rgb(18.03894%, 20.230103%, 25.085449%)" offset="0.863281"/><stop stop-opacity="1" stop-color="rgb(17.912292%, 19.998169%, 24.720764%)" offset="0.867188"/><stop stop-opacity="1" stop-color="rgb(17.78717%, 19.764709%, 24.356079%)" offset="0.871094"/><stop stop-opacity="1" stop-color="rgb(17.660522%, 19.532776%, 23.991394%)" offset="0.875"/><stop stop-opacity="1" stop-color="rgb(17.5354%, 19.299316%, 23.626709%)" offset="0.878906"/><stop stop-opacity="1" stop-color="rgb(17.408752%, 19.067383%, 23.262024%)" offset="0.882812"/><stop stop-opacity="1" stop-color="rgb(17.28363%, 18.833923%, 22.897339%)" offset="0.886719"/><stop stop-opacity="1" stop-color="rgb(17.158508%, 18.600464%, 22.531128%)" offset="0.890625"/><stop stop-opacity="1" stop-color="rgb(17.03186%, 18.36853%, 22.166443%)" offset="0.894531"/><stop stop-opacity="1" stop-color="rgb(16.906738%, 18.135071%, 21.801758%)" offset="0.898438"/><stop stop-opacity="1" stop-color="rgb(16.78009%, 17.903137%, 21.437073%)" offset="0.902344"/><stop stop-opacity="1" stop-color="rgb(16.654968%, 17.669678%, 21.072388%)" offset="0.90625"/><stop stop-opacity="1" stop-color="rgb(16.52832%, 17.437744%, 20.707703%)" offset="0.910156"/><stop stop-opacity="1" stop-color="rgb(16.403198%, 17.204285%, 20.343018%)" offset="0.914062"/><stop stop-opacity="1" stop-color="rgb(16.278076%, 16.970825%, 19.978333%)" offset="0.917969"/><stop stop-opacity="1" stop-color="rgb(16.151428%, 16.738892%, 19.613647%)" offset="0.921875"/><stop stop-opacity="1" stop-color="rgb(16.026306%, 16.505432%, 19.247437%)" offset="0.925781"/><stop stop-opacity="1" stop-color="rgb(15.899658%, 16.273499%, 18.882751%)" offset="0.929688"/><stop stop-opacity="1" stop-color="rgb(15.774536%, 16.040039%, 18.518066%)" offset="0.933594"/><stop stop-opacity="1" stop-color="rgb(15.647888%, 15.808105%, 18.153381%)" offset="0.9375"/><stop stop-opacity="1" stop-color="rgb(15.522766%, 15.574646%, 17.788696%)" offset="0.941406"/><stop stop-opacity="1" stop-color="rgb(15.397644%, 15.341187%, 17.424011%)" offset="0.945312"/><stop stop-opacity="1" stop-color="rgb(15.270996%, 15.109253%, 17.059326%)" offset="0.949219"/><stop stop-opacity="1" stop-color="rgb(15.145874%, 14.875793%, 16.694641%)" offset="0.953125"/><stop stop-opacity="1" stop-color="rgb(15.019226%, 14.64386%, 16.329956%)" offset="0.957031"/><stop stop-opacity="1" stop-color="rgb(14.894104%, 14.4104%, 15.965271%)" offset="0.960938"/><stop stop-opacity="1" stop-color="rgb(14.767456%, 14.178467%, 15.59906%)" offset="0.964844"/><stop stop-opacity="1" stop-color="rgb(14.642334%, 13.945007%, 15.234375%)" offset="0.96875"/><stop stop-opacity="1" stop-color="rgb(14.517212%, 13.711548%, 14.86969%)" offset="0.972656"/><stop stop-opacity="1" stop-color="rgb(14.390564%, 13.479614%, 14.505005%)" offset="0.976562"/><stop stop-opacity="1" stop-color="rgb(14.265442%, 13.246155%, 14.14032%)" offset="0.980469"/><stop stop-opacity="1" stop-color="rgb(14.138794%, 13.014221%, 13.775635%)" offset="0.984375"/><stop stop-opacity="1" stop-color="rgb(14.013672%, 12.780762%, 13.41095%)" offset="0.988281"/><stop stop-opacity="1" stop-color="rgb(13.887024%, 12.547302%, 13.046265%)" offset="0.992188"/><stop stop-opacity="1" stop-color="rgb(13.761902%, 12.315369%, 12.68158%)" offset="0.996094"/><stop stop-opacity="1" stop-color="rgb(13.699341%, 12.199402%, 12.5%)" offset="1"/></radialGradient></defs><rect x="-76.8" width="921.6" fill="#ffffff" y="-76.799999" height="921.599993" fill-opacity="1"/><rect x="-76.8" width="921.6" fill="#192a51" y="-76.799999" height="921.599993" fill-opacity="1"/><g clip-path="url(#db51e4a2b3)"><g clip-path="url(#5c9ffb80dd)"><path fill="url(#ab908054fd)" d="M 77.660156 222.703125 L 77.660156 545.042969 L 691.160156 545.042969 L 691.160156 222.703125 Z M 77.660156 222.703125 " fill-rule="nonzero"/></g></g><path fill="#6181b6" d="M 679.179688 383.875 C 679.179688 386.316406 679.058594 388.753906 678.824219 391.195312 C 678.585938 393.632812 678.230469 396.066406 677.757812 398.496094 C 677.285156 400.925781 676.695312 403.351562 675.988281 405.765625 C 675.28125 408.179688 674.457031 410.585938 673.515625 412.980469 C 672.574219 415.375 671.515625 417.757812 670.34375 420.125 C 669.171875 422.492188 667.886719 424.847656 666.484375 427.183594 C 665.085938 429.519531 663.574219 431.835938 661.945312 434.136719 C 660.320312 436.433594 658.585938 438.710938 656.738281 440.96875 C 654.894531 443.222656 652.941406 445.457031 650.878906 447.664062 C 648.816406 449.871094 646.644531 452.050781 644.371094 454.203125 C 642.097656 456.359375 639.722656 458.480469 637.242188 460.574219 C 634.761719 462.671875 632.179688 464.730469 629.5 466.761719 C 626.820312 468.792969 624.042969 470.789062 621.171875 472.75 C 618.296875 474.710938 615.328125 476.636719 612.269531 478.523438 C 609.207031 480.410156 606.058594 482.257812 602.820312 484.066406 C 599.578125 485.875 596.253906 487.644531 592.84375 489.371094 C 589.429688 491.097656 585.9375 492.78125 582.363281 494.421875 C 578.789062 496.058594 575.136719 497.65625 571.410156 499.203125 C 567.679688 500.753906 563.878906 502.253906 560.003906 503.707031 C 556.128906 505.164062 552.1875 506.570312 548.175781 507.925781 C 544.164062 509.28125 540.089844 510.589844 535.953125 511.84375 C 531.8125 513.097656 527.617188 514.300781 523.363281 515.453125 C 519.109375 516.605469 514.800781 517.703125 510.441406 518.746094 C 506.078125 519.789062 501.671875 520.777344 497.214844 521.710938 C 492.757812 522.648438 488.257812 523.527344 483.714844 524.347656 C 479.171875 525.171875 474.59375 525.9375 469.976562 526.644531 C 465.359375 527.355469 460.710938 528.003906 456.035156 528.597656 C 451.355469 529.191406 446.648438 529.726562 441.917969 530.203125 C 437.183594 530.679688 432.433594 531.097656 427.660156 531.453125 C 422.890625 531.8125 418.105469 532.113281 413.304688 532.351562 C 408.503906 532.589844 403.691406 532.769531 398.875 532.890625 C 394.054688 533.007812 389.234375 533.070312 384.410156 533.070312 C 379.585938 533.070312 374.765625 533.007812 369.945312 532.890625 C 365.128906 532.769531 360.320312 532.589844 355.519531 532.351562 C 350.71875 532.113281 345.929688 531.8125 341.160156 531.453125 C 336.386719 531.097656 331.636719 530.679688 326.902344 530.203125 C 322.171875 529.726562 317.46875 529.191406 312.789062 528.597656 C 308.109375 528.003906 303.460938 527.355469 298.84375 526.644531 C 294.226562 525.9375 289.648438 525.171875 285.105469 524.347656 C 280.5625 523.527344 276.066406 522.648438 271.609375 521.710938 C 267.152344 520.777344 262.742188 519.789062 258.382812 518.746094 C 254.019531 517.703125 249.710938 516.605469 245.457031 515.453125 C 241.203125 514.300781 237.007812 513.097656 232.871094 511.84375 C 228.730469 510.589844 224.65625 509.28125 220.648438 507.925781 C 216.636719 506.570312 212.691406 505.164062 208.816406 503.707031 C 204.941406 502.253906 201.140625 500.753906 197.410156 499.203125 C 193.683594 497.65625 190.03125 496.058594 186.457031 494.421875 C 182.882812 492.78125 179.390625 491.097656 175.976562 489.371094 C 172.566406 487.644531 169.242188 485.875 166.003906 484.066406 C 162.761719 482.257812 159.613281 480.410156 156.550781 478.523438 C 153.492188 476.636719 150.523438 474.710938 147.652344 472.75 C 144.777344 470.789062 142 468.792969 139.320312 466.761719 C 136.640625 464.730469 134.058594 462.671875 131.578125 460.574219 C 129.101562 458.480469 126.722656 456.359375 124.449219 454.203125 C 122.175781 452.050781 120.007812 449.871094 117.945312 447.664062 C 115.882812 445.457031 113.925781 443.222656 112.082031 440.96875 C 110.234375 438.710938 108.5 436.433594 106.875 434.136719 C 105.25 431.835938 103.734375 429.519531 102.335938 427.183594 C 100.933594 424.847656 99.648438 422.492188 98.476562 420.125 C 97.304688 417.757812 96.246094 415.375 95.308594 412.980469 C 94.367188 410.585938 93.542969 408.179688 92.832031 405.765625 C 92.125 403.351562 91.535156 400.925781 91.0625 398.496094 C 90.589844 396.066406 90.234375 393.632812 90 391.195312 C 89.761719 388.753906 89.644531 386.316406 89.644531 383.875 C 89.644531 381.433594 89.761719 378.992188 90 376.554688 C 90.234375 374.113281 90.589844 371.679688 91.0625 369.25 C 91.535156 366.820312 92.125 364.398438 92.832031 361.980469 C 93.542969 359.566406 94.367188 357.160156 95.308594 354.765625 C 96.246094 352.371094 97.304688 349.992188 98.476562 347.621094 C 99.648438 345.253906 100.933594 342.902344 102.335938 340.5625 C 103.734375 338.226562 105.25 335.910156 106.875 333.609375 C 108.5 331.3125 110.234375 329.035156 112.082031 326.777344 C 113.925781 324.523438 115.882812 322.292969 117.945312 320.085938 C 120.007812 317.875 122.175781 315.695312 124.449219 313.542969 C 126.722656 311.390625 129.101562 309.265625 131.578125 307.171875 C 134.058594 305.078125 136.640625 303.015625 139.320312 300.984375 C 142 298.953125 144.777344 296.957031 147.652344 294.996094 C 150.523438 293.035156 153.492188 291.113281 156.550781 289.226562 C 159.613281 287.335938 162.761719 285.488281 166.003906 283.679688 C 169.242188 281.871094 172.566406 280.101562 175.976562 278.375 C 179.390625 276.648438 182.882812 274.964844 186.457031 273.328125 C 190.03125 271.6875 193.683594 270.09375 197.410156 268.542969 C 201.140625 266.996094 204.941406 265.492188 208.816406 264.039062 C 212.691406 262.582031 216.636719 261.179688 220.644531 259.820312 C 224.65625 258.464844 228.730469 257.160156 232.871094 255.902344 C 237.007812 254.648438 241.203125 253.445312 245.457031 252.292969 C 249.710938 251.144531 254.019531 250.046875 258.382812 249.003906 C 262.742188 247.957031 267.152344 246.96875 271.609375 246.035156 C 276.066406 245.101562 280.5625 244.222656 285.105469 243.398438 C 289.648438 242.578125 294.226562 241.8125 298.84375 241.101562 C 303.460938 240.394531 308.109375 239.742188 312.789062 239.148438 C 317.46875 238.554688 322.171875 238.019531 326.902344 237.542969 C 331.636719 237.066406 336.386719 236.652344 341.160156 236.292969 C 345.929688 235.933594 350.71875 235.636719 355.519531 235.394531 C 360.320312 235.15625 365.128906 234.976562 369.945312 234.859375 C 374.765625 234.738281 379.585938 234.679688 384.410156 234.679688 C 389.234375 234.679688 394.054688 234.738281 398.875 234.859375 C 403.691406 234.976562 408.503906 235.15625 413.304688 235.394531 C 418.105469 235.636719 422.890625 235.933594 427.660156 236.292969 C 432.433594 236.652344 437.183594 237.066406 441.917969 237.542969 C 446.648438 238.019531 451.355469 238.554688 456.035156 239.148438 C 460.710938 239.742188 465.359375 240.394531 469.976562 241.101562 C 474.59375 241.8125 479.171875 242.578125 483.714844 243.398438 C 488.257812 244.222656 492.757812 245.101562 497.214844 246.035156 C 501.671875 246.96875 506.078125 247.957031 510.441406 249.003906 C 514.800781 250.046875 519.109375 251.144531 523.363281 252.292969 C 527.617188 253.445312 531.8125 254.648438 535.953125 255.902344 C 540.089844 257.160156 544.164062 258.464844 548.175781 259.820312 C 552.1875 261.179688 556.128906 262.582031 560.003906 264.039062 C 563.878906 265.492188 567.679688 266.996094 571.410156 268.542969 C 575.136719 270.09375 578.789062 271.6875 582.363281 273.328125 C 585.9375 274.964844 589.429688 276.648438 592.84375 278.375 C 596.253906 280.101562 599.578125 281.871094 602.820312 283.679688 C 606.058594 285.488281 609.207031 287.335938 612.269531 289.226562 C 615.328125 291.113281 618.296875 293.035156 621.171875 294.996094 C 624.042969 296.957031 626.820312 298.953125 629.5 300.984375 C 632.179688 303.015625 634.761719 305.078125 637.242188 307.171875 C 639.722656 309.265625 642.097656 311.390625 644.371094 313.542969 C 646.644531 315.695312 648.816406 317.875 650.878906 320.085938 C 652.941406 322.292969 654.894531 324.523438 656.738281 326.777344 C 658.585938 329.035156 660.320312 331.3125 661.945312 333.609375 C 663.574219 335.910156 665.085938 338.226562 666.484375 340.5625 C 667.886719 342.902344 669.171875 345.253906 670.34375 347.621094 C 671.515625 349.992188 672.574219 352.371094 673.515625 354.765625 C 674.457031 357.160156 675.28125 359.566406 675.988281 361.980469 C 676.695312 364.398438 677.285156 366.820312 677.757812 369.25 C 678.230469 371.679688 678.585938 374.113281 678.824219 376.554688 C 679.058594 378.992188 679.179688 381.433594 679.179688 383.875 Z M 679.179688 383.875 " fill-opacity="1" fill-rule="nonzero"/><path fill="#ffffff" d="M 444.082031 432.25 L 458.703125 357.050781 C 462.058594 340.050781 459.179688 327.355469 450.554688 319.453125 C 442.164062 311.789062 427.785156 307.957031 406.699219 307.957031 L 381.296875 307.957031 L 388.484375 270.601562 C 388.722656 269.164062 388.484375 267.726562 387.527344 266.527344 C 386.566406 265.332031 385.371094 264.851562 383.929688 264.851562 L 348.941406 264.851562 C 346.546875 264.851562 344.628906 266.527344 344.148438 268.683594 L 328.574219 348.429688 C 327.132812 339.332031 323.78125 331.667969 318.027344 325.441406 C 307.722656 313.707031 291.667969 307.71875 269.859375 307.71875 L 202.515625 307.71875 C 200.121094 307.71875 198.203125 309.394531 197.722656 311.550781 L 166.332031 473.4375 C 166.089844 474.875 166.332031 476.3125 167.289062 477.511719 C 168.246094 478.707031 169.445312 479.1875 170.882812 479.1875 L 206.113281 479.1875 C 208.507812 479.1875 210.425781 477.511719 210.90625 475.355469 L 218.574219 436.320312 L 244.695312 436.320312 C 258.355469 436.320312 270.097656 434.882812 278.964844 432.007812 C 288.3125 428.894531 296.699219 423.867188 304.128906 416.921875 C 310.121094 411.414062 315.152344 405.1875 318.988281 398.480469 L 312.753906 430.8125 C 312.515625 432.25 312.753906 433.683594 313.714844 434.882812 C 314.671875 436.082031 315.871094 436.558594 317.308594 436.558594 L 352.296875 436.558594 C 354.695312 436.558594 356.613281 434.882812 357.089844 432.726562 L 374.34375 344.121094 L 398.308594 344.121094 C 408.613281 344.121094 411.492188 346.035156 412.449219 346.992188 C 413.167969 347.710938 414.605469 350.585938 412.929688 359.445312 L 399.027344 431.050781 C 398.789062 432.488281 399.027344 433.925781 399.988281 435.121094 C 400.945312 436.320312 402.144531 436.796875 403.582031 436.796875 L 439.53125 436.796875 C 441.6875 436.082031 443.605469 434.402344 444.082031 432.25 Z M 282.082031 369.984375 C 279.925781 381.238281 275.851562 389.382812 269.859375 393.933594 C 263.867188 398.480469 254.042969 400.875 241.101562 400.875 L 225.523438 400.875 L 236.789062 342.921875 L 256.917969 342.921875 C 271.777344 342.921875 277.765625 346.035156 280.164062 348.671875 C 283.277344 352.5 283.996094 359.925781 282.082031 369.984375 Z M 282.082031 369.984375 " fill-opacity="1" fill-rule="nonzero"/><path fill="#ffffff" d="M 593.625 325.441406 C 583.320312 313.707031 567.261719 307.71875 545.453125 307.71875 L 477.632812 307.71875 C 475.238281 307.71875 473.320312 309.394531 472.839844 311.550781 L 441.445312 473.199219 C 441.207031 474.636719 441.445312 476.074219 442.40625 477.269531 C 443.363281 478.46875 444.5625 478.945312 446 478.945312 L 481.226562 478.945312 C 483.625 478.945312 485.542969 477.269531 486.019531 475.117188 L 493.691406 436.082031 L 519.8125 436.082031 C 533.472656 436.082031 545.214844 434.644531 554.082031 431.769531 C 563.429688 428.65625 571.816406 423.628906 579.246094 416.683594 C 585.476562 410.933594 590.746094 404.46875 594.582031 397.523438 C 598.417969 390.578125 601.292969 382.914062 602.96875 374.535156 C 607.042969 353.699219 603.929688 337.414062 593.625 325.441406 Z M 556.957031 369.984375 C 554.800781 381.238281 550.726562 389.382812 544.734375 393.933594 C 538.742188 398.480469 528.917969 400.875 515.976562 400.875 L 500.398438 400.875 L 511.664062 342.921875 L 531.792969 342.921875 C 546.652344 342.921875 552.644531 346.035156 555.039062 348.671875 C 558.394531 352.5 559.113281 359.925781 556.957031 369.984375 Z M 556.957031 369.984375 " fill-opacity="1" fill-rule="nonzero"/><path fill="#000004" d="M 256.917969 338.132812 C 270.339844 338.132812 279.203125 340.527344 283.757812 345.558594 C 288.3125 350.585938 289.269531 358.96875 286.875 370.941406 C 284.476562 383.394531 279.683594 392.496094 272.734375 397.761719 C 265.785156 403.03125 255.238281 405.667969 241.101562 405.667969 L 219.773438 405.667969 L 232.953125 338.132812 Z M 171.125 474.15625 L 206.351562 474.15625 L 214.738281 431.289062 L 244.933594 431.289062 C 258.355469 431.289062 269.140625 429.855469 277.765625 426.980469 C 286.394531 424.105469 294.0625 419.554688 301.253906 412.851562 C 307.242188 407.34375 312.035156 401.355469 315.632812 394.890625 C 319.226562 388.421875 321.863281 381.238281 323.300781 373.335938 C 327.132812 354.179688 324.257812 339.332031 314.914062 328.554688 C 305.566406 317.777344 290.707031 312.507812 270.339844 312.507812 L 202.515625 312.507812 Z M 171.125 474.15625 " fill-opacity="1" fill-rule="nonzero"/><path fill="#000004" d="M 349.183594 269.640625 L 384.171875 269.640625 L 375.785156 312.507812 L 406.9375 312.507812 C 426.589844 312.507812 440.007812 315.863281 447.4375 322.804688 C 454.867188 329.75 457.023438 340.765625 454.148438 356.09375 L 439.53125 431.289062 L 404.0625 431.289062 L 417.960938 359.6875 C 419.640625 351.542969 418.917969 346.035156 416.285156 343.160156 C 413.648438 340.289062 407.65625 338.613281 398.789062 338.613281 L 370.75 338.613281 L 352.777344 431.289062 L 317.789062 431.289062 Z M 349.183594 269.640625 " fill-opacity="1" fill-rule="nonzero"/><path fill="#000004" d="M 531.792969 338.132812 C 545.214844 338.132812 554.082031 340.527344 558.636719 345.558594 C 563.1875 350.585938 564.148438 358.96875 561.75 370.941406 C 559.355469 383.394531 554.5625 392.496094 547.609375 397.761719 C 540.660156 403.03125 530.117188 405.667969 515.976562 405.667969 L 494.648438 405.667969 L 507.828125 338.132812 Z M 446 474.15625 L 481.226562 474.15625 L 489.617188 431.289062 L 519.8125 431.289062 C 533.230469 431.289062 544.015625 429.855469 552.644531 426.980469 C 561.269531 424.105469 568.941406 419.554688 576.128906 412.851562 C 582.121094 407.34375 586.914062 401.355469 590.507812 394.890625 C 594.101562 388.421875 596.738281 381.238281 598.175781 373.335938 C 602.011719 354.179688 599.136719 339.332031 589.789062 328.554688 C 580.441406 317.777344 565.585938 312.507812 545.214844 312.507812 L 477.394531 312.507812 Z M 446 474.15625 " fill-opacity="1" fill-rule="nonzero"/></svg>