<svg xmlns="http://www.w3.org/2000/svg" xmlns:xlink="http://www.w3.org/1999/xlink" width="1024" zoomAndPan="magnify" viewBox="0 0 768 767.999994" height="1024" preserveAspectRatio="xMidYMid meet" version="1.0"><defs><clipPath id="162fd3ac59"><path d="M 71.828125 66.855469 L 695.828125 66.855469 L 695.828125 690.855469 L 71.828125 690.855469 Z M 71.828125 66.855469 " clip-rule="nonzero"/></clipPath><clipPath id="971fbd512e"><path d="M 71.828125 66.855469 L 570 66.855469 L 570 565 L 71.828125 565 Z M 71.828125 66.855469 " clip-rule="nonzero"/></clipPath><clipPath id="8d1e3fcfb5"><path d="M 198 193 L 695.828125 193 L 695.828125 565 L 198 565 Z M 198 193 " clip-rule="nonzero"/></clipPath><clipPath id="7c8524a0fb"><path d="M 71.828125 193 L 570 193 L 570 690.855469 L 71.828125 690.855469 Z M 71.828125 193 " clip-rule="nonzero"/></clipPath></defs><rect x="-76.8" width="921.6" fill="#ffffff" y="-76.799999" height="921.599993" fill-opacity="1"/><rect x="-76.8" width="921.6" fill="#192a51" y="-76.799999" height="921.599993" fill-opacity="1"/><path fill="#ffffff" d="M 646.566406 378.855469 C 646.566406 383.15625 646.460938 387.453125 646.25 391.75 C 646.039062 396.042969 645.722656 400.332031 645.300781 404.609375 C 644.878906 408.890625 644.351562 413.15625 643.722656 417.410156 C 643.089844 421.660156 642.355469 425.898438 641.515625 430.113281 C 640.679688 434.332031 639.734375 438.527344 638.691406 442.695312 C 637.648438 446.867188 636.5 451.011719 635.253906 455.125 C 634.003906 459.242188 632.65625 463.320312 631.207031 467.371094 C 629.757812 471.417969 628.210938 475.429688 626.566406 479.402344 C 624.921875 483.375 623.179688 487.304688 621.339844 491.191406 C 619.5 495.078125 617.570312 498.917969 615.542969 502.710938 C 613.515625 506.503906 611.394531 510.242188 609.183594 513.929688 C 606.976562 517.617188 604.675781 521.25 602.285156 524.824219 C 599.898438 528.402344 597.421875 531.914062 594.859375 535.367188 C 592.300781 538.824219 589.65625 542.210938 586.925781 545.535156 C 584.199219 548.859375 581.390625 552.113281 578.503906 555.300781 C 575.617188 558.484375 572.652344 561.597656 569.613281 564.640625 C 566.570312 567.679688 563.457031 570.644531 560.273438 573.53125 C 557.085938 576.417969 553.832031 579.226562 550.507812 581.957031 C 547.183594 584.683594 543.792969 587.328125 540.339844 589.890625 C 536.886719 592.449219 533.371094 594.925781 529.796875 597.316406 C 526.222656 599.703125 522.589844 602.003906 518.902344 604.214844 C 515.214844 606.425781 511.472656 608.542969 507.683594 610.570312 C 503.890625 612.597656 500.050781 614.53125 496.164062 616.367188 C 492.277344 618.207031 488.347656 619.949219 484.375 621.59375 C 480.402344 623.238281 476.390625 624.785156 472.34375 626.234375 C 468.292969 627.683594 464.210938 629.03125 460.097656 630.28125 C 455.980469 631.527344 451.839844 632.675781 447.667969 633.71875 C 443.496094 634.765625 439.304688 635.707031 435.085938 636.546875 C 430.867188 637.382812 426.632812 638.121094 422.378906 638.75 C 418.125 639.382812 413.859375 639.90625 409.582031 640.328125 C 405.300781 640.75 401.015625 641.066406 396.71875 641.277344 C 392.425781 641.488281 388.128906 641.59375 383.828125 641.59375 C 379.527344 641.59375 375.230469 641.488281 370.9375 641.277344 C 366.640625 641.066406 362.355469 640.75 358.074219 640.328125 C 353.796875 639.90625 349.53125 639.382812 345.277344 638.75 C 341.023438 638.121094 336.789062 637.382812 332.570312 636.546875 C 328.355469 635.707031 324.160156 634.765625 319.988281 633.71875 C 315.816406 632.675781 311.675781 631.527344 307.558594 630.28125 C 303.445312 629.03125 299.363281 627.683594 295.316406 626.234375 C 291.265625 624.785156 287.257812 623.238281 283.285156 621.59375 C 279.3125 619.949219 275.382812 618.207031 271.492188 616.367188 C 267.605469 614.53125 263.765625 612.597656 259.976562 610.570312 C 256.183594 608.542969 252.441406 606.425781 248.753906 604.214844 C 245.066406 602.003906 241.433594 599.703125 237.859375 597.316406 C 234.285156 594.925781 230.769531 592.449219 227.316406 589.890625 C 223.863281 587.328125 220.472656 584.683594 217.148438 581.957031 C 213.828125 579.226562 210.570312 576.417969 207.386719 573.53125 C 204.199219 570.644531 201.085938 567.679688 198.046875 564.640625 C 195.003906 561.597656 192.042969 558.484375 189.152344 555.300781 C 186.265625 552.113281 183.457031 548.859375 180.730469 545.535156 C 178.003906 542.210938 175.359375 538.824219 172.796875 535.367188 C 170.234375 531.914062 167.757812 528.402344 165.371094 524.824219 C 162.980469 521.25 160.683594 517.617188 158.472656 513.929688 C 156.261719 510.242188 154.140625 506.503906 152.117188 502.710938 C 150.089844 498.917969 148.15625 495.078125 146.316406 491.191406 C 144.480469 487.304688 142.738281 483.375 141.089844 479.402344 C 139.445312 475.429688 137.898438 471.417969 136.449219 467.371094 C 135 463.320312 133.652344 459.242188 132.40625 455.125 C 131.15625 451.011719 130.011719 446.867188 128.964844 442.695312 C 127.921875 438.527344 126.980469 434.332031 126.140625 430.113281 C 125.300781 425.898438 124.566406 421.660156 123.933594 417.410156 C 123.304688 413.15625 122.777344 408.890625 122.355469 404.609375 C 121.933594 400.332031 121.621094 396.042969 121.40625 391.75 C 121.195312 387.453125 121.089844 383.15625 121.089844 378.855469 C 121.089844 374.558594 121.195312 370.261719 121.410156 365.964844 C 121.621094 361.671875 121.933594 357.382812 122.355469 353.105469 C 122.777344 348.824219 123.304688 344.558594 123.933594 340.304688 C 124.566406 336.050781 125.300781 331.816406 126.140625 327.601562 C 126.980469 323.382812 127.921875 319.1875 128.964844 315.015625 C 130.011719 310.847656 131.15625 306.703125 132.40625 302.589844 C 133.652344 298.472656 135 294.390625 136.449219 290.34375 C 137.898438 286.296875 139.445312 282.285156 141.089844 278.3125 C 142.738281 274.339844 144.480469 270.410156 146.316406 266.523438 C 148.15625 262.636719 150.089844 258.796875 152.117188 255.003906 C 154.140625 251.210938 156.261719 247.472656 158.472656 243.785156 C 160.683594 240.09375 162.980469 236.464844 165.371094 232.886719 C 167.757812 229.3125 170.234375 225.796875 172.796875 222.34375 C 175.359375 218.890625 178.003906 215.503906 180.730469 212.179688 C 183.457031 208.855469 186.265625 205.601562 189.152344 202.414062 C 192.042969 199.226562 195.003906 196.113281 198.046875 193.074219 C 201.085938 190.035156 204.199219 187.070312 207.386719 184.183594 C 210.570312 181.292969 213.828125 178.488281 217.148438 175.757812 C 220.472656 173.03125 223.863281 170.386719 227.316406 167.824219 C 230.769531 165.261719 234.285156 162.789062 237.859375 160.398438 C 241.433594 158.011719 245.066406 155.710938 248.753906 153.5 C 252.441406 151.289062 256.183594 149.171875 259.976562 147.144531 C 263.765625 145.117188 267.605469 143.183594 271.492188 141.347656 C 275.382812 139.507812 279.3125 137.765625 283.285156 136.121094 C 287.257812 134.472656 291.265625 132.925781 295.316406 131.480469 C 299.363281 130.03125 303.445312 128.683594 307.558594 127.433594 C 311.675781 126.183594 315.816406 125.039062 319.988281 123.996094 C 324.160156 122.949219 328.355469 122.007812 332.570312 121.167969 C 336.789062 120.328125 341.023438 119.59375 345.277344 118.964844 C 349.53125 118.332031 353.796875 117.808594 358.074219 117.386719 C 362.355469 116.964844 366.640625 116.648438 370.9375 116.4375 C 375.230469 116.226562 379.527344 116.121094 383.828125 116.121094 C 388.128906 116.121094 392.425781 116.226562 396.71875 116.4375 C 401.015625 116.648438 405.300781 116.964844 409.582031 117.386719 C 413.859375 117.808594 418.125 118.332031 422.378906 118.964844 C 426.632812 119.59375 430.867188 120.328125 435.085938 121.167969 C 439.304688 122.007812 443.496094 122.949219 447.667969 123.996094 C 451.839844 125.039062 455.980469 126.183594 460.097656 127.433594 C 464.210938 128.683594 468.292969 130.03125 472.34375 131.480469 C 476.390625 132.925781 480.402344 134.472656 484.375 136.121094 C 488.347656 137.765625 492.277344 139.507812 496.164062 141.347656 C 500.050781 143.183594 503.890625 145.117188 507.683594 147.144531 C 511.472656 149.171875 515.214844 151.289062 518.902344 153.5 C 522.589844 155.710938 526.222656 158.011719 529.796875 160.398438 C 533.371094 162.789062 536.886719 165.261719 540.339844 167.824219 C 543.792969 170.386719 547.183594 173.03125 550.507812 175.757812 C 553.832031 178.488281 557.085938 181.292969 560.273438 184.183594 C 563.457031 187.070312 566.570312 190.035156 569.613281 193.074219 C 572.652344 196.113281 575.617188 199.226562 578.503906 202.414062 C 581.390625 205.601562 584.199219 208.855469 586.925781 212.179688 C 589.65625 215.503906 592.300781 218.890625 594.859375 222.34375 C 597.421875 225.796875 599.898438 229.3125 602.285156 232.886719 C 604.675781 236.464844 606.976562 240.09375 609.183594 243.785156 C 611.394531 247.472656 613.515625 251.210938 615.542969 255.003906 C 617.570312 258.796875 619.5 262.636719 621.339844 266.523438 C 623.179688 270.410156 624.921875 274.339844 626.566406 278.3125 C 628.210938 282.285156 629.757812 286.296875 631.207031 290.34375 C 632.65625 294.390625 634.003906 298.472656 635.253906 302.589844 C 636.5 306.703125 637.648438 310.847656 638.691406 315.015625 C 639.734375 319.1875 640.679688 323.382812 641.515625 327.601562 C 642.355469 331.816406 643.089844 336.050781 643.722656 340.304688 C 644.351562 344.558594 644.878906 348.824219 645.300781 353.105469 C 645.722656 357.382812 646.039062 361.671875 646.25 365.964844 C 646.460938 370.261719 646.566406 374.558594 646.566406 378.855469 Z M 646.566406 378.855469 " fill-opacity="1" fill-rule="nonzero"/><path fill="#e64a19" d="M 482.355469 378.855469 C 482.355469 380.46875 482.316406 382.082031 482.234375 383.691406 C 482.15625 385.300781 482.039062 386.910156 481.878906 388.515625 C 481.722656 390.117188 481.523438 391.71875 481.289062 393.3125 C 481.050781 394.910156 480.777344 396.496094 480.460938 398.078125 C 480.148438 399.660156 479.792969 401.234375 479.402344 402.796875 C 479.011719 404.359375 478.582031 405.914062 478.113281 407.457031 C 477.644531 409 477.136719 410.53125 476.59375 412.050781 C 476.050781 413.566406 475.472656 415.070312 474.855469 416.5625 C 474.238281 418.050781 473.585938 419.523438 472.894531 420.984375 C 472.207031 422.441406 471.480469 423.878906 470.722656 425.300781 C 469.960938 426.722656 469.167969 428.125 468.335938 429.507812 C 467.507812 430.894531 466.644531 432.253906 465.75 433.59375 C 464.855469 434.9375 463.925781 436.253906 462.964844 437.550781 C 462.003906 438.84375 461.011719 440.113281 459.992188 441.363281 C 458.96875 442.609375 457.914062 443.828125 456.832031 445.023438 C 455.75 446.21875 454.636719 447.386719 453.496094 448.527344 C 452.355469 449.664062 451.191406 450.777344 449.996094 451.859375 C 448.800781 452.941406 447.578125 453.996094 446.332031 455.019531 C 445.085938 456.042969 443.816406 457.035156 442.519531 457.996094 C 441.226562 458.953125 439.90625 459.882812 438.566406 460.777344 C 437.226562 461.675781 435.863281 462.535156 434.480469 463.367188 C 433.097656 464.195312 431.695312 464.988281 430.273438 465.75 C 428.851562 466.507812 427.410156 467.234375 425.953125 467.921875 C 424.496094 468.613281 423.023438 469.265625 421.53125 469.882812 C 420.042969 470.5 418.539062 471.082031 417.019531 471.625 C 415.503906 472.167969 413.972656 472.671875 412.429688 473.140625 C 410.886719 473.609375 409.332031 474.039062 407.769531 474.429688 C 406.203125 474.824219 404.632812 475.175781 403.050781 475.488281 C 401.46875 475.804688 399.878906 476.082031 398.285156 476.316406 C 396.691406 476.554688 395.089844 476.75 393.484375 476.910156 C 391.882812 477.066406 390.273438 477.1875 388.664062 477.265625 C 387.050781 477.34375 385.441406 477.382812 383.828125 477.382812 C 382.214844 477.382812 380.605469 477.34375 378.992188 477.265625 C 377.382812 477.1875 375.777344 477.066406 374.171875 476.910156 C 372.566406 476.75 370.964844 476.554688 369.371094 476.316406 C 367.777344 476.082031 366.1875 475.804688 364.605469 475.488281 C 363.027344 475.175781 361.453125 474.824219 359.886719 474.429688 C 358.324219 474.039062 356.769531 473.609375 355.226562 473.140625 C 353.683594 472.671875 352.152344 472.167969 350.636719 471.625 C 349.117188 471.082031 347.613281 470.5 346.125 469.882812 C 344.632812 469.265625 343.160156 468.613281 341.703125 467.921875 C 340.246094 467.234375 338.804688 466.507812 337.382812 465.75 C 335.960938 464.988281 334.558594 464.195312 333.175781 463.367188 C 331.792969 462.535156 330.429688 461.675781 329.089844 460.777344 C 327.75 459.882812 326.429688 458.953125 325.136719 457.992188 C 323.839844 457.035156 322.570312 456.042969 321.324219 455.019531 C 320.078125 453.996094 318.855469 452.941406 317.664062 451.859375 C 316.46875 450.777344 315.300781 449.664062 314.160156 448.527344 C 313.019531 447.386719 311.90625 446.21875 310.824219 445.023438 C 309.742188 443.828125 308.691406 442.609375 307.667969 441.363281 C 306.644531 440.113281 305.652344 438.84375 304.691406 437.550781 C 303.730469 436.253906 302.800781 434.9375 301.90625 433.59375 C 301.011719 432.253906 300.148438 430.894531 299.320312 429.507812 C 298.492188 428.125 297.695312 426.722656 296.9375 425.300781 C 296.175781 423.878906 295.453125 422.441406 294.761719 420.984375 C 294.074219 419.523438 293.417969 418.050781 292.800781 416.5625 C 292.183594 415.070312 291.605469 413.566406 291.0625 412.050781 C 290.519531 410.53125 290.011719 409 289.542969 407.457031 C 289.078125 405.914062 288.648438 404.359375 288.253906 402.796875 C 287.863281 401.234375 287.511719 399.660156 287.195312 398.078125 C 286.878906 396.496094 286.605469 394.910156 286.367188 393.3125 C 286.132812 391.71875 285.933594 390.117188 285.777344 388.515625 C 285.617188 386.910156 285.5 385.300781 285.421875 383.691406 C 285.339844 382.082031 285.300781 380.46875 285.300781 378.855469 C 285.300781 377.246094 285.339844 375.632812 285.421875 374.023438 C 285.5 372.414062 285.617188 370.804688 285.777344 369.199219 C 285.933594 367.59375 286.132812 365.996094 286.367188 364.398438 C 286.605469 362.804688 286.878906 361.21875 287.195312 359.636719 C 287.511719 358.054688 287.863281 356.480469 288.253906 354.917969 C 288.648438 353.351562 289.078125 351.800781 289.542969 350.257812 C 290.011719 348.714844 290.519531 347.183594 291.0625 345.664062 C 291.605469 344.144531 292.183594 342.640625 292.800781 341.152344 C 293.417969 339.664062 294.074219 338.1875 294.761719 336.730469 C 295.453125 335.273438 296.175781 333.835938 296.9375 332.410156 C 297.695312 330.988281 298.492188 329.585938 299.320312 328.203125 C 300.148438 326.820312 301.011719 325.460938 301.90625 324.117188 C 302.800781 322.777344 303.730469 321.460938 304.691406 320.164062 C 305.652344 318.871094 306.644531 317.597656 307.667969 316.351562 C 308.691406 315.105469 309.742188 313.886719 310.824219 312.691406 C 311.90625 311.496094 313.019531 310.328125 314.160156 309.1875 C 315.300781 308.046875 316.46875 306.9375 317.664062 305.855469 C 318.855469 304.769531 320.078125 303.71875 321.324219 302.695312 C 322.570312 301.671875 323.839844 300.679688 325.136719 299.71875 C 326.429688 298.757812 327.75 297.832031 329.089844 296.933594 C 330.429688 296.039062 331.792969 295.175781 333.175781 294.347656 C 334.558594 293.519531 335.960938 292.726562 337.382812 291.964844 C 338.804688 291.203125 340.246094 290.480469 341.703125 289.789062 C 343.160156 289.101562 344.632812 288.449219 346.125 287.832031 C 347.613281 287.214844 349.117188 286.632812 350.636719 286.089844 C 352.152344 285.546875 353.683594 285.042969 355.226562 284.574219 C 356.769531 284.105469 358.324219 283.675781 359.886719 283.285156 C 361.453125 282.890625 363.027344 282.539062 364.605469 282.222656 C 366.1875 281.910156 367.777344 281.632812 369.371094 281.398438 C 370.964844 281.160156 372.566406 280.964844 374.171875 280.804688 C 375.777344 280.648438 377.382812 280.527344 378.992188 280.449219 C 380.605469 280.371094 382.214844 280.332031 383.828125 280.332031 C 385.441406 280.332031 387.050781 280.371094 388.664062 280.449219 C 390.273438 280.527344 391.882812 280.648438 393.484375 280.804688 C 395.089844 280.964844 396.691406 281.160156 398.285156 281.398438 C 399.878906 281.632812 401.46875 281.910156 403.050781 282.222656 C 404.632812 282.539062 406.203125 282.890625 407.769531 283.285156 C 409.332031 283.675781 410.886719 284.105469 412.429688 284.574219 C 413.972656 285.042969 415.503906 285.546875 417.019531 286.089844 C 418.539062 286.632812 420.042969 287.214844 421.53125 287.832031 C 423.023438 288.449219 424.496094 289.101562 425.953125 289.789062 C 427.410156 290.480469 428.851562 291.203125 430.273438 291.964844 C 431.695312 292.726562 433.097656 293.519531 434.480469 294.347656 C 435.863281 295.175781 437.226562 296.039062 438.566406 296.933594 C 439.90625 297.832031 441.226562 298.757812 442.519531 299.71875 C 443.816406 300.679688 445.085938 301.671875 446.332031 302.695312 C 447.578125 303.71875 448.800781 304.769531 449.996094 305.855469 C 451.191406 306.9375 452.355469 308.046875 453.496094 309.1875 C 454.636719 310.328125 455.75 311.496094 456.832031 312.691406 C 457.914062 313.886719 458.96875 315.105469 459.992188 316.351562 C 461.011719 317.597656 462.003906 318.871094 462.964844 320.164062 C 463.925781 321.460938 464.855469 322.777344 465.75 324.117188 C 466.644531 325.460938 467.507812 326.820312 468.335938 328.203125 C 469.167969 329.585938 469.960938 330.988281 470.722656 332.410156 C 471.480469 333.835938 472.207031 335.273438 472.894531 336.730469 C 473.585938 338.1875 474.238281 339.664062 474.855469 341.152344 C 475.472656 342.640625 476.050781 344.144531 476.59375 345.664062 C 477.136719 347.183594 477.644531 348.714844 478.113281 350.257812 C 478.582031 351.800781 479.011719 353.351562 479.402344 354.917969 C 479.792969 356.480469 480.148438 358.054688 480.460938 359.636719 C 480.777344 361.21875 481.050781 362.804688 481.289062 364.398438 C 481.523438 365.996094 481.722656 367.59375 481.878906 369.199219 C 482.039062 370.804688 482.15625 372.414062 482.234375 374.023438 C 482.316406 375.632812 482.355469 377.246094 482.355469 378.855469 Z M 482.355469 378.855469 " fill-opacity="1" fill-rule="nonzero"/><path fill="#e64a19" d="M 186.777344 337.804688 C 209.453125 337.804688 227.828125 356.195312 227.828125 378.855469 C 227.828125 401.519531 209.453125 419.910156 186.777344 419.910156 C 164.097656 419.910156 145.722656 401.519531 145.722656 378.855469 C 145.722656 356.195312 164.097656 337.804688 186.777344 337.804688 M 186.777344 321.382812 C 155.082031 321.382812 129.300781 347.164062 129.300781 378.855469 C 129.300781 410.550781 155.082031 436.332031 186.777344 436.332031 C 218.46875 436.332031 244.25 410.550781 244.25 378.855469 C 244.25 347.164062 218.46875 321.382812 186.777344 321.382812 Z M 186.777344 321.382812 " fill-opacity="1" fill-rule="nonzero"/><path fill="#e64a19" d="M 482.355469 502.015625 C 505.03125 502.015625 523.40625 520.40625 523.40625 543.066406 C 523.40625 565.730469 505.03125 584.121094 482.355469 584.121094 C 459.675781 584.121094 441.300781 565.730469 441.300781 543.066406 C 441.300781 520.40625 459.675781 502.015625 482.355469 502.015625 M 482.355469 485.59375 C 450.664062 485.59375 424.882812 511.375 424.882812 543.066406 C 424.882812 574.761719 450.664062 600.542969 482.355469 600.542969 C 514.046875 600.542969 539.828125 574.761719 539.828125 543.066406 C 539.828125 511.375 514.046875 485.59375 482.355469 485.59375 Z M 482.355469 485.59375 " fill-opacity="1" fill-rule="nonzero"/><g clip-path="url(#162fd3ac59)"><path fill="#e64a19" d="M 383.828125 66.855469 C 211.523438 66.855469 71.828125 206.535156 71.828125 378.855469 C 71.828125 551.179688 211.523438 690.855469 383.828125 690.855469 C 556.132812 690.855469 695.828125 551.179688 695.828125 378.855469 C 695.828125 206.535156 556.132812 66.855469 383.828125 66.855469 Z M 523.40625 543.066406 C 523.40625 565.730469 505.03125 584.121094 482.355469 584.121094 C 459.675781 584.121094 441.300781 565.730469 441.300781 543.066406 C 441.300781 539.160156 442.023438 535.464844 443.027344 531.886719 C 424.652344 539.011719 404.734375 543.066406 383.828125 543.066406 C 300.671875 543.066406 232.097656 481.160156 221.292969 400.960938 C 213.96875 412.324219 201.292969 419.910156 186.777344 419.910156 C 164.097656 419.910156 145.722656 401.519531 145.722656 378.855469 C 145.722656 356.195312 164.097656 337.804688 186.777344 337.804688 C 201.292969 337.804688 213.96875 345.390625 221.292969 356.753906 C 232.097656 276.554688 300.671875 214.648438 383.828125 214.648438 C 404.734375 214.648438 424.652344 218.703125 443.027344 225.828125 C 442.023438 222.25 441.300781 218.554688 441.300781 214.648438 C 441.300781 191.96875 459.675781 173.59375 482.355469 173.59375 C 505.03125 173.59375 523.40625 191.96875 523.40625 214.648438 C 523.40625 234.300781 509.566406 250.691406 491.105469 254.699219 C 525.917969 284.8125 548.039062 329.214844 548.039062 378.855469 C 548.039062 428.496094 525.917969 472.902344 491.105469 503.015625 C 509.566406 507.023438 523.40625 523.410156 523.40625 543.066406 Z M 523.40625 543.066406 " fill-opacity="1" fill-rule="nonzero"/></g><path fill="#e64a19" d="M 482.355469 173.59375 C 505.03125 173.59375 523.40625 191.96875 523.40625 214.648438 C 523.40625 237.308594 505.03125 255.699219 482.355469 255.699219 C 459.675781 255.699219 441.300781 237.308594 441.300781 214.648438 C 441.300781 191.96875 459.675781 173.59375 482.355469 173.59375 M 482.355469 157.171875 C 450.664062 157.171875 424.882812 182.953125 424.882812 214.648438 C 424.882812 246.339844 450.664062 272.121094 482.355469 272.121094 C 514.046875 272.121094 539.828125 246.339844 539.828125 214.648438 C 539.828125 182.953125 514.046875 157.171875 482.355469 157.171875 Z M 482.355469 157.171875 " fill-opacity="1" fill-rule="nonzero"/><path fill="#e64a19" d="M 383.828125 378.855469 C 341.414062 312.203125 298.996094 245.550781 256.582031 178.882812 " fill-opacity="1" fill-rule="nonzero"/><g clip-path="url(#971fbd512e)"><path stroke-linecap="butt" transform="matrix(16.421051, 0, 0, 16.421051, -10.276681, -15.248131)" fill="none" stroke-linejoin="miter" d="M 23.999974 23.9999 C 21.417066 19.940943 18.83392 15.881986 16.251013 11.822078 " stroke="#e64a19" stroke-width="2" stroke-opacity="1" stroke-miterlimit="4"/></g><path fill="#e64a19" d="M 383.828125 378.875 C 462.832031 378.855469 541.832031 378.855469 620.851562 378.875 " fill-opacity="1" fill-rule="nonzero"/><g clip-path="url(#8d1e3fcfb5)"><path stroke-linecap="butt" transform="matrix(16.421051, 0, 0, 16.421051, -10.276681, -15.248131)" fill="none" stroke-linejoin="miter" d="M 23.999974 24.00109 C 28.81111 23.9999 33.622007 23.9999 38.434095 24.00109 " stroke="#e64a19" stroke-width="2" stroke-opacity="1" stroke-miterlimit="4"/></g><path fill="#e64a19" d="M 383.828125 378.855469 C 340.066406 444.625 296.273438 510.390625 252.460938 576.140625 " fill-opacity="1" fill-rule="nonzero"/><g clip-path="url(#7c8524a0fb)"><path stroke-linecap="butt" transform="matrix(16.421051, 0, 0, 16.421051, -10.276681, -15.248131)" fill="none" stroke-linejoin="miter" d="M 23.999974 23.9999 C 21.334997 28.005097 18.668118 32.010055 16.000048 36.014062 " stroke="#e64a19" stroke-width="2" stroke-opacity="1" stroke-miterlimit="4"/></g></svg>