<svg xmlns="http://www.w3.org/2000/svg" xmlns:xlink="http://www.w3.org/1999/xlink" width="1024" zoomAndPan="magnify" viewBox="0 0 768 767.999994" height="1024" preserveAspectRatio="xMidYMid meet" version="1.0"><defs><clipPath id="f919a696d2"><path d="M 177 24 L 523 24 L 523 704.25 L 177 704.25 Z M 177 24 " clip-rule="nonzero"/></clipPath></defs><rect x="-76.8" width="921.6" fill="#ffffff" y="-76.799999" height="921.599993" fill-opacity="1"/><rect x="-76.8" width="921.6" fill="#192a51" y="-76.799999" height="921.599993" fill-opacity="1"/><path fill="#4e7896" d="M 298.503906 384.75 C 298.503906 384.75 280.578125 395.65625 310.972656 398.773438 C 347.601562 403.449219 367.082031 402.671875 407.605469 394.878906 C 407.605469 394.878906 418.515625 401.890625 433.324219 407.34375 C 342.144531 446.300781 226.804688 405.007812 298.507812 384.75 Z M 286.816406 334.105469 C 286.816406 334.105469 267.332031 348.90625 297.726562 352.027344 C 337.472656 355.921875 368.644531 356.699219 422.414062 345.792969 C 422.414062 345.792969 429.429688 353.582031 441.117188 357.480469 C 331.238281 390.203125 208.097656 360.597656 286.8125 334.105469 Z M 501.910156 422.917969 C 501.910156 422.917969 515.15625 433.828125 487.101562 442.398438 C 434.886719 457.980469 268.121094 462.65625 221.355469 442.398438 C 204.988281 435.386719 236.160156 425.257812 246.289062 423.699219 C 256.421875 421.359375 261.878906 421.359375 261.878906 421.359375 C 243.953125 408.894531 142.644531 447.074219 210.441406 457.980469 C 396.695312 488.367188 550.21875 444.734375 501.90625 422.917969 Z M 307.082031 281.117188 C 307.082031 281.117188 222.140625 301.371094 276.691406 308.386719 C 300.070312 311.5 346.046875 310.722656 388.910156 307.605469 C 423.976562 304.488281 459.050781 298.253906 459.050781 298.253906 C 459.050781 298.253906 446.582031 303.707031 438.007812 309.160156 C 351.503906 331.757812 185.515625 321.628906 233.046875 298.253906 C 273.570312 278.777344 307.082031 281.113281 307.082031 281.113281 Z M 459.046875 366.042969 C 546.328125 320.851562 505.804688 277.21875 477.75 282.671875 C 470.734375 284.230469 467.617188 285.789062 467.617188 285.789062 C 467.617188 285.789062 469.957031 281.113281 475.410156 279.554688 C 530.742188 260.078125 574.382812 337.988281 457.488281 368.378906 C 457.488281 368.378906 458.269531 367.597656 459.046875 366.039062 Z M 315.652344 489.144531 C 399.816406 494.601562 528.386719 486.03125 531.527344 446.292969 C 531.527344 446.292969 525.292969 461.875 462.167969 473.5625 C 390.472656 486.808594 301.632812 485.25 249.433594 476.679688 C 249.433594 476.679688 260.34375 486.03125 315.671875 489.144531 Z M 315.652344 489.144531 " fill-opacity="1" fill-rule="nonzero"/><g clip-path="url(#f919a696d2)"><path fill="#f58219" d="M 406.046875 24 C 406.046875 24 454.363281 73.085938 360.066406 147.105469 C 284.476562 207.097656 342.921875 241.382812 360.066406 280.335938 C 315.648438 240.601562 283.695312 205.539062 305.515625 172.816406 C 337.472656 124.507812 425.539062 101.152344 406.050781 24 Z M 381.125 247.617188 C 403.722656 273.328125 374.890625 296.703125 374.890625 296.703125 C 374.890625 296.703125 432.558594 267.097656 406.0625 230.476562 C 381.902344 195.417969 363.199219 178.277344 464.507812 119.855469 C 464.507812 119.855469 304.753906 159.59375 381.121094 247.632812 Z M 323.445312 666.003906 L 323.445312 589.648438 C 323.445312 570.167969 312.535156 556.925781 285.257812 556.925781 C 269.671875 556.925781 256.425781 560.820312 244.734375 565.480469 L 248.632812 579.503906 C 257.191406 576.390625 268.117188 573.273438 279.804688 573.273438 C 294.613281 573.273438 301.625 579.503906 301.625 591.972656 L 301.625 602.101562 L 293.832031 602.101562 C 256.425781 602.101562 239.28125 616.125 239.28125 638.71875 C 239.28125 657.417969 250.96875 668.328125 272.011719 668.328125 C 285.261719 668.328125 295.394531 662.09375 304.746094 654.300781 L 306.300781 665.988281 L 323.449219 665.988281 Z M 301.625 641.074219 C 293.832031 648.085938 285.257812 651.980469 277.464844 651.980469 C 267.332031 651.980469 261.101562 645.746094 261.101562 634.839844 C 261.101562 623.933594 267.335938 616.140625 292.269531 616.140625 L 301.625 616.140625 Z M 396.699219 666.003906 L 369.425781 666.003906 L 336.695312 559.261719 L 360.078125 559.261719 L 380.339844 624.710938 L 385.011719 644.1875 C 395.144531 616.136719 402.9375 587.3125 406.054688 559.261719 L 429.433594 559.261719 C 423.199219 594.324219 412.289062 632.5 396.707031 666.003906 Z M 522.945312 666.003906 L 522.945312 589.648438 C 522.945312 570.167969 512.035156 556.925781 484.761719 556.925781 C 469.171875 556.925781 455.925781 560.820312 444.234375 565.480469 L 447.355469 579.503906 C 456.707031 576.390625 467.617188 573.273438 479.304688 573.273438 C 494.113281 573.273438 501.125 579.503906 501.125 591.972656 L 501.125 602.101562 L 493.335938 602.101562 C 455.929688 602.101562 438.78125 616.125 438.78125 638.71875 C 438.78125 657.417969 449.691406 668.328125 470.734375 668.328125 C 484.761719 668.328125 494.894531 662.09375 504.242188 654.300781 L 505.800781 665.988281 L 522.945312 665.988281 Z M 501.125 641.074219 C 493.335938 648.085938 484.761719 651.980469 476.96875 651.980469 C 466.835938 651.980469 460.601562 645.746094 460.601562 634.839844 C 460.601562 623.933594 466.835938 616.140625 491.773438 616.140625 L 501.128906 616.140625 L 501.128906 641.058594 Z M 215.125 683.925781 C 208.890625 693.277344 199.539062 700.289062 187.851562 704.183594 L 177.714844 691.726562 C 185.503906 687.050781 193.300781 680.039062 196.417969 673.804688 C 199.535156 668.347656 200.316406 660.558594 200.316406 642.640625 L 200.316406 521.09375 L 223.695312 521.09375 L 223.695312 641.082031 C 223.695312 665.234375 221.355469 674.585938 215.136719 683.9375 Z M 215.125 683.925781 " fill-opacity="1" fill-rule="nonzero"/></g></svg>