<svg xmlns="http://www.w3.org/2000/svg" xmlns:xlink="http://www.w3.org/1999/xlink" width="1024" zoomAndPan="magnify" viewBox="0 0 768 767.999994" height="1024" preserveAspectRatio="xMidYMid meet" version="1.0"><defs><clipPath id="3da3b29d40"><path d="M 145 94.300781 L 625.628906 94.300781 L 625.628906 691.300781 L 145 691.300781 Z M 145 94.300781 " clip-rule="nonzero"/></clipPath></defs><rect x="-76.8" width="921.6" fill="#ffffff" y="-76.799999" height="921.599993" fill-opacity="1"/><rect x="-76.8" width="921.6" fill="#192a51" y="-76.799999" height="921.599993" fill-opacity="1"/><g clip-path="url(#3da3b29d40)"><path fill="#ff2d20" d="M 162.257812 222.820312 C 163.015625 226.964844 171.792969 217.03125 164.921875 232.507812 C 151.699219 241.75 163.324219 236.554688 162.257812 222.820312 Z M 162.257812 222.820312 C 162.242188 222.585938 162.230469 222.351562 162.203125 222.109375 C 162.199219 222.390625 162.222656 222.617188 162.257812 222.820312 Z M 151.238281 267.40625 C 142.675781 278.351562 147.300781 280.683594 146.398438 288.128906 C 149.496094 278.617188 150.054688 272.90625 151.238281 267.40625 Z M 420.480469 94.328125 C 411.242188 95.105469 402.039062 95.566406 392.949219 96.734375 L 396.953125 97.28125 C 403.640625 94.832031 413.386719 95.941406 420.480469 94.328125 Z M 405.285156 105.421875 L 405.539062 104.957031 L 401.808594 105.730469 Z M 395 102.023438 C 400.273438 102.972656 406.40625 103.699219 405.539062 104.957031 C 411.3125 103.695312 412.625 102.527344 395 102.023438 Z M 339.917969 422.628906 C 336.480469 418.824219 334.441406 414.246094 332.164062 409.679688 C 334.34375 417.703125 338.808594 424.59375 342.960938 431.601562 Z M 447.28125 416.742188 C 450.847656 413.953125 454.082031 411.136719 456.964844 408.398438 C 448.921875 410.363281 440.742188 410.410156 432.5 409.65625 C 422.613281 409.796875 434.371094 414.75 447.28125 416.742188 Z M 485.574219 396.425781 C 491.472656 388.296875 495.765625 379.398438 497.273438 370.195312 C 495.949219 376.753906 492.394531 382.421875 489.039062 388.394531 C 470.558594 400.03125 487.304688 381.484375 489.027344 374.433594 C 469.152344 399.457031 486.296875 389.4375 485.574219 396.425781 Z M 505.171875 345.441406 C 506.363281 327.632812 501.660156 333.261719 500.082031 340.058594 C 501.925781 341.019531 503.390625 352.613281 505.171875 345.441406 Z M 391.8125 473.441406 C 377.582031 466.777344 364.554688 456.714844 353.835938 444.398438 C 359.523438 452.722656 365.65625 460.8125 373.589844 467.167969 C 360.171875 462.621094 342.246094 434.65625 337.011719 433.515625 C 360.144531 474.929688 430.855469 506.144531 467.886719 490.652344 C 450.75 491.289062 428.984375 491.007812 409.734375 483.894531 C 402.410156 480.125 392.695312 472.691406 392.394531 470.132812 C 392.03125 471.074219 391.4375 472.023438 391.8125 473.441406 Z M 392.582031 469.542969 C 392.429688 469.691406 392.367188 469.886719 392.394531 470.128906 C 392.472656 469.933594 392.535156 469.738281 392.582031 469.542969 Z M 323.167969 430.167969 C 329.667969 439 334.820312 448.5625 343.121094 455.464844 C 337.152344 443.808594 332.714844 438.988281 324.554688 423.230469 Z M 605.011719 307.601562 C 605.175781 298.519531 607.535156 302.84375 608.453125 300.605469 C 606.671875 299.582031 601.996094 292.621094 599.144531 279.269531 C 601.207031 276.132812 604.660156 287.402344 607.46875 287.863281 C 605.660156 277.246094 602.550781 269.152344 602.425781 261.007812 C 594.226562 243.871094 599.527344 263.292969 592.871094 253.652344 C 584.144531 226.425781 600.113281 247.328125 601.191406 234.960938 C 614.421875 254.128906 621.972656 283.835938 625.429688 296.140625 C 622.789062 281.136719 618.519531 266.605469 613.304688 252.542969 C 617.328125 254.234375 606.835938 221.675781 618.53125 243.238281 C 606.035156 197.273438 565.066406 154.324219 527.371094 134.171875 C 531.980469 138.390625 537.808594 143.691406 535.714844 144.523438 C 516.972656 133.359375 520.265625 132.492188 517.582031 127.777344 C 502.308594 121.5625 501.3125 128.277344 491.195312 127.785156 C 462.40625 112.519531 456.859375 114.140625 430.367188 104.574219 L 431.582031 110.207031 C 412.503906 103.855469 409.363281 112.617188 388.753906 110.230469 C 387.5 109.25 395.359375 106.683594 401.824219 105.746094 C 383.382812 108.179688 384.246094 102.113281 366.207031 106.414062 C 370.65625 103.296875 375.355469 101.230469 380.097656 98.578125 C 365.0625 99.492188 344.207031 107.328125 350.644531 100.203125 C 326.121094 111.144531 282.566406 126.503906 258.125 149.421875 L 257.359375 144.285156 C 246.160156 157.730469 208.519531 184.441406 205.519531 201.851562 L 202.527344 202.550781 C 196.699219 212.417969 192.929688 223.601562 188.308594 233.753906 C 180.683594 246.742188 177.136719 238.75 178.21875 240.785156 C 163.230469 271.183594 155.78125 296.722656 149.351562 317.667969 C 153.933594 324.523438 149.460938 358.917969 151.191406 386.445312 C 143.660156 522.402344 246.609375 654.410156 359.140625 684.882812 C 375.628906 690.789062 400.164062 690.5625 421.023438 691.167969 C 396.410156 684.125 393.222656 687.4375 369.246094 679.074219 C 351.949219 670.933594 348.15625 661.628906 335.90625 651 L 340.753906 659.570312 C 316.730469 651.066406 326.78125 649.042969 307.234375 642.851562 L 312.414062 636.089844 C 304.625 635.503906 291.785156 622.960938 288.273438 616.023438 L 279.753906 616.359375 C 269.519531 603.726562 264.066406 594.628906 264.460938 587.574219 L 261.710938 592.476562 C 258.589844 587.125 224.046875 545.113281 241.972656 554.886719 C 238.640625 551.847656 234.214844 549.9375 229.414062 541.21875 L 233.066406 537.050781 C 224.441406 525.953125 217.195312 511.730469 217.742188 506.996094 C 222.34375 513.207031 225.535156 514.371094 228.695312 515.429688 C 206.917969 461.398438 205.695312 512.453125 189.199219 460.4375 L 192.691406 460.144531 C 190.015625 456.125 188.390625 451.75 186.242188 447.453125 L 187.761719 432.320312 C 172.082031 414.191406 183.371094 355.238281 185.636719 322.910156 C 187.203125 309.761719 198.722656 295.765625 207.484375 273.816406 L 202.144531 272.898438 C 212.351562 255.097656 260.402344 201.417969 282.660156 204.179688 C 293.441406 190.636719 280.523438 204.132812 278.410156 200.71875 C 302.09375 176.214844 309.539062 183.40625 325.523438 178.996094 C 342.761719 168.765625 310.726562 182.988281 318.902344 175.09375 C 348.695312 167.484375 340.019531 157.792969 378.890625 153.929688 C 382.988281 156.261719 369.375 157.53125 365.957031 160.5625 C 390.78125 148.417969 444.515625 151.175781 479.414062 167.300781 C 519.917969 186.230469 565.421875 242.179688 567.214844 294.816406 L 569.257812 295.367188 C 568.222656 316.292969 572.457031 340.492188 565.121094 362.71875 L 570.117188 352.195312 C 570.699219 368.191406 565.433594 375.949219 560.691406 389.6875 L 552.140625 393.957031 C 545.148438 407.539062 552.816406 402.582031 547.8125 413.382812 C 536.894531 423.097656 514.671875 443.765625 507.566406 445.652344 C 502.371094 445.535156 511.078125 439.523438 512.222656 437.171875 C 497.605469 447.207031 500.492188 452.238281 478.136719 458.328125 L 477.480469 456.882812 C 422.34375 482.820312 345.761719 431.421875 346.769531 361.28125 C 346.179688 365.734375 345.09375 364.621094 343.875 366.425781 C 341.03125 330.335938 360.539062 294.089844 393.441406 279.292969 C 425.625 263.359375 463.355469 269.898438 486.414062 291.382812 C 473.75 274.796875 448.546875 257.214844 418.671875 258.859375 C 389.410156 259.320312 362.035156 277.917969 352.902344 298.105469 C 337.90625 307.542969 336.167969 334.488281 329.636719 339.421875 C 320.847656 404.015625 346.171875 431.917969 389.003906 464.746094 C 392.417969 467.050781 392.859375 468.363281 392.582031 469.542969 C 392.597656 469.53125 392.601562 469.515625 392.617188 469.503906 C 443.152344 488.378906 495.355469 483.800781 539.074219 448.753906 C 550.195312 440.089844 562.351562 425.351562 565.863281 425.148438 C 560.574219 433.09375 566.765625 428.96875 562.699219 435.992188 C 573.789062 418.113281 557.886719 428.714844 574.15625 405.121094 L 580.171875 413.398438 C 577.9375 398.5625 598.597656 380.542969 596.5 357.078125 C 601.242188 349.902344 601.785156 364.800781 596.757812 381.3125 C 603.734375 362.996094 598.597656 360.050781 600.390625 344.9375 C 602.328125 350.015625 604.871094 355.414062 606.175781 360.777344 C 601.628906 343.078125 610.835938 330.96875 613.117188 320.683594 C 610.878906 319.6875 606.105469 328.507812 605.011719 307.601562 Z M 605.011719 307.601562 " fill-opacity="1" fill-rule="nonzero"/></g></svg>