<svg xmlns="http://www.w3.org/2000/svg" xmlns:xlink="http://www.w3.org/1999/xlink" width="1024" zoomAndPan="magnify" viewBox="0 0 768 767.999994" height="1024" preserveAspectRatio="xMidYMid meet" version="1.0"><defs><clipPath id="9b5c0941da"><path d="M 109.054688 76.800781 L 658.804688 76.800781 L 658.804688 691.050781 L 109.054688 691.050781 Z M 109.054688 76.800781 " clip-rule="nonzero"/></clipPath></defs><rect x="-76.8" width="921.6" fill="#ffffff" y="-76.799999" height="921.599993" fill-opacity="1"/><rect x="-76.8" width="921.6" fill="#192a51" y="-76.799999" height="921.599993" fill-opacity="1"/><g clip-path="url(#9b5c0941da)"><path fill="#0277bd" d="M 658.726562 76.800781 L 109.136719 76.800781 L 157.628906 626.390625 L 383.929688 691.050781 L 610.230469 626.390625 Z M 658.726562 76.800781 " fill-opacity="1" fill-rule="nonzero"/></g><path fill="#039be5" d="M 383.929688 125.292969 L 383.929688 640.941406 L 564.972656 589.214844 L 605.382812 125.292969 Z M 383.929688 125.292969 " fill-opacity="1" fill-rule="nonzero"/><path fill="#ffffff" d="M 531.027344 206.117188 L 383.929688 206.117188 L 383.929688 270.773438 L 463.136719 270.773438 L 458.289062 335.429688 L 383.929688 335.429688 L 383.929688 400.089844 L 455.054688 400.089844 L 450.203125 472.828125 L 383.929688 495.460938 L 383.929688 563.351562 L 511.628906 521.324219 L 522.945312 335.429688 Z M 531.027344 206.117188 " fill-opacity="1" fill-rule="nonzero"/><path fill="#eeeeee" d="M 383.929688 206.117188 L 383.929688 270.773438 L 240.066406 270.773438 L 235.21875 206.117188 Z M 309.574219 335.429688 L 312.808594 400.089844 L 383.929688 400.089844 L 383.929688 335.429688 Z M 316.039062 432.417969 L 251.382812 432.417969 L 256.230469 521.324219 L 383.929688 563.351562 L 383.929688 495.460938 L 317.65625 472.828125 Z M 316.039062 432.417969 " fill-opacity="1" fill-rule="nonzero"/></svg>