<svg xmlns="http://www.w3.org/2000/svg" xmlns:xlink="http://www.w3.org/1999/xlink" width="1024" zoomAndPan="magnify" viewBox="0 0 768 767.999994" height="1024" preserveAspectRatio="xMidYMid meet" version="1.0"><rect x="-76.8" width="921.6" fill="#ffffff" y="-76.799999" height="921.599993" fill-opacity="1"/><rect x="-76.8" width="921.6" fill="#192a51" y="-76.799999" height="921.599993" fill-opacity="1"/><path fill="#e44d26" d="M 178.710938 591.707031 L 133.058594 79.507812 L 634.660156 79.507812 L 588.960938 591.613281 L 383.550781 648.589844 Z M 178.710938 591.707031 " fill-opacity="1" fill-rule="nonzero"/><path fill="#f16529" d="M 383.859375 605.054688 L 549.851562 559.03125 L 588.886719 121.382812 L 383.859375 121.382812 Z M 383.859375 605.054688 " fill-opacity="1" fill-rule="nonzero"/><path fill="#ebebeb" d="M 383.859375 311.363281 L 300.757812 311.363281 L 295.019531 247.03125 L 383.859375 247.03125 L 383.859375 184.21875 L 226.402344 184.21875 L 227.894531 201.054688 L 243.324219 374.175781 L 383.859375 374.175781 Z M 383.859375 474.5 L 383.574219 474.570312 L 313.652344 455.671875 L 309.171875 405.570312 L 246.144531 405.570312 L 254.9375 504.210938 L 383.574219 539.921875 L 383.859375 539.847656 Z M 383.859375 474.5 " fill-opacity="1" fill-rule="nonzero"/><path fill="#ffffff" d="M 383.644531 311.363281 L 383.644531 374.175781 L 460.964844 374.175781 L 453.664062 455.648438 L 383.621094 474.546875 L 383.621094 539.894531 L 512.351562 504.210938 L 513.300781 493.585938 L 528.066406 328.199219 L 529.609375 311.339844 L 512.683594 311.339844 Z M 383.644531 184.21875 L 383.644531 247.03125 L 535.320312 247.03125 L 536.574219 232.898438 L 539.445312 201.054688 L 540.9375 184.195312 Z M 383.644531 184.21875 " fill-opacity="1" fill-rule="nonzero"/></svg>