<svg xmlns="http://www.w3.org/2000/svg" xmlns:xlink="http://www.w3.org/1999/xlink" width="1024" zoomAndPan="magnify" viewBox="0 0 768 767.999994" height="1024" preserveAspectRatio="xMidYMid meet" version="1.0"><defs><clipPath id="30e74d8be2"><path d="M 54 171 L 715.84375 171 L 715.84375 600 L 54 600 Z M 54 171 " clip-rule="nonzero"/></clipPath></defs><rect x="-76.8" width="921.6" fill="#ffffff" y="-76.799999" height="921.599993" fill-opacity="1"/><rect x="-76.8" width="921.6" fill="#192a51" y="-76.799999" height="921.599993" fill-opacity="1"/><g clip-path="url(#30e74d8be2)"><path fill="#364548" d="M 398.152344 306.648438 L 465.683594 306.648438 L 465.683594 375.738281 L 499.832031 375.738281 C 515.613281 375.738281 531.808594 372.925781 546.765625 367.855469 C 554.089844 365.375 562.324219 361.902344 569.570312 357.550781 C 560.039062 345.09375 555.164062 329.386719 553.734375 313.871094 C 551.777344 292.789062 556.046875 265.339844 570.285156 248.832031 L 577.390625 240.617188 L 585.847656 247.425781 C 607.136719 264.539062 625.066406 288.460938 628.203125 315.742188 C 653.847656 308.191406 683.949219 309.984375 706.558594 323.046875 L 715.84375 328.394531 L 710.96875 337.929688 C 691.851562 375.269531 651.890625 386.816406 612.808594 384.777344 C 554.339844 530.507812 427.042969 599.484375 272.699219 599.484375 C 192.964844 599.484375 119.789062 569.667969 78.144531 498.871094 L 77.457031 497.710938 L 71.371094 485.367188 C 57.296875 454.199219 52.613281 420.082031 55.78125 385.960938 L 56.746094 375.738281 L 114.5 375.738281 L 114.5 306.648438 L 182.03125 306.648438 L 182.03125 239.074219 L 317.097656 239.074219 L 317.097656 171.503906 L 398.152344 171.503906 Z M 398.152344 306.648438 " fill-opacity="1" fill-rule="nonzero"/></g><path fill="#22a0c8" d="M 616.941406 332.222656 C 621.457031 297.003906 595.128906 269.363281 578.796875 256.21875 C 559.984375 277.988281 557.039062 335.0625 586.589844 359.09375 C 570.121094 373.726562 535.390625 387.011719 499.832031 387.011719 L 67.019531 387.011719 C 63.578125 424.160156 70.078125 458.359375 84.949219 487.625 L 89.878906 496.636719 C 92.992188 501.929688 96.40625 507.054688 100.070312 511.960938 C 117.859375 513.117188 134.277344 513.503906 149.285156 513.171875 C 178.78125 512.511719 202.855469 509.039062 221.085938 502.699219 C 223.839844 501.847656 226.734375 503.390625 227.585938 506.117188 C 228.414062 508.734375 227.035156 511.546875 224.472656 512.511719 C 222.050781 513.367188 219.515625 514.136719 216.898438 514.882812 C 202.550781 518.988281 187.128906 521.742188 167.269531 522.984375 C 168.453125 523.011719 166.03125 523.148438 166.03125 523.148438 C 165.34375 523.203125 164.515625 523.285156 163.828125 523.316406 C 156.007812 523.753906 147.578125 523.839844 138.929688 523.839844 C 129.484375 523.839844 120.203125 523.671875 109.792969 523.121094 L 109.515625 523.285156 C 145.566406 563.851562 201.972656 588.160156 272.644531 588.160156 C 422.222656 588.160156 549.105469 521.796875 605.289062 372.84375 C 645.144531 376.953125 683.453125 366.753906 700.886719 332.71875 C 673.179688 316.761719 637.488281 321.863281 616.941406 332.222656 Z M 616.941406 332.222656 " fill-opacity="1" fill-rule="nonzero"/><path fill="#37b1d9" d="M 616.941406 332.222656 C 621.457031 297.003906 595.128906 269.363281 578.796875 256.21875 C 559.984375 277.988281 557.039062 335.0625 586.589844 359.09375 C 570.121094 373.726562 535.390625 387.011719 499.832031 387.011719 L 92.632812 387.011719 C 90.871094 443.890625 111.96875 487.046875 149.285156 513.171875 C 178.78125 512.511719 202.855469 509.039062 221.085938 502.699219 C 223.839844 501.847656 226.734375 503.390625 227.585938 506.117188 C 228.414062 508.734375 227.035156 511.546875 224.472656 512.511719 C 222.050781 513.367188 219.515625 514.136719 216.898438 514.882812 C 202.550781 518.988281 185.804688 522.101562 165.949219 523.3125 C 165.949219 523.3125 165.480469 522.847656 165.453125 522.847656 C 216.347656 548.972656 290.1875 548.886719 374.796875 516.34375 C 469.675781 479.855469 558 410.378906 619.613281 330.875 C 618.730469 331.339844 617.820312 331.78125 616.941406 332.222656 Z M 616.941406 332.222656 " fill-opacity="1" fill-rule="nonzero"/><path fill="#1b81a5" d="M 67.816406 432.125 C 70.515625 452.019531 76.328125 470.648438 84.949219 487.597656 L 89.878906 496.609375 C 92.992188 501.902344 96.40625 507.027344 100.070312 511.933594 C 117.859375 513.089844 134.277344 513.476562 149.285156 513.144531 C 178.78125 512.484375 202.855469 509.011719 221.085938 502.671875 C 223.839844 501.820312 226.734375 503.363281 227.585938 506.089844 C 228.414062 508.707031 227.035156 511.519531 224.472656 512.484375 C 222.050781 513.339844 219.515625 514.109375 216.898438 514.855469 C 202.550781 518.960938 185.886719 521.910156 166.03125 523.121094 C 165.34375 523.175781 164.160156 523.175781 163.46875 523.203125 C 155.648438 523.644531 147.304688 523.921875 138.65625 523.921875 C 129.207031 523.921875 119.570312 523.726562 109.183594 523.203125 C 145.238281 563.769531 201.972656 588.1875 272.671875 588.1875 C 400.738281 588.1875 512.144531 539.546875 576.8125 432.09375 L 67.816406 432.09375 Z M 67.816406 432.125 " fill-opacity="1" fill-rule="nonzero"/><path fill="#1d91b4" d="M 96.542969 432.125 C 104.199219 467.066406 122.597656 494.488281 149.3125 513.144531 C 178.808594 512.484375 202.882812 509.011719 221.113281 502.671875 C 223.867188 501.820312 226.761719 503.363281 227.613281 506.089844 C 228.441406 508.707031 227.0625 511.519531 224.5 512.484375 C 222.078125 513.339844 219.542969 514.109375 216.925781 514.855469 C 202.578125 518.960938 185.585938 521.910156 165.699219 523.121094 C 216.597656 549.246094 290.214844 548.859375 374.824219 516.34375 C 426.023438 496.664062 475.292969 467.371094 519.5 432.066406 L 96.542969 432.066406 Z M 96.542969 432.125 " fill-opacity="1" fill-rule="nonzero"/><path fill="#23a3c2" d="M 125.765625 317.921875 L 184.292969 317.921875 L 184.292969 376.484375 L 125.765625 376.484375 Z M 130.640625 322.796875 L 135.265625 322.796875 L 135.265625 371.605469 L 130.640625 371.605469 Z M 139.316406 322.796875 L 144.109375 322.796875 L 144.109375 371.605469 L 139.316406 371.605469 Z M 148.183594 322.796875 L 152.976562 322.796875 L 152.976562 371.605469 L 148.183594 371.605469 Z M 157.050781 322.796875 L 161.84375 322.796875 L 161.84375 371.605469 L 157.050781 371.605469 Z M 165.921875 322.796875 L 170.714844 322.796875 L 170.714844 371.605469 L 165.921875 371.605469 Z M 174.789062 322.796875 L 179.417969 322.796875 L 179.417969 371.605469 L 174.789062 371.605469 Z M 193.296875 250.347656 L 251.824219 250.347656 L 251.824219 308.910156 L 193.269531 308.910156 Z M 198.171875 255.226562 L 202.800781 255.226562 L 202.800781 304.03125 L 198.171875 304.03125 Z M 206.847656 255.226562 L 211.640625 255.226562 L 211.640625 304.03125 L 206.847656 304.03125 Z M 215.714844 255.226562 L 220.507812 255.226562 L 220.507812 304.03125 L 215.714844 304.03125 Z M 224.585938 255.226562 L 229.375 255.226562 L 229.375 304.03125 L 224.585938 304.03125 Z M 233.453125 255.226562 L 238.246094 255.226562 L 238.246094 304.03125 L 233.453125 304.03125 Z M 242.320312 255.226562 L 246.949219 255.226562 L 246.949219 304.03125 L 242.320312 304.03125 Z M 242.320312 255.226562 " fill-opacity="1" fill-rule="nonzero"/><path fill="#34bbde" d="M 193.296875 317.921875 L 251.824219 317.921875 L 251.824219 376.484375 L 193.269531 376.484375 Z M 198.171875 322.796875 L 202.800781 322.796875 L 202.800781 371.605469 L 198.171875 371.605469 Z M 206.847656 322.796875 L 211.640625 322.796875 L 211.640625 371.605469 L 206.847656 371.605469 Z M 215.714844 322.796875 L 220.507812 322.796875 L 220.507812 371.605469 L 215.714844 371.605469 Z M 224.585938 322.796875 L 229.375 322.796875 L 229.375 371.605469 L 224.585938 371.605469 Z M 233.453125 322.796875 L 238.246094 322.796875 L 238.246094 371.605469 L 233.453125 371.605469 Z M 242.320312 322.796875 L 246.949219 322.796875 L 246.949219 371.605469 L 242.320312 371.605469 Z M 242.320312 322.796875 " fill-opacity="1" fill-rule="nonzero"/><path fill="#23a3c2" d="M 260.828125 317.921875 L 319.355469 317.921875 L 319.355469 376.484375 L 260.828125 376.484375 Z M 265.703125 322.796875 L 270.332031 322.796875 L 270.332031 371.605469 L 265.703125 371.605469 Z M 274.378906 322.796875 L 279.171875 322.796875 L 279.171875 371.605469 L 274.378906 371.605469 Z M 283.246094 322.796875 L 288.039062 322.796875 L 288.039062 371.605469 L 283.246094 371.605469 Z M 292.117188 322.796875 L 296.90625 322.796875 L 296.90625 371.605469 L 292.117188 371.605469 Z M 300.984375 322.796875 L 305.804688 322.796875 L 305.804688 371.605469 L 300.984375 371.605469 Z M 309.851562 322.796875 L 314.480469 322.796875 L 314.480469 371.605469 L 309.851562 371.605469 Z M 309.851562 322.796875 " fill-opacity="1" fill-rule="nonzero"/><path fill="#34bbde" d="M 260.828125 250.347656 L 319.355469 250.347656 L 319.355469 308.910156 L 260.828125 308.910156 Z M 265.703125 255.226562 L 270.332031 255.226562 L 270.332031 304.03125 L 265.703125 304.03125 Z M 274.378906 255.226562 L 279.171875 255.226562 L 279.171875 304.03125 L 274.378906 304.03125 Z M 283.246094 255.226562 L 288.039062 255.226562 L 288.039062 304.03125 L 283.246094 304.03125 Z M 292.117188 255.226562 L 296.90625 255.226562 L 296.90625 304.03125 L 292.117188 304.03125 Z M 300.984375 255.226562 L 305.804688 255.226562 L 305.804688 304.03125 L 300.984375 304.03125 Z M 309.851562 255.226562 L 314.480469 255.226562 L 314.480469 304.03125 L 309.851562 304.03125 Z M 328.359375 317.921875 L 386.886719 317.921875 L 386.886719 376.484375 L 328.359375 376.484375 Z M 333.234375 322.796875 L 337.863281 322.796875 L 337.863281 371.605469 L 333.234375 371.605469 Z M 341.910156 322.796875 L 346.703125 322.796875 L 346.703125 371.605469 L 341.910156 371.605469 Z M 350.78125 322.796875 L 355.570312 322.796875 L 355.570312 371.605469 L 350.78125 371.605469 Z M 359.648438 322.796875 L 364.441406 322.796875 L 364.441406 371.605469 L 359.648438 371.605469 Z M 368.515625 322.796875 L 373.308594 322.796875 L 373.308594 371.605469 L 368.515625 371.605469 Z M 377.382812 322.796875 L 382.011719 322.796875 L 382.011719 371.605469 L 377.382812 371.605469 Z M 377.382812 322.796875 " fill-opacity="1" fill-rule="nonzero"/><path fill="#23a3c2" d="M 328.359375 250.347656 L 386.886719 250.347656 L 386.886719 308.910156 L 328.359375 308.910156 Z M 333.234375 255.226562 L 337.863281 255.226562 L 337.863281 304.03125 L 333.234375 304.03125 Z M 341.910156 255.226562 L 346.703125 255.226562 L 346.703125 304.03125 L 341.910156 304.03125 Z M 350.78125 255.226562 L 355.570312 255.226562 L 355.570312 304.03125 L 350.78125 304.03125 Z M 359.648438 255.226562 L 364.441406 255.226562 L 364.441406 304.03125 L 359.648438 304.03125 Z M 368.515625 255.226562 L 373.308594 255.226562 L 373.308594 304.03125 L 368.515625 304.03125 Z M 377.382812 255.226562 L 382.011719 255.226562 L 382.011719 304.03125 L 377.382812 304.03125 Z M 377.382812 255.226562 " fill-opacity="1" fill-rule="nonzero"/><path fill="#34bbde" d="M 328.359375 182.773438 L 386.886719 182.773438 L 386.886719 241.335938 L 328.359375 241.335938 Z M 333.234375 187.652344 L 337.863281 187.652344 L 337.863281 236.457031 L 333.234375 236.457031 Z M 341.910156 187.652344 L 346.703125 187.652344 L 346.703125 236.457031 L 341.910156 236.457031 Z M 350.78125 187.652344 L 355.570312 187.652344 L 355.570312 236.457031 L 350.78125 236.457031 Z M 359.648438 187.652344 L 364.441406 187.652344 L 364.441406 236.457031 L 359.648438 236.457031 Z M 368.515625 187.652344 L 373.308594 187.652344 L 373.308594 236.457031 L 368.515625 236.457031 Z M 377.382812 187.652344 L 382.011719 187.652344 L 382.011719 236.457031 L 377.382812 236.457031 Z M 377.382812 187.652344 " fill-opacity="1" fill-rule="nonzero"/><path fill="#23a3c2" d="M 395.890625 317.921875 L 454.417969 317.921875 L 454.417969 376.484375 L 395.890625 376.484375 Z M 400.765625 322.796875 L 405.394531 322.796875 L 405.394531 371.605469 L 400.765625 371.605469 Z M 409.441406 322.796875 L 414.234375 322.796875 L 414.234375 371.605469 L 409.441406 371.605469 Z M 418.3125 322.796875 L 423.101562 322.796875 L 423.101562 371.605469 L 418.3125 371.605469 Z M 427.179688 322.796875 L 431.972656 322.796875 L 431.972656 371.605469 L 427.179688 371.605469 Z M 436.046875 322.796875 L 440.839844 322.796875 L 440.839844 371.605469 L 436.046875 371.605469 Z M 444.917969 322.796875 L 449.542969 322.796875 L 449.542969 371.605469 L 444.917969 371.605469 Z M 444.917969 322.796875 " fill-opacity="1" fill-rule="nonzero"/><path fill="#d3ecec" d="M 248.160156 471.449219 C 257.082031 471.339844 264.410156 478.476562 264.519531 487.40625 C 264.628906 496.335938 257.496094 503.664062 248.574219 503.773438 C 248.433594 503.773438 248.269531 503.773438 248.132812 503.773438 C 239.207031 503.664062 232.074219 496.335938 232.214844 487.40625 C 232.351562 478.613281 239.402344 471.558594 248.160156 471.449219 Z M 248.160156 471.449219 " fill-opacity="1" fill-rule="nonzero"/><path fill="#364548" d="M 248.160156 476.023438 C 249.648438 476.023438 251.050781 476.300781 252.347656 476.796875 C 250.085938 478.117188 249.316406 480.984375 250.636719 483.246094 C 251.492188 484.703125 253.035156 485.585938 254.714844 485.585938 C 256.503906 485.585938 258.046875 484.59375 258.847656 483.132812 C 261.296875 489.03125 258.488281 495.8125 252.59375 498.261719 C 246.699219 500.714844 239.925781 497.90625 237.472656 492.007812 C 235.023438 486.109375 237.832031 479.332031 243.726562 476.878906 C 245.128906 476.328125 246.644531 476.023438 248.160156 476.023438 Z M 248.160156 476.023438 " fill-opacity="1" fill-rule="nonzero"/><path fill="#bdd9d7" d="M 291.070312 587.855469 C 251.078125 568.867188 229.128906 543.046875 216.925781 514.882812 C 202.082031 519.125 184.207031 521.828125 163.46875 523.011719 C 155.648438 523.453125 147.441406 523.671875 138.820312 523.671875 C 128.878906 523.671875 118.382812 523.371094 107.394531 522.789062 C 144.082031 559.472656 189.195312 587.691406 272.726562 588.214844 C 278.867188 588.214844 284.984375 588.105469 291.070312 587.855469 Z M 291.070312 587.855469 " fill-opacity="1" fill-rule="nonzero"/><path fill="#d3ecec" d="M 231.773438 540.898438 C 226.238281 533.375 220.867188 523.949219 216.925781 514.882812 C 202.082031 519.125 184.207031 521.855469 163.46875 523.011719 C 177.734375 530.753906 198.117188 537.921875 231.773438 540.898438 Z M 231.773438 540.898438 " fill-opacity="1" fill-rule="nonzero"/></svg>