<svg xmlns="http://www.w3.org/2000/svg" xmlns:xlink="http://www.w3.org/1999/xlink" width="1024" zoomAndPan="magnify" viewBox="0 0 768 767.999994" height="1024" preserveAspectRatio="xMidYMid meet" version="1.0"><defs><clipPath id="61c8c29cbe"><path d="M 128.398438 128.398438 L 639.898438 128.398438 L 639.898438 639.898438 L 128.398438 639.898438 Z M 128.398438 128.398438 " clip-rule="nonzero"/></clipPath></defs><rect x="-76.8" width="921.6" fill="#ffffff" y="-76.799999" height="921.599993" fill-opacity="1"/><rect x="-76.8" width="921.6" fill="#192a51" y="-76.799999" height="921.599993" fill-opacity="1"/><g clip-path="url(#61c8c29cbe)"><path fill="#007acc" d="M 128.398438 639.898438 L 639.898438 639.898438 L 639.898438 128.398438 L 128.398438 128.398438 Z M 128.398438 639.898438 " fill-opacity="1" fill-rule="nonzero"/></g><path fill="#ffffff" d="M 241.488281 385.828125 L 241.328125 406.789062 L 307.90625 406.789062 L 307.90625 595.964844 L 354.996094 595.964844 L 354.996094 406.789062 L 421.574219 406.789062 L 421.574219 386.246094 C 421.574219 374.878906 421.328125 365.367188 421.007812 365.128906 C 420.761719 364.808594 380.246094 364.648438 331.121094 364.730469 L 241.730469 364.96875 Z M 241.488281 385.828125 " fill-opacity="1" fill-rule="nonzero"/><path fill="#ffffff" d="M 541.136719 364.390625 C 554.125 367.625 564.035156 373.402344 573.125 382.8125 C 577.820312 387.847656 584.8125 397.015625 585.375 399.214844 C 585.53125 399.875 563.292969 414.800781 549.808594 423.171875 C 549.328125 423.492188 547.390625 421.375 545.191406 418.136719 C 538.617188 408.546875 531.707031 404.410156 521.15625 403.691406 C 505.652344 402.632812 495.660156 410.742188 495.742188 424.3125 C 495.742188 428.285156 496.320312 430.644531 497.9375 433.882812 C 501.355469 440.953125 507.6875 445.171875 527.570312 453.78125 C 564.195312 469.527344 579.859375 479.917969 589.609375 494.703125 C 600.480469 511.1875 602.917969 537.480469 595.523438 557.042969 C 587.410156 578.320312 567.269531 592.765625 538.9375 597.5625 C 530.167969 599.101562 509.386719 598.859375 499.957031 597.160156 C 479.417969 593.503906 459.9375 583.355469 447.925781 570.046875 C 443.210938 564.851562 434.042969 551.285156 434.601562 550.308594 C 434.859375 549.988281 436.957031 548.6875 439.316406 547.3125 C 441.59375 546.011719 450.207031 541.058594 458.316406 536.339844 L 473.003906 527.828125 L 476.101562 532.363281 C 480.394531 538.9375 489.828125 547.949219 495.5 550.96875 C 511.824219 559.558594 534.222656 558.339844 545.273438 548.449219 C 549.988281 544.132812 551.925781 539.679688 551.925781 533.105469 C 551.925781 527.171875 551.207031 524.574219 548.109375 520.117188 C 544.132812 514.421875 536.023438 509.628906 512.964844 499.65625 C 486.570312 488.289062 475.199219 481.214844 464.8125 470.007812 C 458.796875 463.511719 453.121094 453.121094 450.765625 444.429688 C 448.808594 437.21875 448.328125 419.117188 449.867188 411.804688 C 455.320312 386.308594 474.5625 368.523438 502.316406 363.25 C 511.324219 361.550781 532.285156 362.191406 541.136719 364.390625 Z M 541.136719 364.390625 " fill-opacity="1" fill-rule="nonzero"/></svg>