<svg xmlns="http://www.w3.org/2000/svg" xmlns:xlink="http://www.w3.org/1999/xlink" width="1024" zoomAndPan="magnify" viewBox="0 0 768 767.999994" height="1024" preserveAspectRatio="xMidYMid meet" version="1.0"><defs><clipPath id="ac6c5684d3"><path d="M 79 345 L 331 345 L 331 467.367188 L 79 467.367188 Z M 79 345 " clip-rule="nonzero"/></clipPath></defs><rect x="-76.8" width="921.6" fill="#ffffff" y="-76.799999" height="921.599993" fill-opacity="1"/><rect x="-76.8" width="921.6" fill="#192a51" y="-76.799999" height="921.599993" fill-opacity="1"/><g clip-path="url(#ac6c5684d3)"><path fill="#00618a" d="M 79.035156 439.5 L 99.125 439.5 L 99.125 360.261719 L 130.222656 429.363281 C 133.890625 437.695312 138.917969 440.6875 148.765625 440.6875 C 158.617188 440.6875 163.445312 437.726562 167.121094 429.363281 L 198.222656 360.261719 L 198.222656 439.53125 L 218.3125 439.53125 L 218.3125 360.394531 C 218.3125 352.671875 215.21875 348.941406 208.84375 347.011719 C 193.585938 342.25 183.347656 346.367188 178.714844 356.664062 L 148.195312 424.859375 L 118.636719 356.632812 C 114.191406 346.339844 103.761719 342.222656 88.503906 346.980469 C 82.125 348.914062 79.035156 352.644531 79.035156 360.363281 Z M 235.011719 374.984375 L 255.09375 374.984375 L 255.09375 418.65625 C 254.90625 421.03125 255.855469 426.601562 266.859375 426.769531 C 272.476562 426.859375 310.195312 426.769531 310.546875 426.769531 L 310.546875 374.765625 L 330.671875 374.765625 C 330.761719 374.765625 330.652344 445.675781 330.65625 445.976562 C 330.765625 463.464844 308.9375 467.265625 298.878906 467.558594 L 235.449219 467.558594 L 235.449219 454.050781 L 298.992188 454.050781 C 311.921875 452.679688 310.398438 446.265625 310.398438 444.101562 L 310.398438 438.835938 L 267.699219 438.835938 C 247.835938 438.65625 235.1875 429.988281 235.027344 420.023438 C 235.015625 419.128906 235.457031 375.410156 235.015625 374.980469 Z M 235.011719 374.984375 " fill-opacity="1" fill-rule="nonzero"/></g><path fill="#e48e00" d="M 346.160156 439.5 L 403.914062 439.5 C 410.675781 439.5 417.246094 438.089844 422.464844 435.640625 C 431.160156 431.652344 435.40625 426.246094 435.40625 419.167969 L 435.40625 404.503906 C 435.40625 398.710938 430.578125 393.308594 421.117188 389.703125 C 416.09375 387.769531 409.910156 386.742188 403.925781 386.742188 L 379.582031 386.742188 C 371.472656 386.742188 367.609375 384.296875 366.644531 378.894531 C 366.449219 378.253906 366.449219 377.707031 366.449219 377.09375 L 366.449219 367.960938 C 366.449219 367.445312 366.449219 366.925781 366.644531 366.285156 C 367.609375 362.167969 369.734375 361.007812 376.878906 360.335938 C 377.460938 360.335938 378.230469 360.203125 378.816406 360.203125 L 436.183594 360.203125 L 436.183594 346.824219 L 379.78125 346.824219 C 371.667969 346.824219 367.417969 347.339844 363.554688 348.496094 C 351.558594 352.230469 346.34375 358.179688 346.34375 368.472656 L 346.34375 380.183594 C 346.34375 389.191406 356.585938 396.914062 373.773438 398.710938 C 375.707031 398.839844 377.636719 398.96875 379.566406 398.96875 L 400.429688 398.96875 C 401.203125 398.96875 401.976562 398.96875 402.554688 399.097656 C 408.925781 399.613281 411.636719 400.773438 413.566406 403.085938 C 414.757812 404.277344 415.113281 405.40625 415.113281 406.65625 L 415.113281 418.367188 C 415.113281 419.78125 414.148438 421.585938 412.214844 423.125 C 410.476562 424.671875 407.582031 425.699219 403.714844 425.957031 C 402.941406 425.957031 402.363281 426.085938 401.59375 426.085938 L 346.152344 426.085938 L 346.152344 439.46875 Z M 560.726562 416.210938 C 560.726562 429.980469 570.960938 437.703125 591.632812 439.246094 C 593.558594 439.394531 595.492188 439.480469 597.425781 439.5 L 649.773438 439.5 L 649.773438 426.121094 L 597.039062 426.121094 C 585.257812 426.121094 580.8125 423.160156 580.8125 416.082031 L 580.8125 346.851562 L 560.722656 346.851562 L 560.722656 416.207031 Z M 448.222656 416.910156 L 448.222656 369.203125 C 448.222656 357.082031 456.738281 349.730469 473.578125 347.410156 C 475.375 347.152344 477.183594 347.023438 479 347.023438 L 517.132812 347.023438 C 519.011719 347.023438 520.886719 347.152344 522.746094 347.410156 C 539.589844 349.730469 548.105469 357.078125 548.105469 369.203125 L 548.105469 416.910156 C 548.105469 426.742188 544.484375 432.003906 536.148438 435.433594 L 555.9375 453.285156 L 532.613281 453.285156 L 516.601562 438.84375 L 500.484375 439.863281 L 479 439.863281 C 475.324219 439.863281 471.453125 439.347656 467.191406 438.1875 C 454.390625 434.707031 448.226562 428 448.226562 416.910156 Z M 469.90625 415.71875 C 469.90625 416.363281 470.101562 417.007812 470.292969 417.78125 C 471.484375 423.328125 476.679688 426.421875 484.585938 426.421875 L 502.839844 426.421875 L 486.074219 411.300781 L 509.398438 411.300781 L 523.988281 424.488281 C 526.683594 423.054688 528.457031 420.859375 529.050781 418.042969 C 529.246094 417.398438 529.246094 416.753906 529.246094 416.109375 L 529.246094 370.367188 C 529.246094 369.851562 529.246094 369.175781 529.050781 368.558594 C 527.859375 363.40625 522.660156 360.4375 514.921875 360.4375 L 484.640625 360.4375 C 475.707031 360.4375 469.929688 364.304688 469.929688 370.367188 L 469.929688 415.753906 Z M 469.90625 415.71875 " fill-opacity="1" fill-rule="nonzero"/><path fill="#00618a" d="M 667.4375 324.652344 C 655.089844 324.316406 645.652344 325.464844 637.589844 328.859375 C 635.296875 329.828125 631.644531 329.851562 631.269531 332.722656 C 632.527344 334.039062 632.730469 336.007812 633.726562 337.632812 C 635.652344 340.746094 638.90625 344.921875 641.804688 347.105469 C 644.972656 349.492188 648.234375 352.050781 651.636719 354.125 C 657.683594 357.808594 664.429688 359.910156 670.246094 363.597656 C 673.675781 365.769531 677.082031 368.507812 680.429688 370.964844 C 682.082031 372.179688 683.199219 374.0625 685.34375 374.824219 L 685.34375 374.472656 C 684.210938 373.035156 683.921875 371.058594 682.886719 369.5625 L 678.320312 365.003906 C 673.855469 359.050781 668.191406 353.882812 662.167969 349.5625 C 657.367188 346.117188 646.617188 341.464844 644.613281 335.875 L 644.261719 335.523438 C 647.667969 335.136719 651.652344 333.910156 654.800781 333.070312 C 660.078125 331.65625 664.796875 332.019531 670.253906 330.617188 L 677.628906 328.507812 L 677.628906 327.105469 C 674.871094 324.277344 672.90625 320.539062 669.902344 317.984375 C 662.042969 311.289062 653.457031 304.609375 644.625 299.03125 C 639.722656 295.9375 633.667969 293.933594 628.472656 291.3125 C 626.722656 290.429688 623.652344 289.972656 622.5 288.503906 C 619.773438 285.027344 618.289062 280.621094 616.183594 276.601562 C 611.777344 268.125 607.445312 258.859375 603.539062 249.9375 C 600.875 243.851562 599.132812 237.851562 595.816406 232.394531 C 579.871094 206.199219 562.707031 190.390625 536.125 174.855469 C 530.46875 171.550781 523.660156 170.242188 516.460938 168.539062 L 504.871094 167.835938 C 502.511719 166.855469 500.058594 163.96875 497.84375 162.570312 C 489.039062 157.007812 466.449219 144.917969 459.925781 160.785156 C 455.804688 170.820312 466.078125 180.613281 469.753906 185.699219 C 472.332031 189.269531 475.640625 193.265625 477.480469 197.277344 C 478.691406 199.914062 478.902344 202.558594 479.9375 205.351562 C 482.488281 212.191406 484.710938 219.699219 488.011719 226.050781 C 489.679688 229.261719 491.519531 232.648438 493.632812 235.523438 C 494.925781 237.289062 497.144531 238.0625 497.492188 240.789062 C 495.324219 243.824219 495.199219 248.523438 493.980469 252.367188 C 488.492188 269.660156 490.5625 291.148438 498.542969 303.945312 C 500.996094 307.875 506.761719 316.300781 514.695312 313.070312 C 521.632812 310.242188 520.054688 301.496094 522.070312 293.773438 C 522.519531 292.015625 522.246094 290.738281 523.125 289.5625 L 523.125 289.914062 L 529.445312 302.542969 C 534.121094 310.070312 542.429688 317.9375 549.460938 323.25 C 553.109375 326 556.011719 330.761719 560.699219 332.371094 L 560.699219 332.019531 L 560.347656 332.019531 C 559.433594 330.59375 558.003906 330.007812 556.832031 328.867188 C 554.085938 326.175781 551.027344 322.828125 548.757812 319.746094 C 542.355469 311.0625 536.703125 301.566406 531.550781 291.675781 C 529.09375 286.953125 526.953125 281.742188 524.882812 276.9375 C 524.085938 275.085938 524.09375 272.285156 522.425781 271.324219 C 520.15625 274.847656 516.808594 277.691406 515.050781 281.851562 C 512.242188 288.496094 511.878906 296.601562 510.839844 305.007812 C 510.222656 305.230469 510.496094 305.078125 510.136719 305.359375 C 505.246094 304.183594 503.527344 299.152344 501.710938 294.835938 C 497.113281 283.914062 496.261719 266.34375 500.304688 253.785156 C 501.347656 250.535156 506.082031 240.296875 504.164062 237.292969 C 503.25 234.296875 500.234375 232.53125 498.546875 230.273438 C 496.464844 227.445312 494.371094 223.714844 492.929688 220.449219 C 489.164062 211.941406 487.410156 202.390625 483.449219 193.78125 C 481.554688 189.671875 478.355469 185.511719 475.726562 181.882812 C 472.8125 177.835938 469.554688 174.847656 467.300781 169.980469 C 466.496094 168.242188 465.40625 165.460938 466.597656 163.664062 C 466.710938 163.140625 466.960938 162.6875 467.34375 162.304688 C 467.722656 161.921875 468.179688 161.675781 468.703125 161.558594 C 470.742188 159.992188 476.417969 162.078125 478.535156 162.964844 C 484.164062 165.300781 488.867188 167.527344 493.636719 170.683594 C 495.929688 172.171875 498.242188 175.132812 501.007812 175.949219 L 504.164062 175.949219 C 509.109375 177.085938 514.644531 176.308594 519.261719 177.703125 C 527.425781 180.183594 534.738281 184.042969 541.382812 188.230469 C 561.625 201 578.171875 219.179688 589.492188 240.890625 C 591.3125 244.378906 592.097656 247.714844 593.703125 251.414062 C 596.941406 258.855469 601.015625 266.566406 604.238281 273.867188 C 607.453125 281.15625 610.578125 288.507812 615.121094 294.570312 C 617.511719 297.753906 626.734375 299.464844 630.925781 301.234375 C 633.863281 302.472656 638.675781 303.769531 641.457031 305.445312 C 646.773438 308.648438 651.925781 312.464844 656.910156 315.976562 C 659.402344 317.730469 667.0625 321.578125 667.445312 324.746094 Z M 667.4375 324.652344 " fill-opacity="1" fill-rule="nonzero"/><path fill="#00618a" d="M 510.496094 190.972656 C 507.921875 190.925781 506.101562 191.253906 504.175781 191.675781 L 504.175781 192.027344 L 504.527344 192.027344 C 505.753906 194.550781 507.921875 196.171875 509.4375 198.34375 L 512.953125 205.710938 L 513.304688 205.359375 C 515.476562 203.828125 516.472656 201.378906 516.460938 197.636719 C 515.585938 196.722656 515.460938 195.574219 514.703125 194.480469 C 513.699219 193.019531 511.726562 192.195312 510.488281 190.96875 Z M 510.496094 190.972656 " fill-opacity="1" fill-rule="evenodd"/><path fill="#e48e00" d="M 659.21875 425.738281 C 659.21875 434.574219 666.207031 440.53125 674.023438 440.53125 C 681.839844 440.53125 688.828125 434.574219 688.828125 425.738281 C 688.828125 416.902344 681.839844 410.945312 674.023438 410.945312 C 666.207031 410.945312 659.21875 416.902344 659.21875 425.738281 Z M 685.507812 425.738281 C 685.507812 432.445312 680.378906 437.453125 674.015625 437.453125 C 667.585938 437.453125 662.523438 432.445312 662.523438 425.738281 C 662.523438 419.03125 667.578125 414.023438 674.015625 414.023438 C 680.375 414.023438 685.507812 419.03125 685.507812 425.738281 Z M 678.007812 434.183594 L 681.320312 434.183594 L 676.46875 426.769531 C 679.074219 426.492188 681.042969 425.226562 681.042969 422.152344 C 681.042969 418.71875 678.871094 417.300781 674.691406 417.300781 L 668.09375 417.300781 L 668.09375 434.183594 L 670.9375 434.183594 L 670.9375 426.886719 L 673.582031 426.886719 L 678.003906 434.183594 Z M 670.9375 424.511719 L 670.9375 419.664062 L 674.214844 419.664062 C 675.910156 419.664062 677.964844 419.980469 677.964844 421.953125 C 677.964844 424.320312 676.109375 424.519531 673.976562 424.519531 L 670.9375 424.519531 Z M 670.9375 424.511719 " fill-opacity="1" fill-rule="evenodd"/></svg>