<svg xmlns="http://www.w3.org/2000/svg" xmlns:xlink="http://www.w3.org/1999/xlink" width="6912" zoomAndPan="magnify" viewBox="0 0 5184 2592.000001" height="3456" preserveAspectRatio="xMidYMid meet" version="1.0"><defs><clipPath id="d21d0d0f75"><path d="M 1303 130.035156 L 1537 130.035156 L 1537 364 L 1303 364 Z M 1303 130.035156 " clip-rule="nonzero"/></clipPath><clipPath id="3e3d92edad"><path d="M 2559 2176 L 2796.304688 2176 L 2796.304688 2307 L 2559 2307 Z M 2559 2176 " clip-rule="nonzero"/></clipPath><clipPath id="8e17ab2511"><path d="M 2854.183594 2154 L 2878 2154 L 2878 2239 L 2854.183594 2239 Z M 2854.183594 2154 " clip-rule="nonzero"/></clipPath><clipPath id="6464b15886"><path d="M 2854.183594 148 L 4583.765625 148 L 4583.765625 1724 L 2854.183594 1724 Z M 2854.183594 148 " clip-rule="nonzero"/></clipPath><clipPath id="ae1c492d0d"><path d="M 4560 2155 L 4583.765625 2155 L 4583.765625 2239 L 4560 2239 Z M 4560 2155 " clip-rule="nonzero"/></clipPath><clipPath id="360982ba40"><path d="M 4289 148 L 4583.765625 148 L 4583.765625 469 L 4289 469 Z M 4289 148 " clip-rule="nonzero"/></clipPath><clipPath id="6a6307cef9"><path d="M 2854.183594 1723 L 4583.765625 1723 L 4583.765625 2298 L 2854.183594 2298 Z M 2854.183594 1723 " clip-rule="nonzero"/></clipPath></defs><path fill="#ffffff" d="M 1 0 L 5183 0 L 5183 2591 L 1 2591 Z M 1 0 " fill-opacity="1" fill-rule="nonzero"/><path fill="#ffffff" d="M 1 0 L 5183 0 L 5183 2591 L 1 2591 Z M 1 0 " fill-opacity="1" fill-rule="nonzero"/><path fill="#0e3f96" d="M 2039.304688 2087.980469 L 769.5 2087.980469 C 756.929688 2087.980469 746.742188 2077.792969 746.742188 2065.226562 L 746.742188 322.902344 C 746.742188 310.332031 756.929688 300.148438 769.5 300.148438 L 2039.300781 300.148438 C 2051.871094 300.148438 2062.058594 310.332031 2062.058594 322.902344 L 2062.058594 2065.226562 C 2062.0625 2077.792969 2051.871094 2087.980469 2039.304688 2087.980469 Z M 2039.304688 2087.980469 " fill-opacity="1" fill-rule="nonzero"/><path fill="#ebf7f6" d="M 833.058594 390.570312 L 1983.964844 390.570312 L 1983.964844 2001.675781 L 833.058594 2001.675781 Z M 833.058594 390.570312 " fill-opacity="1" fill-rule="nonzero"/><path fill="#ea9c34" d="M 1155.730469 250.839844 L 1664.875 250.839844 L 1664.875 456.339844 L 1155.730469 456.339844 Z M 1155.730469 250.839844 " fill-opacity="1" fill-rule="nonzero"/><path fill="#faaf3b" d="M 1155.730469 250.839844 L 1664.875 250.839844 L 1664.875 423.03125 L 1155.730469 423.03125 Z M 1155.730469 250.839844 " fill-opacity="1" fill-rule="nonzero"/><g clip-path="url(#d21d0d0f75)"><path fill="#faaf3b" d="M 1419.550781 130.121094 C 1355.226562 130.121094 1303.082031 182.257812 1303.082031 246.574219 C 1303.082031 310.894531 1355.226562 363.03125 1419.550781 363.03125 C 1483.875 363.03125 1536.015625 310.894531 1536.015625 246.574219 C 1536.015625 182.257812 1483.875 130.121094 1419.550781 130.121094 Z M 1419.609375 292.007812 C 1387.125 292.007812 1360.789062 265.675781 1360.789062 233.195312 C 1360.789062 200.714844 1387.125 174.382812 1419.609375 174.382812 C 1452.09375 174.382812 1478.429688 200.714844 1478.429688 233.195312 C 1478.429688 265.675781 1452.09375 292.007812 1419.609375 292.007812 Z M 1419.609375 292.007812 " fill-opacity="1" fill-rule="nonzero"/></g><path fill="#ffffff" d="M 910.214844 496.191406 L 1917.914062 496.191406 L 1917.914062 742.546875 L 910.214844 742.546875 Z M 910.214844 496.191406 " fill-opacity="1" fill-rule="nonzero"/><path fill="#ffffff" d="M 906.453125 764.742188 L 1914.148438 764.742188 L 1914.148438 1011.09375 L 906.453125 1011.09375 Z M 906.453125 764.742188 " fill-opacity="1" fill-rule="nonzero"/><path fill="#ffffff" d="M 904.664062 1033.28125 L 1912.363281 1033.28125 L 1912.363281 1279.636719 L 904.664062 1279.636719 Z M 904.664062 1033.28125 " fill-opacity="1" fill-rule="nonzero"/><path fill="#ffffff" d="M 904.664062 1301.828125 L 1912.363281 1301.828125 L 1912.363281 1548.183594 L 904.664062 1548.183594 Z M 904.664062 1301.828125 " fill-opacity="1" fill-rule="nonzero"/><path fill="#ffffff" d="M 904.664062 1574.566406 L 1912.363281 1574.566406 L 1912.363281 1820.917969 L 904.664062 1820.917969 Z M 904.664062 1574.566406 " fill-opacity="1" fill-rule="nonzero"/><path stroke-linecap="butt" transform="matrix(0.504581, 0, 0, 0.504532, 315.834543, -74.089536)" fill="none" stroke-linejoin="miter" d="M 1239.552874 1183.111595 L 1600.263845 1183.111595 L 1600.263845 1543.818708 L 1239.552874 1543.818708 Z M 1239.552874 1183.111595 " stroke="#0071bb" stroke-width="4" stroke-opacity="1" stroke-miterlimit="10"/><path stroke-linecap="butt" transform="matrix(0.504581, 0, 0, 0.504532, 315.834543, -74.089536)" fill="none" stroke-linejoin="miter" d="M 1239.552874 1726.367212 L 1600.263845 1726.367212 L 1600.263845 2087.082067 L 1239.552874 2087.082067 Z M 1239.552874 1726.367212 " stroke="#0071bb" stroke-width="4" stroke-opacity="1" stroke-miterlimit="10"/><path stroke-linecap="butt" transform="matrix(0.504581, 0, 0, 0.504532, 315.834543, -74.089536)" fill="none" stroke-linejoin="miter" d="M 1239.552874 2258.636472 L 1600.263845 2258.636472 L 1600.263845 2619.351327 L 1239.552874 2619.351327 Z M 1239.552874 2258.636472 " stroke="#0071bb" stroke-width="4" stroke-opacity="1" stroke-miterlimit="10"/><path stroke-linecap="butt" transform="matrix(0.504581, 0, 0, 0.504532, 315.834543, -74.089536)" fill="none" stroke-linejoin="miter" d="M 1239.552874 2790.89799 L 1600.263845 2790.89799 L 1600.263845 3151.612844 L 1239.552874 3151.612844 Z M 1239.552874 2790.89799 " stroke="#0071bb" stroke-width="4" stroke-opacity="1" stroke-miterlimit="10"/><path stroke-linecap="butt" transform="matrix(0.504581, 0, 0, 0.504532, 315.834543, -74.089536)" fill="none" stroke-linejoin="miter" d="M 1239.552874 3331.482505 L 1600.263845 3331.482505 L 1600.263845 3692.189617 L 1239.552874 3692.189617 Z M 1239.552874 3331.482505 " stroke="#0071bb" stroke-width="4" stroke-opacity="1" stroke-miterlimit="10"/><path fill="#0071bb" d="M 1181.800781 530.863281 L 1162.449219 514.789062 L 1041.074219 660.867188 L 994.335938 619.410156 L 977.636719 638.230469 L 1044.5 696.125 L 1045.089844 695.390625 Z M 1181.800781 530.863281 " fill-opacity="1" fill-rule="nonzero"/><path fill="#0071bb" d="M 1172.179688 798.671875 L 1152.832031 782.597656 L 1031.457031 928.671875 L 984.710938 887.214844 L 968.019531 906.035156 L 1034.882812 963.929688 L 1035.472656 963.199219 Z M 1172.179688 798.671875 " fill-opacity="1" fill-rule="nonzero"/><path fill="#0071bb" d="M 1172.179688 1069.433594 L 1152.832031 1053.359375 L 1031.457031 1199.433594 L 984.710938 1157.984375 L 968.019531 1176.800781 L 1034.882812 1234.691406 L 1035.472656 1233.960938 Z M 1172.179688 1069.433594 " fill-opacity="1" fill-rule="nonzero"/><path fill="#0071bb" d="M 1172.179688 1336.421875 L 1152.832031 1320.339844 L 1031.457031 1466.417969 L 984.710938 1424.964844 L 968.019531 1443.785156 L 1034.882812 1501.675781 L 1035.472656 1500.949219 Z M 1172.179688 1336.421875 " fill-opacity="1" fill-rule="nonzero"/><path fill="#0071bb" d="M 1172.179688 1611.621094 L 1152.832031 1595.546875 L 1031.457031 1741.625 L 984.710938 1700.167969 L 968.019531 1718.988281 L 1034.882812 1776.882812 L 1035.472656 1776.152344 Z M 1172.179688 1611.621094 " fill-opacity="1" fill-rule="nonzero"/><path fill="#ebf7f6" d="M 1203.199219 567.214844 L 1860.199219 567.214844 L 1860.199219 595.328125 L 1203.199219 595.328125 Z M 1203.199219 567.214844 " fill-opacity="1" fill-rule="nonzero"/><path fill="#ebf7f6" d="M 1203.199219 613.820312 L 1860.199219 613.820312 L 1860.199219 641.933594 L 1203.199219 641.933594 Z M 1203.199219 613.820312 " fill-opacity="1" fill-rule="nonzero"/><path fill="#ebf7f6" d="M 1203.199219 660.429688 L 1860.199219 660.429688 L 1860.199219 688.539062 L 1203.199219 688.539062 Z M 1203.199219 660.429688 " fill-opacity="1" fill-rule="nonzero"/><path fill="#ebf7f6" d="M 1207.515625 827.25 L 1864.515625 827.25 L 1864.515625 855.363281 L 1207.515625 855.363281 Z M 1207.515625 827.25 " fill-opacity="1" fill-rule="nonzero"/><path fill="#ebf7f6" d="M 1207.515625 873.859375 L 1864.515625 873.859375 L 1864.515625 901.972656 L 1207.515625 901.972656 Z M 1207.515625 873.859375 " fill-opacity="1" fill-rule="nonzero"/><path fill="#ebf7f6" d="M 1207.515625 920.464844 L 1864.515625 920.464844 L 1864.515625 948.578125 L 1207.515625 948.578125 Z M 1207.515625 920.464844 " fill-opacity="1" fill-rule="nonzero"/><path fill="#ebf7f6" d="M 1211.832031 1087.289062 L 1868.832031 1087.289062 L 1868.832031 1115.398438 L 1211.832031 1115.398438 Z M 1211.832031 1087.289062 " fill-opacity="1" fill-rule="nonzero"/><path fill="#ebf7f6" d="M 1211.832031 1133.894531 L 1868.832031 1133.894531 L 1868.832031 1162.007812 L 1211.832031 1162.007812 Z M 1211.832031 1133.894531 " fill-opacity="1" fill-rule="nonzero"/><path fill="#ebf7f6" d="M 1211.832031 1180.503906 L 1868.832031 1180.503906 L 1868.832031 1208.617188 L 1211.832031 1208.617188 Z M 1211.832031 1180.503906 " fill-opacity="1" fill-rule="nonzero"/><path fill="#ebf7f6" d="M 1216.148438 1347.328125 L 1873.148438 1347.328125 L 1873.148438 1375.441406 L 1216.148438 1375.441406 Z M 1216.148438 1347.328125 " fill-opacity="1" fill-rule="nonzero"/><path fill="#ebf7f6" d="M 1216.148438 1393.933594 L 1873.148438 1393.933594 L 1873.148438 1422.042969 L 1216.148438 1422.042969 Z M 1216.148438 1393.933594 " fill-opacity="1" fill-rule="nonzero"/><path fill="#ebf7f6" d="M 1216.148438 1440.539062 L 1873.148438 1440.539062 L 1873.148438 1468.652344 L 1216.148438 1468.652344 Z M 1216.148438 1440.539062 " fill-opacity="1" fill-rule="nonzero"/><path fill="#ebf7f6" d="M 1220.460938 1607.363281 L 1877.460938 1607.363281 L 1877.460938 1635.476562 L 1220.460938 1635.476562 Z M 1220.460938 1607.363281 " fill-opacity="1" fill-rule="nonzero"/><path fill="#ebf7f6" d="M 1220.460938 1653.972656 L 1877.460938 1653.972656 L 1877.460938 1682.085938 L 1220.460938 1682.085938 Z M 1220.460938 1653.972656 " fill-opacity="1" fill-rule="nonzero"/><path fill="#ebf7f6" d="M 1220.460938 1700.578125 L 1877.460938 1700.578125 L 1877.460938 1728.6875 L 1220.460938 1728.6875 Z M 1220.460938 1700.578125 " fill-opacity="1" fill-rule="nonzero"/><path fill="#eebe6a" d="M 1597.03125 1478.621094 L 1966.808594 1478.621094 L 1966.808594 1783.65625 L 1597.03125 1783.65625 Z M 1597.03125 1478.621094 " fill-opacity="1" fill-rule="nonzero"/><path fill="#eebe6a" d="M 1587.203125 1435.394531 L 1976.527344 1435.394531 L 1976.527344 1490.039062 L 1587.203125 1490.039062 Z M 1587.203125 1435.394531 " fill-opacity="1" fill-rule="nonzero"/><path fill="#e6e7e8" d="M 1597.03125 1509.890625 L 1840.414062 1783.664062 L 1966.808594 1783.664062 L 1966.808594 1490.039062 L 1597.03125 1490.039062 Z M 1597.03125 1509.890625 " fill-opacity="1" fill-rule="nonzero"/><path fill="#cf7f3d" d="M 1626.210938 1435.394531 L 1667.910156 1435.394531 L 1667.910156 1509.890625 L 1626.210938 1509.890625 Z M 1626.210938 1435.394531 " fill-opacity="1" fill-rule="nonzero"/><path fill="#cf7f3d" d="M 1897.386719 1435.394531 L 1939.109375 1435.394531 L 1939.109375 1509.890625 L 1897.386719 1509.890625 Z M 1897.386719 1435.394531 " fill-opacity="1" fill-rule="nonzero"/><path fill="#f1f2f2" d="M 1698.464844 1578.03125 L 1865.375 1578.03125 L 1865.375 1676.285156 L 1698.464844 1676.285156 Z M 1698.464844 1578.03125 " fill-opacity="1" fill-rule="nonzero"/><path stroke-linecap="butt" transform="matrix(0.504581, 0, 0, 0.504532, 315.834543, -74.089536)" fill="none" stroke-linejoin="miter" d="M 2756.096557 3320.782614 L 3051.66217 3320.782614 " stroke="#ed7425" stroke-width="0.75" stroke-opacity="1" stroke-miterlimit="10"/><path stroke-linecap="butt" transform="matrix(0.504581, 0, 0, 0.504532, 315.834543, -74.089536)" fill="none" stroke-linejoin="miter" d="M 2756.096557 3359.300674 L 3051.66217 3359.300674 " stroke="#ed7425" stroke-width="0.75" stroke-opacity="1" stroke-miterlimit="10"/><path stroke-linecap="butt" transform="matrix(0.504581, 0, 0, 0.504532, 315.834543, -74.089536)" fill="none" stroke-linejoin="miter" d="M 2757.768738 3397.818733 L 3053.326609 3397.818733 " stroke="#ed7425" stroke-width="0.75" stroke-opacity="1" stroke-miterlimit="10"/><path fill="#eebe6a" d="M 1200.726562 1478.621094 L 1570.503906 1478.621094 L 1570.503906 1783.65625 L 1200.726562 1783.65625 Z M 1200.726562 1478.621094 " fill-opacity="1" fill-rule="nonzero"/><path fill="#eebe6a" d="M 1190.898438 1435.394531 L 1580.222656 1435.394531 L 1580.222656 1490.039062 L 1190.898438 1490.039062 Z M 1190.898438 1435.394531 " fill-opacity="1" fill-rule="nonzero"/><path fill="#e6e7e8" d="M 1200.726562 1509.890625 L 1444.113281 1783.664062 L 1570.503906 1783.664062 L 1570.503906 1490.039062 L 1200.726562 1490.039062 Z M 1200.726562 1509.890625 " fill-opacity="1" fill-rule="nonzero"/><path fill="#cf7f3d" d="M 1229.902344 1435.394531 L 1271.601562 1435.394531 L 1271.601562 1509.890625 L 1229.902344 1509.890625 Z M 1229.902344 1435.394531 " fill-opacity="1" fill-rule="nonzero"/><path fill="#cf7f3d" d="M 1501.085938 1435.394531 L 1542.808594 1435.394531 L 1542.808594 1509.890625 L 1501.085938 1509.890625 Z M 1501.085938 1435.394531 " fill-opacity="1" fill-rule="nonzero"/><path fill="#f1f2f2" d="M 1302.164062 1578.03125 L 1469.074219 1578.03125 L 1469.074219 1676.285156 L 1302.164062 1676.285156 Z M 1302.164062 1578.03125 " fill-opacity="1" fill-rule="nonzero"/><path stroke-linecap="butt" transform="matrix(0.504581, 0, 0, 0.504532, 315.834543, -74.089536)" fill="none" stroke-linejoin="miter" d="M 1970.690494 3320.782614 L 2266.248365 3320.782614 " stroke="#ed7425" stroke-width="0.75" stroke-opacity="1" stroke-miterlimit="10"/><path stroke-linecap="butt" transform="matrix(0.504581, 0, 0, 0.504532, 315.834543, -74.089536)" fill="none" stroke-linejoin="miter" d="M 1970.690494 3359.300674 L 2266.248365 3359.300674 " stroke="#ed7425" stroke-width="0.75" stroke-opacity="1" stroke-miterlimit="10"/><path stroke-linecap="butt" transform="matrix(0.504581, 0, 0, 0.504532, 315.834543, -74.089536)" fill="none" stroke-linejoin="miter" d="M 1972.362674 3397.818733 L 2267.920545 3397.818733 " stroke="#ed7425" stroke-width="0.75" stroke-opacity="1" stroke-miterlimit="10"/><path fill="#eebe6a" d="M 1999.714844 1478.910156 L 2369.492188 1478.910156 L 2369.492188 1783.945312 L 1999.714844 1783.945312 Z M 1999.714844 1478.910156 " fill-opacity="1" fill-rule="nonzero"/><path fill="#eebe6a" d="M 1989.886719 1435.683594 L 2379.210938 1435.683594 L 2379.210938 1490.328125 L 1989.886719 1490.328125 Z M 1989.886719 1435.683594 " fill-opacity="1" fill-rule="nonzero"/><path fill="#e6e7e8" d="M 1999.714844 1510.175781 L 2243.101562 1783.949219 L 2369.492188 1783.949219 L 2369.492188 1490.328125 L 1999.714844 1490.328125 Z M 1999.714844 1510.175781 " fill-opacity="1" fill-rule="nonzero"/><path fill="#cf7f3d" d="M 2028.890625 1435.683594 L 2070.589844 1435.683594 L 2070.589844 1510.175781 L 2028.890625 1510.175781 Z M 2028.890625 1435.683594 " fill-opacity="1" fill-rule="nonzero"/><path fill="#cf7f3d" d="M 2300.074219 1435.683594 L 2341.796875 1435.683594 L 2341.796875 1510.175781 L 2300.074219 1510.175781 Z M 2300.074219 1435.683594 " fill-opacity="1" fill-rule="nonzero"/><path fill="#f1f2f2" d="M 2101.152344 1578.324219 L 2268.0625 1578.324219 L 2268.0625 1676.574219 L 2101.152344 1676.574219 Z M 2101.152344 1578.324219 " fill-opacity="1" fill-rule="nonzero"/><path stroke-linecap="butt" transform="matrix(0.504581, 0, 0, 0.504532, 315.834543, -74.089536)" fill="none" stroke-linejoin="miter" d="M 3554.160097 3321.347804 L 3849.717968 3321.347804 " stroke="#ed7425" stroke-width="0.75" stroke-opacity="1" stroke-miterlimit="10"/><path stroke-linecap="butt" transform="matrix(0.504581, 0, 0, 0.504532, 315.834543, -74.089536)" fill="none" stroke-linejoin="miter" d="M 3554.160097 3359.873606 L 3849.717968 3359.873606 " stroke="#ed7425" stroke-width="0.75" stroke-opacity="1" stroke-miterlimit="10"/><path stroke-linecap="butt" transform="matrix(0.504581, 0, 0, 0.504532, 315.834543, -74.089536)" fill="none" stroke-linejoin="miter" d="M 3555.832278 3398.391665 L 3851.390149 3398.391665 " stroke="#ed7425" stroke-width="0.75" stroke-opacity="1" stroke-miterlimit="10"/><path fill="#eebe6a" d="M 1598.195312 1833.613281 L 1967.972656 1833.613281 L 1967.972656 2138.648438 L 1598.195312 2138.648438 Z M 1598.195312 1833.613281 " fill-opacity="1" fill-rule="nonzero"/><path fill="#eebe6a" d="M 1588.363281 1790.378906 L 1977.6875 1790.378906 L 1977.6875 1845.023438 L 1588.363281 1845.023438 Z M 1588.363281 1790.378906 " fill-opacity="1" fill-rule="nonzero"/><path fill="#e6e7e8" d="M 1598.195312 1864.871094 L 1841.574219 2138.648438 L 1967.972656 2138.648438 L 1967.972656 1845.023438 L 1598.195312 1845.023438 Z M 1598.195312 1864.871094 " fill-opacity="1" fill-rule="nonzero"/><path fill="#cf7f3d" d="M 1627.371094 1790.378906 L 1669.070312 1790.378906 L 1669.070312 1864.871094 L 1627.371094 1864.871094 Z M 1627.371094 1790.378906 " fill-opacity="1" fill-rule="nonzero"/><path fill="#cf7f3d" d="M 1898.554688 1790.378906 L 1940.277344 1790.378906 L 1940.277344 1864.871094 L 1898.554688 1864.871094 Z M 1898.554688 1790.378906 " fill-opacity="1" fill-rule="nonzero"/><path fill="#f1f2f2" d="M 1699.628906 1933.019531 L 1866.539062 1933.019531 L 1866.539062 2031.273438 L 1699.628906 2031.273438 Z M 1699.628906 1933.019531 " fill-opacity="1" fill-rule="nonzero"/><path stroke-linecap="butt" transform="matrix(0.504581, 0, 0, 0.504532, 315.834543, -74.089536)" fill="none" stroke-linejoin="miter" d="M 2758.411289 4024.381752 L 3053.96916 4024.381752 " stroke="#ed7425" stroke-width="0.75" stroke-opacity="1" stroke-miterlimit="10"/><path stroke-linecap="butt" transform="matrix(0.504581, 0, 0, 0.504532, 315.834543, -74.089536)" fill="none" stroke-linejoin="miter" d="M 2758.411289 4062.892069 L 3053.96916 4062.892069 " stroke="#ed7425" stroke-width="0.75" stroke-opacity="1" stroke-miterlimit="10"/><path stroke-linecap="butt" transform="matrix(0.504581, 0, 0, 0.504532, 315.834543, -74.089536)" fill="none" stroke-linejoin="miter" d="M 2760.083469 4101.410129 L 3055.64134 4101.410129 " stroke="#ed7425" stroke-width="0.75" stroke-opacity="1" stroke-miterlimit="10"/><path fill="#eebe6a" d="M 1201.894531 1833.613281 L 1571.671875 1833.613281 L 1571.671875 2138.648438 L 1201.894531 2138.648438 Z M 1201.894531 1833.613281 " fill-opacity="1" fill-rule="nonzero"/><path fill="#eebe6a" d="M 1192.058594 1790.378906 L 1581.382812 1790.378906 L 1581.382812 1845.023438 L 1192.058594 1845.023438 Z M 1192.058594 1790.378906 " fill-opacity="1" fill-rule="nonzero"/><path fill="#e6e7e8" d="M 1201.894531 1864.871094 L 1445.273438 2138.648438 L 1571.664062 2138.648438 L 1571.664062 1845.023438 L 1201.894531 1845.023438 Z M 1201.894531 1864.871094 " fill-opacity="1" fill-rule="nonzero"/><path fill="#cf7f3d" d="M 1231.066406 1790.378906 L 1272.765625 1790.378906 L 1272.765625 1864.871094 L 1231.066406 1864.871094 Z M 1231.066406 1790.378906 " fill-opacity="1" fill-rule="nonzero"/><path fill="#cf7f3d" d="M 1502.246094 1790.378906 L 1543.96875 1790.378906 L 1543.96875 1864.871094 L 1502.246094 1864.871094 Z M 1502.246094 1790.378906 " fill-opacity="1" fill-rule="nonzero"/><path fill="#f1f2f2" d="M 1303.324219 1933.019531 L 1470.234375 1933.019531 L 1470.234375 2031.273438 L 1303.324219 2031.273438 Z M 1303.324219 1933.019531 " fill-opacity="1" fill-rule="nonzero"/><path stroke-linecap="butt" transform="matrix(0.504581, 0, 0, 0.504532, 315.834543, -74.089536)" fill="none" stroke-linejoin="miter" d="M 1972.989742 4024.381752 L 2268.563096 4024.381752 " stroke="#ed7425" stroke-width="0.75" stroke-opacity="1" stroke-miterlimit="10"/><path stroke-linecap="butt" transform="matrix(0.504581, 0, 0, 0.504532, 315.834543, -74.089536)" fill="none" stroke-linejoin="miter" d="M 1972.989742 4062.892069 L 2268.563096 4062.892069 " stroke="#ed7425" stroke-width="0.75" stroke-opacity="1" stroke-miterlimit="10"/><path stroke-linecap="butt" transform="matrix(0.504581, 0, 0, 0.504532, 315.834543, -74.089536)" fill="none" stroke-linejoin="miter" d="M 1974.661922 4101.410129 L 2270.227535 4101.410129 " stroke="#ed7425" stroke-width="0.75" stroke-opacity="1" stroke-miterlimit="10"/><path fill="#eebe6a" d="M 2000.882812 1833.898438 L 2370.660156 1833.898438 L 2370.660156 2138.933594 L 2000.882812 2138.933594 Z M 2000.882812 1833.898438 " fill-opacity="1" fill-rule="nonzero"/><path fill="#eebe6a" d="M 1991.046875 1790.664062 L 2380.371094 1790.664062 L 2380.371094 1845.3125 L 1991.046875 1845.3125 Z M 1991.046875 1790.664062 " fill-opacity="1" fill-rule="nonzero"/><path fill="#e6e7e8" d="M 2000.882812 1865.160156 L 2244.261719 2138.933594 L 2370.652344 2138.933594 L 2370.652344 1845.3125 L 2000.882812 1845.3125 Z M 2000.882812 1865.160156 " fill-opacity="1" fill-rule="nonzero"/><path fill="#cf7f3d" d="M 2030.058594 1790.664062 L 2071.753906 1790.664062 L 2071.753906 1865.160156 L 2030.058594 1865.160156 Z M 2030.058594 1790.664062 " fill-opacity="1" fill-rule="nonzero"/><path fill="#cf7f3d" d="M 2301.234375 1790.664062 L 2342.957031 1790.664062 L 2342.957031 1865.160156 L 2301.234375 1865.160156 Z M 2301.234375 1790.664062 " fill-opacity="1" fill-rule="nonzero"/><path fill="#f1f2f2" d="M 2102.3125 1933.308594 L 2269.222656 1933.308594 L 2269.222656 2031.558594 L 2102.3125 2031.558594 Z M 2102.3125 1933.308594 " fill-opacity="1" fill-rule="nonzero"/><path stroke-linecap="butt" transform="matrix(0.504581, 0, 0, 0.504532, 315.834543, -74.089536)" fill="none" stroke-linejoin="miter" d="M 3556.459345 4024.946941 L 3852.0327 4024.946941 " stroke="#ed7425" stroke-width="0.75" stroke-opacity="1" stroke-miterlimit="10"/><path stroke-linecap="butt" transform="matrix(0.504581, 0, 0, 0.504532, 315.834543, -74.089536)" fill="none" stroke-linejoin="miter" d="M 3556.459345 4063.457259 L 3852.0327 4063.457259 " stroke="#ed7425" stroke-width="0.75" stroke-opacity="1" stroke-miterlimit="10"/><path stroke-linecap="butt" transform="matrix(0.504581, 0, 0, 0.504532, 315.834543, -74.089536)" fill="none" stroke-linejoin="miter" d="M 3558.131526 4101.983061 L 3853.697138 4101.983061 " stroke="#ed7425" stroke-width="0.75" stroke-opacity="1" stroke-miterlimit="10"/><path fill="#eebe6a" d="M 1503.996094 1129.054688 L 1873.773438 1129.054688 L 1873.773438 1434.085938 L 1503.996094 1434.085938 Z M 1503.996094 1129.054688 " fill-opacity="1" fill-rule="nonzero"/><path fill="#eebe6a" d="M 1494.160156 1085.820312 L 1883.484375 1085.820312 L 1883.484375 1140.464844 L 1494.160156 1140.464844 Z M 1494.160156 1085.820312 " fill-opacity="1" fill-rule="nonzero"/><path fill="#e6e7e8" d="M 1503.996094 1160.3125 L 1747.375 1434.085938 L 1873.769531 1434.085938 L 1873.769531 1140.464844 L 1503.996094 1140.464844 Z M 1503.996094 1160.3125 " fill-opacity="1" fill-rule="nonzero"/><path fill="#cf7f3d" d="M 1533.171875 1085.820312 L 1574.871094 1085.820312 L 1574.871094 1160.3125 L 1533.171875 1160.3125 Z M 1533.171875 1085.820312 " fill-opacity="1" fill-rule="nonzero"/><path fill="#cf7f3d" d="M 1804.347656 1085.820312 L 1846.070312 1085.820312 L 1846.070312 1160.3125 L 1804.347656 1160.3125 Z M 1804.347656 1085.820312 " fill-opacity="1" fill-rule="nonzero"/><path fill="#f1f2f2" d="M 1605.425781 1228.460938 L 1772.335938 1228.460938 L 1772.335938 1326.714844 L 1605.425781 1326.714844 Z M 1605.425781 1228.460938 " fill-opacity="1" fill-rule="nonzero"/><path stroke-linecap="butt" transform="matrix(0.504581, 0, 0, 0.504532, 315.834543, -74.089536)" fill="none" stroke-linejoin="miter" d="M 2571.707711 2627.922079 L 2867.281065 2627.922079 " stroke="#ed7425" stroke-width="0.75" stroke-opacity="1" stroke-miterlimit="10"/><path stroke-linecap="butt" transform="matrix(0.504581, 0, 0, 0.504532, 315.834543, -74.089536)" fill="none" stroke-linejoin="miter" d="M 2571.707711 2666.432396 L 2867.281065 2666.432396 " stroke="#ed7425" stroke-width="0.75" stroke-opacity="1" stroke-miterlimit="10"/><path stroke-linecap="butt" transform="matrix(0.504581, 0, 0, 0.504532, 315.834543, -74.089536)" fill="none" stroke-linejoin="miter" d="M 2573.379891 2704.950456 L 2868.953246 2704.950456 " stroke="#ed7425" stroke-width="0.75" stroke-opacity="1" stroke-miterlimit="10"/><path fill="#eebe6a" d="M 1907.222656 1129.054688 L 2277 1129.054688 L 2277 1434.085938 L 1907.222656 1434.085938 Z M 1907.222656 1129.054688 " fill-opacity="1" fill-rule="nonzero"/><path fill="#eebe6a" d="M 1897.386719 1085.820312 L 2286.710938 1085.820312 L 2286.710938 1140.464844 L 1897.386719 1140.464844 Z M 1897.386719 1085.820312 " fill-opacity="1" fill-rule="nonzero"/><path fill="#e6e7e8" d="M 1907.222656 1160.3125 L 2150.601562 1434.085938 L 2276.992188 1434.085938 L 2276.992188 1140.464844 L 1907.222656 1140.464844 Z M 1907.222656 1160.3125 " fill-opacity="1" fill-rule="nonzero"/><path fill="#cf7f3d" d="M 1936.398438 1085.820312 L 1978.09375 1085.820312 L 1978.09375 1160.3125 L 1936.398438 1160.3125 Z M 1936.398438 1085.820312 " fill-opacity="1" fill-rule="nonzero"/><path fill="#cf7f3d" d="M 2207.574219 1085.820312 L 2249.296875 1085.820312 L 2249.296875 1160.3125 L 2207.574219 1160.3125 Z M 2207.574219 1085.820312 " fill-opacity="1" fill-rule="nonzero"/><path fill="#f1f2f2" d="M 2008.652344 1228.460938 L 2175.5625 1228.460938 L 2175.5625 1326.714844 L 2008.652344 1326.714844 Z M 2008.652344 1228.460938 " fill-opacity="1" fill-rule="nonzero"/><path stroke-linecap="butt" transform="matrix(0.504581, 0, 0, 0.504532, 315.834543, -74.089536)" fill="none" stroke-linejoin="miter" d="M 3370.839588 2627.922079 L 3666.412943 2627.922079 " stroke="#ed7425" stroke-width="0.75" stroke-opacity="1" stroke-miterlimit="10"/><path stroke-linecap="butt" transform="matrix(0.504581, 0, 0, 0.504532, 315.834543, -74.089536)" fill="none" stroke-linejoin="miter" d="M 3370.839588 2666.432396 L 3666.412943 2666.432396 " stroke="#ed7425" stroke-width="0.75" stroke-opacity="1" stroke-miterlimit="10"/><path stroke-linecap="butt" transform="matrix(0.504581, 0, 0, 0.504532, 315.834543, -74.089536)" fill="none" stroke-linejoin="miter" d="M 3372.511769 2704.950456 L 3668.077381 2704.950456 " stroke="#ed7425" stroke-width="0.75" stroke-opacity="1" stroke-miterlimit="10"/><path fill="#c0272d" d="M 2205.929688 2237.097656 C 2194.601562 2238.429688 2137.957031 2235.097656 2147.953125 2255.085938 C 2157.949219 2275.078125 2213.925781 2303.0625 2267.902344 2295.066406 C 2321.875 2287.070312 2327.542969 2282.410156 2343.367188 2282.410156 C 2359.191406 2282.410156 2384.515625 2277.746094 2384.515625 2277.746094 C 2384.515625 2277.746094 2383.183594 2208.449219 2372.519531 2204.453125 L 2297.886719 2211.117188 C 2297.886719 2211.105469 2217.257812 2235.765625 2205.929688 2237.097656 Z M 2205.929688 2237.097656 " fill-opacity="1" fill-rule="nonzero"/><g clip-path="url(#3e3d92edad)"><path fill="#c0272d" d="M 2685.714844 2196.421875 C 2685.714844 2196.421875 2631.410156 2263.078125 2600.425781 2271.078125 C 2569.4375 2279.074219 2543.449219 2294.199219 2572.4375 2305.128906 C 2601.421875 2316.054688 2761.855469 2261.140625 2767.351562 2259.117188 C 2774.683594 2256.417969 2796.339844 2243.09375 2796.339844 2243.09375 L 2752.371094 2176.816406 Z M 2685.714844 2196.421875 " fill-opacity="1" fill-rule="nonzero"/></g><path fill="#dd4c1f" d="M 2459.085938 1473.390625 C 2459.085938 1473.390625 2267.90625 1792.664062 2267.90625 1796.660156 C 2267.90625 1800.65625 2285.898438 2174.457031 2291.894531 2174.457031 C 2297.894531 2174.457031 2377.355469 2174.457031 2377.355469 2174.457031 C 2377.355469 2174.457031 2453.824219 1953.109375 2415.839844 1838.902344 L 2509.796875 1758.679688 Z M 2459.085938 1473.390625 " fill-opacity="1" fill-rule="nonzero"/><path fill="#f05a24" d="M 2450.492188 1473.828125 C 2450.492188 1473.828125 2475.8125 1818.648438 2485.808594 1830.640625 C 2495.804688 1842.632812 2673.730469 2177.121094 2673.730469 2177.121094 L 2742.652344 2152.714844 C 2742.652344 2152.714844 2679.730469 1880.609375 2657.734375 1830.640625 C 2635.746094 1780.667969 2693.746094 1461.367188 2693.746094 1461.367188 Z M 2450.492188 1473.828125 " fill-opacity="1" fill-rule="nonzero"/><path fill="#e24c1e" d="M 2460.039062 1536.042969 L 2683.035156 1524.160156 L 2686.871094 1501.027344 L 2454.113281 1511.882812 L 2455.242188 1536.042969 Z M 2460.039062 1536.042969 " fill-opacity="1" fill-rule="nonzero"/><path fill="#c63d18" d="M 2428.035156 1525.308594 L 2455.242188 1536.042969 L 2453.824219 1517.78125 L 2454.113281 1511.882812 L 2438.773438 1507.339844 Z M 2428.035156 1525.308594 " fill-opacity="1" fill-rule="nonzero"/><path fill="#f4a67a" d="M 2379.851562 781.199219 C 2379.851562 781.199219 2375.855469 810.515625 2379.851562 824.507812 C 2383.847656 838.496094 2357.863281 854.492188 2362.523438 861.824219 C 2367.1875 869.152344 2391.179688 867.15625 2391.179688 867.15625 C 2391.179688 867.15625 2379.851562 919.128906 2391.179688 933.789062 C 2402.507812 948.445312 2449.15625 949.78125 2454.484375 947.113281 C 2459.816406 944.449219 2458.480469 1000.417969 2458.480469 1000.417969 C 2476.132812 996.144531 2493.78125 991.871094 2511.433594 987.597656 C 2523.132812 984.765625 2534.835938 981.929688 2546.535156 979.101562 C 2559.386719 975.988281 2572.238281 972.878906 2585.09375 969.765625 L 2569.101562 916.464844 C 2569.101562 916.464844 2591.089844 875.816406 2592.421875 843.835938 C 2593.753906 811.855469 2577.765625 771.875 2577.765625 771.875 C 2533.84375 760.960938 2397.503906 729.300781 2380.535156 765.367188 C 2378.667969 769.339844 2378.089844 774.472656 2379.851562 781.199219 Z M 2379.851562 781.199219 " fill-opacity="1" fill-rule="nonzero"/><path fill="#e59973" d="M 2432.730469 805.496094 C 2447.597656 817.222656 2458.585938 834.464844 2460.519531 853.300781 C 2460.851562 856.550781 2460.921875 859.8125 2460.988281 863.078125 C 2461.007812 863.941406 2461.058594 864.894531 2461.671875 865.511719 C 2462.132812 865.980469 2462.824219 866.140625 2463.476562 866.261719 C 2470.738281 867.625 2479.457031 866.464844 2483.464844 860.257812 C 2484.730469 858.296875 2485.394531 856.011719 2486.097656 853.78125 C 2488.351562 846.636719 2491.269531 839.578125 2495.929688 833.714844 C 2500.59375 827.851562 2507.203125 823.257812 2514.625 822.25 C 2513.847656 817.523438 2508.902344 814.859375 2504.53125 812.914062 C 2489.023438 806.011719 2473.460938 799.234375 2457.84375 792.589844 C 2438.277344 784.265625 2417.921875 775.910156 2396.40625 774.902344 C 2392.59375 774.726562 2372.371094 774.382812 2379.949219 782.328125 C 2384.765625 787.382812 2397.9375 787.914062 2404.308594 790.160156 C 2414.5 793.761719 2424.230469 798.792969 2432.730469 805.496094 Z M 2432.730469 805.496094 " fill-opacity="1" fill-rule="nonzero"/><path fill="#42210b" d="M 2439.4375 798.726562 C 2446.261719 802.636719 2453.179688 806.621094 2458.664062 812.257812 C 2471.417969 825.363281 2474.328125 844.886719 2476.605469 863.03125 C 2480.734375 862.835938 2484.859375 862.632812 2488.992188 862.4375 C 2494.460938 854.703125 2490.628906 843.582031 2494.367188 834.886719 C 2498.65625 824.90625 2512.8125 821.625 2522.089844 827.292969 C 2531.363281 832.957031 2535.222656 845.273438 2532.785156 855.859375 C 2529.769531 868.964844 2518.554688 881.308594 2522.804688 894.070312 C 2525.691406 902.75 2534.769531 907.609375 2543.292969 910.929688 C 2555.21875 915.582031 2569.296875 918.765625 2580.347656 912.300781 C 2588.90625 907.296875 2592.761719 899.429688 2595.546875 893.285156 C 2607.507812 866.902344 2597.660156 837.878906 2592.507812 822.691406 C 2588.699219 811.460938 2586.613281 805.316406 2581.765625 798.191406 C 2575.992188 789.710938 2559.914062 770.445312 2498.539062 760.25 C 2457.132812 753.375 2399.304688 751.304688 2397.253906 763.195312 C 2394.503906 779.175781 2429.160156 792.832031 2439.4375 798.726562 Z M 2439.4375 798.726562 " fill-opacity="1" fill-rule="nonzero"/><path fill="#f6921e" d="M 2598.988281 810.445312 L 2598.53125 811.429688 C 2596.542969 815.636719 2594.5 819.410156 2592.511719 822.6875 L 2417.359375 776.773438 L 2394.035156 770.652344 L 2372.855469 765.113281 C 2372.855469 758.085938 2374.367188 750.859375 2377.164062 743.730469 C 2377.238281 743.554688 2377.289062 743.402344 2377.363281 743.226562 L 2377.390625 743.226562 C 2377.820312 742.167969 2378.273438 741.113281 2378.753906 740.054688 C 2379.382812 738.640625 2380.0625 737.257812 2380.816406 735.871094 C 2400.738281 698.066406 2455.121094 665.429688 2506.476562 676.761719 C 2624.804688 702.933594 2616.320312 772.445312 2598.988281 810.445312 Z M 2598.988281 810.445312 " fill-opacity="1" fill-rule="nonzero"/><path fill="#f6921e" d="M 2425.949219 774.835938 C 2423.863281 775.464844 2420.914062 776.121094 2417.363281 776.773438 C 2404.363281 779.242188 2383.660156 781.707031 2370.359375 782.691406 C 2322.101562 786.292969 2275.730469 770.929688 2276.363281 763.195312 C 2276.4375 762.289062 2277.144531 761.484375 2283.921875 759.820312 C 2291.101562 758.085938 2305.105469 755.410156 2332.382812 750.703125 C 2350.871094 747.53125 2366.359375 744.988281 2377.363281 743.222656 L 2377.390625 743.222656 C 2386.507812 751.859375 2405.527344 760.320312 2418.320312 768.914062 C 2421.261719 770.878906 2423.855469 772.847656 2425.949219 774.835938 Z M 2425.949219 774.835938 " fill-opacity="1" fill-rule="nonzero"/><path fill="#faaf3b" d="M 2461.816406 1005.078125 L 2440.835938 1140.019531 L 2430.152344 1143.667969 L 2392.503906 1156.488281 L 2352.855469 1169.992188 L 2301.875 1075.269531 L 2403.859375 1030.511719 Z M 2461.816406 1005.078125 " fill-opacity="1" fill-rule="nonzero"/><path fill="#f4a67a" d="M 2293.890625 1079.175781 L 1953.039062 1197.976562 C 1953.039062 1197.976562 1842.085938 1226.109375 1842.085938 1239.03125 C 1842.085938 1251.953125 1928.046875 1228.550781 1934.046875 1232.753906 C 1940.042969 1236.957031 1926.046875 1241.519531 1961.035156 1262.507812 C 1996.019531 1283.496094 2021.835938 1235.175781 2021.835938 1235.175781 L 2349.664062 1164.046875 L 2301.882812 1075.265625 Z M 2293.890625 1079.175781 " fill-opacity="1" fill-rule="nonzero"/><path fill="#ed9a2e" d="M 2461.816406 1005.078125 C 2460.28125 1011.097656 2456.125 1016.386719 2452.597656 1021.679688 C 2440.128906 1040.441406 2434.5625 1063.007812 2432.246094 1085.394531 C 2430.261719 1104.738281 2430.589844 1124.230469 2430.160156 1143.675781 L 2392.503906 1156.496094 C 2393.359375 1119.445312 2399.179688 1083.535156 2401.972656 1046.511719 C 2402.476562 1039.988281 2402.65625 1034.976562 2403.859375 1030.519531 Z M 2461.816406 1005.078125 " fill-opacity="1" fill-rule="nonzero"/><path fill="#f6921e" d="M 2705.578125 1498.222656 C 2705.578125 1498.222656 2433.832031 1540.886719 2438.765625 1507.339844 C 2439.222656 1504.394531 2443.777344 1446.367188 2445.519531 1392.796875 C 2446.25 1369.699219 2446.476562 1347.441406 2445.621094 1330.765625 C 2445.59375 1330.511719 2445.59375 1330.261719 2445.570312 1330.007812 C 2442.570312 1275.054688 2405.015625 1209.621094 2411.011719 1116.691406 C 2417.003906 1023.730469 2458.484375 1000.414062 2458.484375 1000.414062 L 2585.105469 969.761719 C 2671.402344 999.414062 2705.578125 1498.222656 2705.578125 1498.222656 Z M 2705.578125 1498.222656 " fill-opacity="1" fill-rule="nonzero"/><path fill="#e07e1b" d="M 2586.867188 1299.144531 C 2583.507812 1298.753906 2580.152344 1298.355469 2576.789062 1297.960938 C 2566.621094 1316.023438 2542.421875 1352.832031 2496.476562 1375.980469 C 2477.574219 1385.5 2459.777344 1390.304688 2445.523438 1392.808594 C 2446.253906 1369.710938 2446.480469 1347.449219 2445.625 1330.773438 C 2501.492188 1313.347656 2552.269531 1273.882812 2572.667969 1219.15625 C 2579.394531 1201.152344 2582.695312 1182.058594 2588.359375 1163.671875 C 2593.21875 1147.832031 2599.871094 1132.34375 2601.914062 1115.875 C 2605.917969 1083.792969 2591.035156 1057.066406 2568.742188 1035.609375 C 2577.050781 1036.582031 2592.976562 1039.667969 2606.703125 1051.679688 C 2622.886719 1065.839844 2627.019531 1084.558594 2629.265625 1094.714844 C 2637.617188 1132.542969 2623.296875 1208.273438 2586.867188 1299.144531 Z M 2586.867188 1299.144531 " fill-opacity="1" fill-rule="nonzero"/><path fill="#faaf3b" d="M 2491.804688 1065.046875 C 2476.390625 1121.035156 2460.980469 1177.023438 2445.5625 1233.011719 C 2482.300781 1249.652344 2519.035156 1266.296875 2555.773438 1282.933594 C 2578.460938 1225.640625 2601.144531 1168.339844 2623.832031 1111.046875 C 2624.441406 1080.5 2606.859375 1052.707031 2579.765625 1041.0625 C 2549.421875 1028.015625 2512.855469 1037.691406 2491.804688 1065.046875 Z M 2491.804688 1065.046875 " fill-opacity="1" fill-rule="nonzero"/><path fill="#1a1a1a" d="M 2101.152344 1080.609375 L 2054.882812 1166.652344 C 2054.042969 1168.203125 2054.886719 1170.132812 2056.597656 1170.570312 L 2297.289062 1232.667969 C 2298.90625 1233.085938 2300.523438 1231.953125 2300.671875 1230.289062 L 2308.445312 1146.140625 C 2308.558594 1144.871094 2307.777344 1143.683594 2306.558594 1143.300781 L 2104.359375 1079.3125 C 2103.121094 1078.90625 2101.769531 1079.457031 2101.152344 1080.609375 Z M 2101.152344 1080.609375 " fill-opacity="1" fill-rule="nonzero"/><path fill="#333333" d="M 2102.726562 1076.703125 L 2056.464844 1162.71875 C 2055.628906 1164.277344 2056.472656 1166.214844 2058.1875 1166.65625 L 2298.851562 1228.742188 C 2300.480469 1229.160156 2302.101562 1228.027344 2302.253906 1226.351562 L 2310.023438 1142.226562 C 2310.140625 1140.949219 2309.351562 1139.757812 2308.125 1139.371094 L 2105.949219 1075.386719 C 2104.703125 1074.996094 2103.347656 1075.546875 2102.726562 1076.703125 Z M 2102.726562 1076.703125 " fill-opacity="1" fill-rule="nonzero"/><path fill="#f4a67a" d="M 2452.695312 1236.242188 L 2445.570312 1251.953125 L 2216.921875 1198.980469 C 2216.921875 1198.980469 2169.941406 1120.023438 2157.949219 1130.015625 C 2145.953125 1140.011719 2159.945312 1162.996094 2157.949219 1168.996094 C 2155.949219 1174.996094 2129.105469 1186.378906 2116.214844 1184.738281 C 2102.46875 1182.988281 2070.574219 1174.882812 2070.574219 1174.882812 C 2070.574219 1174.882812 2075.980469 1191.984375 2112.964844 1214.96875 C 2149.949219 1237.957031 2207.921875 1219.96875 2207.921875 1226.960938 C 2207.921875 1233.957031 2436.824219 1353.898438 2481.804688 1352.894531 C 2526.78125 1351.890625 2546.429688 1278.695312 2546.429688 1278.695312 Z M 2452.695312 1236.242188 " fill-opacity="1" fill-rule="nonzero"/><path fill="#f4a67a" d="M 2297.886719 2174.464844 L 2297.886719 2211.105469 L 2372.527344 2204.449219 L 2372.859375 2174.464844 Z M 2297.886719 2174.464844 " fill-opacity="1" fill-rule="nonzero"/><path fill="#f4a67a" d="M 2677.445312 2175.808594 L 2687.304688 2195.957031 L 2750.894531 2177.128906 L 2739.476562 2153.84375 Z M 2677.445312 2175.808594 " fill-opacity="1" fill-rule="nonzero"/><path fill="#e59973" d="M 2454.488281 947.109375 C 2454.488281 947.109375 2492.191406 941.21875 2495.75 918.109375 C 2495.953125 923.898438 2495.515625 930.730469 2493.660156 938.144531 C 2486.925781 965.023438 2466.265625 980.179688 2458.636719 985.222656 C 2457.25 972.515625 2455.871094 959.8125 2454.488281 947.109375 Z M 2454.488281 947.109375 " fill-opacity="1" fill-rule="nonzero"/><path fill="#ea821b" d="M 2599.0625 810.195312 L 2598.988281 810.445312 C 2596.871094 815.027344 2594.652344 819.160156 2592.511719 822.6875 L 2417.359375 776.773438 C 2404.359375 779.242188 2383.65625 781.707031 2370.355469 782.691406 C 2322.097656 786.292969 2275.726562 770.929688 2276.359375 763.195312 C 2276.433594 762.289062 2277.140625 761.484375 2283.917969 759.820312 C 2285.953125 762.113281 2293.941406 769.667969 2325.953125 771.882812 C 2344.84375 773.195312 2373.632812 771.910156 2394.035156 770.648438 C 2408.191406 769.789062 2418.316406 768.914062 2418.316406 768.914062 Z M 2599.0625 810.195312 " fill-opacity="1" fill-rule="nonzero"/><path fill="#f9a55a" d="M 2598.988281 810.445312 L 2598.53125 811.429688 C 2598.382812 811.429688 2598.253906 811.453125 2598.105469 811.480469 C 2600.570312 789.140625 2597.347656 766.199219 2588.835938 745.398438 C 2585.660156 737.710938 2581.730469 730.234375 2576.0625 724.164062 C 2570.597656 718.296875 2563.695312 713.9375 2556.894531 709.6875 C 2546.816406 703.363281 2536.621094 696.992188 2525.308594 693.339844 C 2503.847656 686.4375 2480.375 690.015625 2458.738281 696.359375 C 2441.511719 701.421875 2424.785156 708.171875 2408.890625 716.53125 C 2402.339844 719.957031 2395.84375 723.761719 2390.328125 728.722656 C 2387.65625 731.113281 2384.558594 735.699219 2380.804688 735.875 C 2400.726562 698.070312 2455.109375 665.433594 2506.464844 676.765625 C 2624.804688 702.933594 2616.320312 772.445312 2598.988281 810.445312 Z M 2598.988281 810.445312 " fill-opacity="1" fill-rule="nonzero"/><path fill="#ea821b" d="M 2423.804688 768.238281 C 2417.207031 766.171875 2410.605469 764.105469 2403.988281 762.042969 C 2399.050781 760.507812 2394.085938 758.941406 2389.554688 756.476562 C 2385.195312 754.109375 2378.347656 749.347656 2377.164062 743.730469 C 2377.238281 743.554688 2377.289062 743.402344 2377.363281 743.226562 L 2377.390625 743.226562 C 2377.820312 742.167969 2378.273438 741.113281 2378.753906 740.054688 C 2379.710938 741.5625 2379.585938 743.554688 2380.789062 745.316406 C 2382.578125 747.933594 2385.472656 749.550781 2388.324219 750.832031 C 2399.152344 755.664062 2411.046875 758.210938 2421.269531 764.230469 C 2422.75 765.113281 2424.410156 766.628906 2423.804688 768.238281 Z M 2423.804688 768.238281 " fill-opacity="1" fill-rule="nonzero"/><path fill="#f7b19f" d="M 756.273438 1232.230469 L 970.820312 1147.160156 C 970.820312 1147.160156 1012.398438 1093.367188 1012.398438 1114.988281 C 1012.398438 1136.605469 975.8125 1167.371094 975.8125 1167.371094 C 975.8125 1167.371094 996 1208.113281 970.820312 1219.757812 C 945.640625 1231.398438 919.261719 1212.988281 919.261719 1212.988281 C 919.261719 1212.988281 723.011719 1346.304688 701.390625 1328.761719 C 679.769531 1311.21875 673.730469 1272.8125 673.730469 1272.8125 Z M 756.273438 1232.230469 " fill-opacity="1" fill-rule="nonzero"/><path fill="#f7b19f" d="M 521.230469 1035.203125 C 508.757812 1034.3125 429.480469 1190.21875 446.257812 1222.175781 C 473.949219 1274.917969 548.742188 1359.019531 548.742188 1359.019531 L 554.769531 1284.09375 L 509.421875 1214.355469 L 556.824219 1171.023438 Z M 521.230469 1035.203125 " fill-opacity="1" fill-rule="nonzero"/><path fill="#af232d" d="M 579.714844 2114.644531 C 579.714844 2114.644531 647.902344 2155.109375 678.671875 2154.417969 C 709.441406 2153.726562 741.871094 2162.875 716.09375 2177.839844 C 690.3125 2192.804688 498.21875 2188.644531 497.386719 2177.839844 C 496.554688 2167.03125 496.554688 2111.320312 496.554688 2111.320312 Z M 579.714844 2114.644531 " fill-opacity="1" fill-rule="nonzero"/><path fill="#c0272d" d="M 742.90625 2114.644531 C 742.90625 2114.644531 824.199219 2153.726562 851.644531 2150.402344 C 879.089844 2147.078125 900.703125 2179.503906 863.285156 2190.316406 C 825.863281 2201.121094 666.199219 2186.15625 666.199219 2183.664062 C 666.199219 2181.171875 667.03125 2114.652344 671.191406 2114.652344 C 687.820312 2114.644531 742.90625 2114.644531 742.90625 2114.644531 Z M 742.90625 2114.644531 " fill-opacity="1" fill-rule="nonzero"/><path fill="#e04c1e" d="M 468.96875 1328.761719 C 468.96875 1328.761719 441.671875 1392.90625 454.976562 1450.277344 C 482.492188 1568.929688 506.566406 1619.765625 503.210938 1746.417969 C 502.210938 1784.113281 497.761719 1782.40625 491.570312 1840.246094 C 479.273438 1955.101562 487.472656 2049.09375 496.558594 2111.3125 C 524.28125 2112.421875 552 2113.53125 579.714844 2114.636719 C 598.011719 1944.457031 616.300781 1774.277344 634.597656 1604.101562 C 617.628906 1585.882812 553.019531 1512.371094 564.746094 1418.675781 C 567.050781 1400.269531 571.964844 1383.75 578.050781 1369.265625 Z M 468.96875 1328.761719 " fill-opacity="1" fill-rule="nonzero"/><path fill="#f05a24" d="M 677.007812 1372.953125 C 677.007812 1372.953125 754.34375 1629.054688 772.640625 1692.246094 C 790.9375 1755.4375 742.90625 2114.644531 742.90625 2114.644531 L 671.191406 2114.644531 C 671.191406 2114.644531 632.9375 1928.394531 657.886719 1853.554688 C 682.832031 1778.722656 681.171875 1755.4375 681.171875 1755.4375 C 681.171875 1755.4375 440.195312 1490.242188 451.355469 1418.683594 C 462.515625 1347.125 468.976562 1328.761719 468.976562 1328.761719 Z M 677.007812 1372.953125 " fill-opacity="1" fill-rule="nonzero"/><path fill="#e27e1a" d="M 465.085938 1131.703125 L 503.765625 1190.800781 L 550.332031 1181.433594 L 498.800781 1036.097656 Z M 465.085938 1131.703125 " fill-opacity="1" fill-rule="nonzero"/><path fill="#f6921e" d="M 709.390625 1073.421875 C 700.25 1042.632812 617.972656 999.828125 617.972656 999.828125 L 545.898438 999.828125 C 523.230469 1003.570312 512.015625 1013.46875 505.984375 1021.667969 C 481.597656 1054.769531 512.085938 1100.117188 503.769531 1190.796875 C 500.894531 1222.128906 495.148438 1247.621094 491.496094 1261.753906 C 476.71875 1318.792969 459.382812 1337.875 457.875 1354.976562 C 457.660156 1357.472656 457.777344 1359.902344 458.296875 1362.425781 C 463.410156 1387.65625 507.519531 1416.679688 693.0625 1426.152344 C 689.695312 1410.699219 684.792969 1387.894531 678.949219 1359.644531 C 673.910156 1335.234375 671.363281 1322.277344 672.941406 1304.585938 C 674.285156 1289.554688 678.03125 1277.375 681.167969 1269.152344 C 690.328125 1269.152344 705.765625 1265.171875 720.585938 1258.570312 C 735.429688 1251.953125 749.613281 1242.738281 756.277344 1232.234375 C 756.277344 1232.234375 718.554688 1104.1875 709.390625 1073.421875 Z M 709.390625 1073.421875 " fill-opacity="1" fill-rule="nonzero"/><path fill="#f7b19f" d="M 720.300781 851.570312 L 717.917969 877.460938 C 709.578125 903.023438 706.023438 923.96875 704.347656 938.578125 C 702.695312 952.757812 702.765625 961.355469 696.570312 969.605469 C 685.945312 983.761719 665.164062 985.886719 650.558594 985.695312 C 650.582031 986.117188 650.582031 986.566406 650.605469 986.992188 C 650.886719 996.648438 651.144531 1006.308594 651.425781 1015.96875 C 651.523438 1019.476562 651.636719 1022.964844 651.734375 1026.476562 C 651.734375 1026.476562 605.132812 1067.160156 567.621094 1026.476562 C 567.621094 1026.476562 568.917969 981.289062 567.621094 931.136719 C 566.324219 881 559.84375 847.355469 579.261719 833.128906 C 598.675781 818.890625 680.199219 794.957031 720.300781 851.570312 Z M 720.300781 851.570312 " fill-opacity="1" fill-rule="nonzero"/><path fill="#e89b8b" d="M 717.917969 877.457031 L 717.355469 883.628906 C 717.101562 883.59375 716.71875 883.539062 716.25 883.488281 C 704.664062 882.261719 695.136719 889.164062 688.917969 893.804688 C 673.769531 905.109375 664.847656 921.113281 661.230469 928.328125 C 661.347656 925.046875 662.421875 904.226562 680.132812 889.46875 C 696.019531 876.226562 714.140625 877.175781 717.917969 877.457031 Z M 717.917969 877.457031 " fill-opacity="1" fill-rule="nonzero"/><path fill="#42210b" d="M 515.210938 880.347656 C 513.9375 880.621094 492.914062 885.359375 476.386719 901.699219 C 440.894531 936.800781 452.117188 999.796875 456.621094 1025.105469 C 465.335938 1074.042969 488.574219 1110.09375 506.117188 1131.902344 C 511.101562 1098.441406 511.398438 1071.027344 510.679688 1051.792969 C 508.960938 1005.960938 500.542969 982.078125 514.558594 957.984375 C 524.714844 940.53125 541.78125 931.335938 554.671875 926.285156 C 559.171875 941.164062 563.675781 956.042969 568.175781 970.921875 C 578.988281 973.945312 589.796875 976.960938 600.609375 979.984375 C 621.210938 957.039062 626.851562 938.117188 628.039062 924.792969 C 628.71875 917.144531 628.558594 906.886719 634.78125 902.941406 C 641.304688 898.804688 650.511719 902.339844 655.015625 908.621094 C 659.515625 914.902344 660.4375 923 660.835938 930.714844 C 664.460938 905.273438 684.492188 882.945312 709.398438 876.605469 C 674.273438 873.21875 639.148438 869.828125 604.03125 866.445312 C 602.214844 866.265625 597.769531 865.484375 592.023438 866.4375 C 578.386719 868.703125 568.8125 878.359375 563.148438 885.585938 C 556.15625 882.503906 537.757812 875.550781 515.210938 880.347656 Z M 515.210938 880.347656 " fill-opacity="1" fill-rule="nonzero"/><path fill="#f6921e" d="M 725.484375 879.699219 L 564.394531 879.699219 L 564.394531 863.628906 C 564.394531 823.648438 596.816406 791.253906 636.796875 791.253906 L 637.035156 791.253906 C 679.515625 791.253906 715.023438 821.222656 723.53125 861.175781 C 724.023438 863.460938 724.421875 865.773438 724.730469 868.128906 C 725.226562 871.921875 725.484375 875.789062 725.484375 879.699219 Z M 725.484375 879.699219 " fill-opacity="1" fill-rule="nonzero"/><path fill="#e5801a" d="M 678.949219 1359.640625 C 684.792969 1387.886719 689.695312 1410.691406 693.0625 1426.144531 C 507.519531 1416.675781 463.414062 1387.652344 458.296875 1362.417969 C 457.777344 1359.894531 457.660156 1357.46875 457.875 1354.972656 C 459.3125 1355.371094 460.726562 1355.820312 462.066406 1356.292969 C 554.441406 1388.695312 602.441406 1400.097656 616.109375 1391.445312 C 638.050781 1377.554688 634.597656 1335.316406 629.496094 1272.824219 C 624.664062 1213.613281 610.015625 1170.277344 628.078125 1125.441406 C 630.894531 1118.453125 639.5625 1096.21875 651.203125 1096.988281 C 657.121094 1097.382812 663.21875 1101.867188 668.25 1112.226562 C 687.171875 1151.101562 706.230469 1190.394531 715.839844 1232.566406 C 717.820312 1241.164062 719.351562 1249.859375 720.578125 1258.578125 C 705.757812 1265.171875 690.324219 1269.15625 681.160156 1269.15625 C 678.027344 1277.378906 674.285156 1289.558594 672.9375 1304.589844 C 671.363281 1322.277344 673.910156 1335.234375 678.949219 1359.640625 Z M 678.949219 1359.640625 " fill-opacity="1" fill-rule="nonzero"/><path fill="#f6921e" d="M 725.484375 879.699219 L 713.84375 869.992188 C 713.84375 869.992188 714.292969 869.542969 715.140625 868.765625 C 716.695312 867.28125 719.664062 864.570312 723.527344 861.175781 C 736.414062 849.984375 759.527344 831.65625 776.632812 827.957031 C 783.984375 826.378906 790.226562 827.535156 794.066406 833.121094 C 810.894531 857.714844 725.484375 879.699219 725.484375 879.699219 Z M 725.484375 879.699219 " fill-opacity="1" fill-rule="nonzero"/><path fill="#faaf3b" d="M 709.402344 1073.414062 C 709.402344 1073.414062 698.058594 1052.625 679.761719 1058.863281 C 661.46875 1065.097656 621.03125 1095.03125 634.597656 1124.964844 C 648.167969 1154.898438 676.320312 1284.570312 676.320312 1284.570312 C 676.320312 1284.570312 731.320312 1264.65625 756.269531 1232.230469 Z M 709.402344 1073.414062 " fill-opacity="1" fill-rule="nonzero"/><path fill="#e5801a" d="M 725.484375 879.699219 L 564.394531 879.699219 L 564.394531 866.246094 C 566.867188 866.601562 569.4375 867.050781 572.195312 867.449219 C 583.953125 869.121094 596.960938 867.800781 608.859375 867.96875 C 633.105469 868.320312 657.324219 868.675781 681.570312 869.027344 C 692.734375 869.195312 704 869.335938 715.144531 868.769531 C 718.347656 868.628906 721.554688 868.417969 724.730469 868.132812 C 734.273438 867.285156 743.699219 865.777344 752.914062 863.210938 C 760.714844 861.019531 768.488281 857.957031 774.492188 852.539062 C 780.523438 847.121094 784.554688 838.96875 783.355469 830.960938 C 780.925781 830.464844 778.640625 829.453125 776.636719 827.96875 C 783.988281 826.390625 790.230469 827.542969 794.070312 833.128906 C 810.894531 857.714844 725.484375 879.699219 725.484375 879.699219 Z M 725.484375 879.699219 " fill-opacity="1" fill-rule="nonzero"/><path fill="#f9b673" d="M 582.476562 839.257812 C 583.097656 836.117188 587.414062 816.089844 607.046875 804.417969 C 627.164062 792.453125 647.363281 798.78125 650.316406 799.765625 C 643.652344 799.558594 626.824219 799.925781 609.433594 810.523438 C 593.535156 820.207031 585.609375 833.304688 582.476562 839.257812 Z M 582.476562 839.257812 " fill-opacity="1" fill-rule="nonzero"/><path fill="#e89b8b" d="M 651.429688 1015.960938 C 649.261719 1015.632812 647.140625 1015.089844 645.191406 1014.125 C 640.429688 1011.792969 637.085938 1007.199219 635.171875 1002.253906 C 633.265625 997.304688 632.628906 991.980469 631.996094 986.730469 C 631.617188 983.453125 631.242188 980.15625 631.757812 976.90625 C 631.757812 978.34375 645.070312 984.070312 650.609375 986.992188 C 650.890625 996.644531 651.148438 1006.304688 651.429688 1015.960938 Z M 651.429688 1015.960938 " fill-opacity="1" fill-rule="nonzero"/><g clip-path="url(#8e17ab2511)"><path fill="#e6e6e6" d="M 2854.183594 2162.886719 C 2854.183594 2190.945312 2862.851562 2217.179688 2877.679688 2238.625 C 2862.625 2214.214844 2854.183594 2185.699219 2854.183594 2154.898438 Z M 2854.183594 2162.886719 " fill-opacity="1" fill-rule="nonzero"/></g><path fill="#e6e6e6" d="M 3771.214844 599.484375 C 3769.160156 562.527344 3746.351562 543.136719 3731.523438 541.539062 C 3731.066406 541.539062 3730.382812 541.539062 3729.925781 541.539062 C 3715.78125 541.539062 3708.484375 560.929688 3705.289062 572.792969 C 3689.777344 631.878906 3706.429688 691.195312 3739.277344 747.089844 C 3768.25 657.886719 3772.355469 617.28125 3771.214844 599.484375 Z M 3771.214844 599.484375 " fill-opacity="1" fill-rule="nonzero"/><path fill="#e6e6e6" d="M 3765.738281 911.117188 C 3750.226562 950.8125 3734.488281 988.226562 3721.257812 1019.25 C 3752.507812 1008.074219 3773.039062 1001.230469 3774.863281 1000.773438 L 3775.320312 1000.542969 C 3777.144531 999.859375 3802.695312 992.101562 3839.878906 982.75 C 3815.46875 960.621094 3790.148438 936.667969 3765.738281 911.117188 Z M 3765.738281 911.117188 " fill-opacity="1" fill-rule="nonzero"/><path fill="#e6e6e6" d="M 3419.6875 1260.84375 C 3411.929688 1269.285156 3409.648438 1274.53125 3408.964844 1276.585938 C 3409.648438 1277.269531 3410.789062 1278.640625 3412.84375 1280.464844 C 3437.707031 1300.996094 3454.132812 1299.171875 3464.398438 1296.207031 C 3479.910156 1291.414062 3497.246094 1277.726562 3514.8125 1256.28125 C 3531.234375 1236.207031 3547.660156 1209.742188 3563.398438 1177.804688 C 3564.769531 1174.839844 3566.367188 1171.871094 3567.734375 1168.90625 C 3524.164062 1189.4375 3488.578125 1208.832031 3461.433594 1227.082031 C 3443.183594 1239.171875 3429.265625 1250.578125 3419.6875 1260.84375 Z M 3419.6875 1260.84375 " fill-opacity="1" fill-rule="nonzero"/><g clip-path="url(#6464b15886)"><path fill="#e6e6e6" d="M 4354.738281 484.960938 C 4331.011719 484.960938 4308.65625 474.695312 4293.144531 456.675781 C 4277.179688 438.195312 4270.335938 413.785156 4274.210938 389.601562 L 4314.816406 148.695312 L 2988.546875 148.695312 C 2914.40625 148.695312 2854.183594 208.921875 2854.183594 283.066406 L 2854.183594 1723.957031 L 4583.539062 1723.957031 L 4583.539062 479.03125 L 4356.789062 484.734375 C 4356.105469 484.960938 4355.421875 484.960938 4354.738281 484.960938 Z M 4194.601562 1061.914062 C 4190.949219 1081.53125 4180.457031 1099.328125 4164.03125 1113.242188 C 4143.046875 1131.035156 4114.300781 1140.847656 4083.507812 1140.847656 C 4079.402344 1140.847656 4075.292969 1140.617188 4070.960938 1140.390625 C 4033.09375 1137.195312 3995.910156 1119.628906 3963.972656 1089.972656 C 3951.199219 1078.109375 3934.546875 1064.195312 3915.382812 1047.769531 C 3854.019531 1060.542969 3803.378906 1076.054688 3799.5 1077.199219 C 3795.167969 1078.566406 3740.875 1096.589844 3673.582031 1123.28125 C 3665.367188 1146.320312 3652.820312 1178.488281 3636.167969 1212.023438 C 3617.691406 1249.667969 3597.847656 1281.605469 3577.542969 1306.472656 C 3549.484375 1341.148438 3519.144531 1363.503906 3487.894531 1373.085938 C 3477.628906 1376.28125 3465.539062 1378.5625 3452.078125 1378.5625 C 3426.074219 1378.5625 3394.59375 1370.121094 3361.289062 1342.515625 C 3325.703125 1313.085938 3325.929688 1279.550781 3329.125 1262.214844 C 3333 1242.136719 3344.179688 1222.746094 3363.113281 1202.898438 C 3377.484375 1188.070312 3395.960938 1173.242188 3419.914062 1157.5 C 3457.324219 1132.863281 3507.285156 1106.855469 3568.648438 1079.707031 C 3584.160156 1072.863281 3599.671875 1066.246094 3614.726562 1060.085938 C 3626.359375 1034.535156 3660.804688 957.425781 3694.109375 871.648438 C 3698.21875 861.15625 3702.09375 851.117188 3705.746094 841.535156 C 3671.527344 796.136719 3647.117188 751.195312 3633.203125 708.078125 C 3615.867188 654.695312 3613.8125 602.222656 3627.273438 552.035156 C 3635.257812 521.691406 3649.398438 498.195312 3669.472656 482.226562 C 3689.320312 466.253906 3714.183594 458.957031 3739.507812 461.464844 C 3754.105469 463.0625 3768.476562 467.625 3782.164062 475.382812 C 3795.167969 482.679688 3806.574219 492.492188 3816.609375 504.355469 C 3826.648438 516.21875 3834.859375 530.132812 3840.789062 545.191406 C 3846.949219 560.929688 3850.597656 577.8125 3851.511719 595.378906 C 3853.335938 627.773438 3845.351562 673.628906 3827.101562 735.910156 C 3819.121094 763.285156 3809.082031 793.628906 3797.21875 826.707031 C 3841.246094 877.582031 3893.027344 923.664062 3937.738281 961.988281 C 3938.652344 961.761719 3939.792969 961.761719 3940.707031 961.535156 C 3992.261719 952.863281 4036.058594 949.441406 4070.960938 951.265625 C 4094.226562 952.636719 4113.617188 956.285156 4130.269531 962.21875 C 4152.398438 970.429688 4169.277344 982.976562 4180.457031 999.632812 C 4193.6875 1019.023438 4198.476562 1040.46875 4194.601562 1061.914062 Z M 4194.601562 1061.914062 " fill-opacity="1" fill-rule="nonzero"/></g><path fill="#e6e6e6" d="M 4067.082031 1031.34375 C 4053.394531 1030.65625 4037.65625 1030.886719 4020.089844 1032.253906 C 4062.0625 1070.351562 4099.929688 1062.140625 4111.792969 1052.101562 C 4114.300781 1050.050781 4115.214844 1048.222656 4115.214844 1047.769531 C 4115.214844 1047.539062 4114.988281 1046.171875 4113.390625 1043.660156 C 4111.792969 1040.925781 4099.703125 1033.167969 4067.082031 1031.34375 Z M 4067.082031 1031.34375 " fill-opacity="1" fill-rule="nonzero"/><g clip-path="url(#ae1c492d0d)"><path fill="#e6e6e6" d="M 4583.539062 2162.886719 L 4583.539062 2155.128906 C 4583.539062 2185.699219 4575.097656 2214.441406 4560.042969 2238.851562 C 4574.871094 2216.953125 4583.539062 2190.945312 4583.539062 2162.886719 Z M 4583.539062 2162.886719 " fill-opacity="1" fill-rule="nonzero"/></g><g clip-path="url(#360982ba40)"><path fill="#e6e6e6" d="M 4509.171875 345.117188 L 4471.535156 301.769531 L 4338.996094 148.695312 L 4331.925781 148.695312 L 4305.464844 305.878906 L 4290.863281 392.339844 C 4284.023438 432.71875 4315.730469 468.992188 4356.5625 468.082031 L 4444.160156 465.800781 L 4583.765625 462.378906 L 4583.765625 443.898438 Z M 4509.171875 345.117188 " fill-opacity="1" fill-rule="nonzero"/></g><path fill="#f80707" d="M 4449.179688 2297.253906 L 2988.546875 2297.253906 C 2942.464844 2297.253906 2901.859375 2273.984375 2877.679688 2238.625 C 2905.738281 2284.9375 2956.835938 2315.960938 3015.234375 2315.960938 L 4422.714844 2315.960938 C 4480.886719 2315.960938 4531.984375 2284.9375 4560.269531 2238.625 C 4536.089844 2273.984375 4495.257812 2297.253906 4449.179688 2297.253906 Z M 4449.179688 2297.253906 " fill-opacity="1" fill-rule="nonzero"/><path fill="#f80707" d="M 3844.894531 2014.828125 C 3845.351562 1935.4375 3799.273438 1889.125 3716.464844 1889.125 C 3695.480469 1889.125 3681.109375 1890.722656 3671.300781 1892.773438 L 3671.300781 2152.164062 C 3680.425781 2153.757812 3694.339844 2153.757812 3707.796875 2153.757812 C 3794.027344 2154.445312 3844.894531 2106.765625 3844.894531 2014.828125 Z M 3844.894531 2014.828125 " fill-opacity="1" fill-rule="nonzero"/><g clip-path="url(#6a6307cef9)"><path fill="#f80707" d="M 2854.183594 2154.898438 C 2854.183594 2185.46875 2862.625 2214.214844 2877.679688 2238.625 C 2901.859375 2273.984375 2942.464844 2297.253906 2988.546875 2297.253906 L 4449.40625 2297.253906 C 4495.484375 2297.253906 4536.089844 2273.984375 4560.269531 2238.625 C 4575.097656 2214.214844 4583.765625 2185.699219 4583.765625 2154.898438 L 4583.765625 1723.726562 L 2854.183594 1723.726562 Z M 3972.1875 1840.304688 L 4181.824219 1840.304688 L 4181.824219 1894.601562 L 4038.339844 1894.601562 L 4038.339844 1994.523438 L 4171.558594 1994.523438 L 4171.558594 2048.132812 L 4038.339844 2048.132812 L 4038.339844 2202.351562 L 3972.1875 2202.351562 Z M 3605.375 1845.09375 C 3634.800781 1840.761719 3671.527344 1837.566406 3710.535156 1837.566406 C 3778.285156 1837.566406 3824.367188 1851.484375 3857.671875 1879.542969 C 3893.027344 1908.058594 3914.699219 1951.40625 3914.699219 2012.773438 C 3914.699219 2077.792969 3892.574219 2125.472656 3858.355469 2156.726562 C 3822.3125 2189.578125 3764.828125 2206.230469 3694.566406 2206.230469 C 3656.472656 2206.230469 3627.5 2204.175781 3605.375 2201.441406 Z M 3305.171875 1845.09375 C 3329.351562 1840.761719 3362.199219 1837.566406 3406.226562 1837.566406 C 3454.589844 1837.566406 3489.488281 1847.832031 3512.53125 1866.996094 C 3533.972656 1884.789062 3547.886719 1913.078125 3547.886719 1947.070312 C 3547.886719 1981.519531 3537.167969 2009.351562 3517.320312 2028.742188 C 3490.402344 2054.976562 3449.570312 2067.980469 3403.035156 2067.980469 C 3390.714844 2067.980469 3379.992188 2067.523438 3370.871094 2065.242188 L 3370.871094 2202.125 L 3305.398438 2202.125 L 3305.398438 1845.09375 Z M 3305.171875 1845.09375 " fill-opacity="1" fill-rule="nonzero"/></g><path fill="#f80707" d="M 3482.417969 1949.808594 C 3482.417969 1909.429688 3454.589844 1888.667969 3408.738281 1888.667969 C 3390.488281 1888.667969 3377.484375 1890.265625 3370.640625 1891.863281 L 3370.640625 2013.230469 C 3379.308594 2015.96875 3389.347656 2016.421875 3402.804688 2016.421875 C 3452.308594 2016.421875 3482.417969 1991.785156 3482.417969 1949.808594 Z M 3482.417969 1949.808594 " fill-opacity="1" fill-rule="nonzero"/><path fill="#ffffff" d="M 3370.871094 2065.242188 C 3379.992188 2067.296875 3390.714844 2067.980469 3403.035156 2067.980469 C 3449.796875 2067.980469 3490.628906 2054.976562 3517.320312 2028.742188 C 3537.167969 2009.351562 3547.886719 1981.519531 3547.886719 1947.070312 C 3547.886719 1913.308594 3533.972656 1884.789062 3512.53125 1866.996094 C 3489.488281 1847.605469 3454.589844 1837.566406 3406.226562 1837.566406 C 3362.199219 1837.566406 3329.351562 1840.761719 3305.171875 1845.09375 L 3305.171875 2202.351562 L 3370.640625 2202.351562 L 3370.640625 2065.242188 Z M 3370.871094 1891.863281 C 3377.941406 1890.265625 3390.714844 1888.667969 3408.964844 1888.667969 C 3454.589844 1888.667969 3482.648438 1909.65625 3482.648438 1949.808594 C 3482.648438 1991.785156 3452.535156 2016.421875 3403.261719 2016.421875 C 3389.804688 2016.421875 3379.539062 2015.964844 3371.097656 2013.230469 L 3371.097656 1891.863281 Z M 3370.871094 1891.863281 " fill-opacity="1" fill-rule="nonzero"/><path fill="#ffffff" d="M 3858.355469 2156.726562 C 3892.800781 2125.472656 3914.699219 2077.792969 3914.699219 2012.773438 C 3914.699219 1951.632812 3893.257812 1908.058594 3857.671875 1879.542969 C 3824.367188 1851.710938 3778.285156 1837.566406 3710.535156 1837.566406 C 3671.300781 1837.566406 3634.800781 1840.761719 3605.375 1845.09375 L 3605.375 2201.210938 C 3627.5 2203.949219 3656.472656 2206 3694.566406 2206 C 3765.054688 2206.003906 3822.539062 2189.347656 3858.355469 2156.726562 Z M 3671.527344 1893.003906 C 3681.109375 1890.949219 3695.707031 1889.351562 3716.695312 1889.351562 C 3799.5 1889.351562 3845.582031 1935.4375 3845.125 2015.054688 C 3845.125 2106.992188 3794.027344 2154.671875 3708.253906 2154.214844 C 3694.796875 2154.214844 3680.878906 2154.214844 3671.753906 2152.617188 L 3671.753906 1893.003906 Z M 3671.527344 1893.003906 " fill-opacity="1" fill-rule="nonzero"/><path fill="#ffffff" d="M 4038.339844 2048.132812 L 4171.558594 2048.132812 L 4171.558594 1994.523438 L 4038.339844 1994.523438 L 4038.339844 1894.601562 L 4181.824219 1894.601562 L 4181.824219 1840.304688 L 3972.1875 1840.304688 L 3972.1875 2202.351562 L 4038.339844 2202.351562 Z M 4038.339844 2048.132812 " fill-opacity="1" fill-rule="nonzero"/><path fill="#fe0606" d="M 4130.726562 961.761719 C 4114.074219 955.601562 4094.683594 952.179688 4071.417969 950.8125 C 4036.515625 948.757812 3992.488281 952.179688 3941.160156 961.078125 C 3940.25 961.304688 3939.109375 961.304688 3938.195312 961.535156 C 3893.484375 923.433594 3841.476562 877.125 3797.675781 826.25 C 3809.539062 792.941406 3819.574219 762.601562 3827.558594 735.453125 C 3845.808594 673.402344 3853.792969 627.316406 3851.96875 594.921875 C 3851.054688 577.355469 3847.40625 560.476562 3841.246094 544.734375 C 3835.316406 529.675781 3827.332031 515.988281 3817.066406 503.898438 C 3807.027344 492.035156 3795.394531 482.226562 3782.621094 474.925781 C 3769.160156 467.167969 3754.789062 462.605469 3739.960938 461.007812 C 3714.640625 458.5 3689.777344 465.800781 3669.929688 481.769531 C 3650.085938 497.738281 3635.714844 521.464844 3627.730469 551.578125 C 3614.5 601.765625 3616.550781 654.238281 3633.660156 707.621094 C 3647.574219 750.738281 3671.984375 795.679688 3706.199219 841.078125 C 3702.550781 850.660156 3698.671875 860.699219 3694.566406 871.191406 C 3661.035156 956.972656 3626.816406 1034.082031 3615.183594 1059.632812 C 3600.125 1065.789062 3584.613281 1072.40625 3569.101562 1079.25 C 3507.738281 1106.398438 3457.78125 1132.632812 3420.371094 1157.042969 C 3396.417969 1172.785156 3377.941406 1187.613281 3363.570312 1202.441406 C 3344.40625 1222.289062 3333.230469 1241.683594 3329.582031 1261.757812 C 3326.386719 1279.097656 3326.160156 1312.632812 3361.746094 1342.0625 C 3395.050781 1369.664062 3426.53125 1378.105469 3452.535156 1378.105469 C 3465.992188 1378.105469 3478.085938 1375.824219 3488.347656 1372.628906 C 3519.828125 1363.046875 3549.941406 1340.691406 3578 1306.015625 C 3598.300781 1281.148438 3617.921875 1249.210938 3636.625 1211.566406 C 3653.050781 1178.03125 3665.824219 1145.636719 3674.035156 1122.824219 C 3741.332031 1096.132812 3795.621094 1078.109375 3799.957031 1076.742188 C 3803.835938 1075.601562 3854.476562 1060.085938 3915.839844 1047.3125 C 3935.003906 1063.507812 3951.65625 1077.652344 3964.429688 1089.515625 C 3996.59375 1119.175781 4033.550781 1136.511719 4071.417969 1139.933594 C 4075.523438 1140.390625 4079.855469 1140.390625 4083.964844 1140.390625 C 4114.53125 1140.390625 4143.5 1130.582031 4164.488281 1112.785156 C 4180.914062 1098.871094 4191.40625 1081.074219 4195.054688 1061.457031 C 4198.933594 1040.011719 4194.144531 1018.339844 4181.367188 998.949219 C 4169.734375 982.523438 4153.082031 969.972656 4130.726562 961.761719 Z M 3563.398438 1177.574219 C 3547.660156 1209.515625 3531.234375 1235.976562 3514.8125 1256.054688 C 3497.246094 1277.5 3479.910156 1291.1875 3464.398438 1295.976562 C 3454.132812 1299.171875 3437.707031 1300.769531 3412.84375 1280.234375 C 3410.5625 1278.410156 3409.421875 1277.042969 3408.964844 1276.359375 C 3409.648438 1274.304688 3411.929688 1269.058594 3419.6875 1260.617188 C 3429.265625 1250.351562 3443.183594 1238.945312 3461.433594 1226.625 C 3488.578125 1208.375 3524.164062 1188.984375 3567.734375 1168.449219 C 3566.367188 1171.871094 3564.996094 1174.839844 3563.398438 1177.574219 Z M 3705.515625 572.566406 C 3708.710938 560.703125 3716.011719 541.3125 3730.152344 541.3125 C 3730.609375 541.3125 3731.292969 541.3125 3731.75 541.3125 C 3746.578125 542.910156 3769.390625 562.300781 3771.441406 599.257812 C 3772.355469 617.050781 3768.476562 657.886719 3739.734375 746.859375 C 3706.65625 690.96875 3689.777344 631.652344 3705.515625 572.566406 Z M 3775.320312 1000.542969 L 3774.863281 1000.773438 C 3773.039062 1001.457031 3752.507812 1008.074219 3721.257812 1019.25 C 3734.488281 988.226562 3750.226562 950.8125 3765.738281 911.117188 C 3790.148438 936.667969 3815.46875 960.621094 3839.878906 982.75 C 3802.695312 992.105469 3777.144531 999.859375 3775.320312 1000.542969 Z M 4115.441406 1047.539062 C 4115.441406 1047.996094 4114.53125 1049.59375 4112.019531 1051.875 C 4100.160156 1061.914062 4062.292969 1070.125 4020.320312 1032.027344 C 4037.882812 1030.65625 4053.625 1030.429688 4067.308594 1031.113281 C 4099.929688 1032.9375 4111.792969 1040.695312 4113.617188 1043.433594 C 4115.214844 1046.171875 4115.441406 1047.539062 4115.441406 1047.539062 Z M 4115.441406 1047.539062 " fill-opacity="1" fill-rule="nonzero"/></svg>